  0
SECTION
  2
ENTITIES
  0
POLYLINE
  8
0
 66
     1
 10
0.0
 20
0.0
 30
0.0
 70
     8
  0
VERTEX
  8
0
 10
  -250.000
 20
    74.000
 30
    35.000
 70
    32
  0
VERTEX
  8
0
 10
  -248.990
 20
    74.977
 30
    35.000
 70
    32
  0
VERTEX
  8
0
 10
  -247.988
 20
    75.971
 30
    35.000
 70
    32
  0
VERTEX
  8
0
 10
  -247.000
 20
    77.000
 30
    35.000
 70
    32
  0
VERTEX
  8
0
 10
  -246.026
 20
    78.063
 30
    35.000
 70
    32
  0
VERTEX
  8
0
 10
  -245.038
 20
    79.092
 30
    35.000
 70
    32
  0
VERTEX
  8
0
 10
  -244.000
 20
    80.000
 30
    35.000
 70
    32
  0
VERTEX
  8
0
 10
  -238.446
 20
    81.881
 30
    35.000
 70
    32
  0
VERTEX
  8
0
 10
  -231.879
 20
    81.316
 30
    35.000
 70
    32
  0
VERTEX
  8
0
 10
  -225.000
 20
    80.000
 30
    35.000
 70
    32
  0
VERTEX
  8
0
 10
  -216.346
 20
    79.226
 30
    35.000
 70
    32
  0
VERTEX
  8
0
 10
  -208.102
 20
    79.440
 30
    35.000
 70
    32
  0
VERTEX
  8
0
 10
  -200.000
 20
    80.000
 30
    35.000
 70
    32
  0
VERTEX
  8
0
 10
  -183.549
 20
    80.522
 30
    35.000
 70
    32
  0
VERTEX
  8
0
 10
  -166.813
 20
    80.353
 30
    35.000
 70
    32
  0
VERTEX
  8
0
 10
  -150.000
 20
    80.000
 30
    35.000
 70
    32
  0
VERTEX
  8
0
 10
  -133.275
 20
    79.860
 30
    35.000
 70
    32
  0
VERTEX
  8
0
 10
  -116.627
 20
    79.906
 30
    35.000
 70
    32
  0
VERTEX
  8
0
 10
  -100.000
 20
    80.000
 30
    35.000
 70
    32
  0
VERTEX
  8
0
 10
   -83.349
 20
    80.037
 30
    35.000
 70
    32
  0
VERTEX
  8
0
 10
   -66.677
 20
    80.025
 30
    35.000
 70
    32
  0
VERTEX
  8
0
 10
   -50.000
 20
    80.000
 30
    35.000
 70
    32
  0
VERTEX
  8
0
 10
   -33.328
 20
    79.992
 30
    35.000
 70
    32
  0
VERTEX
  8
0
 10
   -16.663
 20
    79.996
 30
    35.000
 70
    32
  0
VERTEX
  8
0
 10
     0.000
 20
    80.000
 30
    35.000
 70
    32
  0
VERTEX
  8
0
 10
    16.663
 20
    79.996
 30
    35.000
 70
    32
  0
VERTEX
  8
0
 10
    33.329
 20
    79.993
 30
    35.000
 70
    32
  0
VERTEX
  8
0
 10
    50.000
 20
    80.000
 30
    35.000
 70
    32
  0
VERTEX
  8
0
 10
    66.677
 20
    80.022
 30
    35.000
 70
    32
  0
VERTEX
  8
0
 10
    83.348
 20
    80.034
 30
    35.000
 70
    32
  0
VERTEX
  8
0
 10
   100.000
 20
    80.000
 30
    35.000
 70
    32
  0
VERTEX
  8
0
 10
   116.631
 20
    79.914
 30
    35.000
 70
    32
  0
VERTEX
  8
0
 10
   133.281
 20
    79.873
 30
    35.000
 70
    32
  0
VERTEX
  8
0
 10
   150.000
 20
    80.000
 30
    35.000
 70
    32
  0
VERTEX
  8
0
 10
   166.800
 20
    80.322
 30
    35.000
 70
    32
  0
VERTEX
  8
0
 10
   183.530
 20
    80.475
 30
    35.000
 70
    32
  0
VERTEX
  8
0
 10
   200.000
 20
    80.000
 30
    35.000
 70
    32
  0
VERTEX
  8
0
 10
   208.122
 20
    79.490
 30
    35.000
 70
    32
  0
VERTEX
  8
0
 10
   216.374
 20
    79.295
 30
    35.000
 70
    32
  0
VERTEX
  8
0
 10
   225.000
 20
    80.000
 30
    35.000
 70
    32
  0
VERTEX
  8
0
 10
   230.372
 20
    80.899
 30
    35.000
 70
    32
  0
VERTEX
  8
0
 10
   235.521
 20
    81.258
 30
    35.000
 70
    32
  0
VERTEX
  8
0
 10
   240.000
 20
    80.000
 30
    35.000
 70
    32
  0
VERTEX
  8
0
 10
   241.777
 20
    78.599
 30
    35.000
 70
    32
  0
VERTEX
  8
0
 10
   243.409
 20
    76.849
 30
    35.000
 70
    32
  0
VERTEX
  8
0
 10
   245.000
 20
    75.000
 30
    35.000
 70
    32
  0
VERTEX
  8
0
 10
   246.632
 20
    73.250
 30
    35.000
 70
    32
  0
VERTEX
  8
0
 10
   248.306
 20
    71.600
 30
    35.000
 70
    32
  0
VERTEX
  8
0
 10
   250.000
 20
    70.000
 30
    35.000
 70
    32
  0
SEQEND
  8
0
  0
POLYLINE
  8
0
 66
     1
 10
0.0
 20
0.0
 30
0.0
 70
     8
  0
VERTEX
  8
0
 10
  -250.000
 20
   -74.000
 30
    35.000
 70
    32
  0
VERTEX
  8
0
 10
  -248.990
 20
   -74.977
 30
    35.000
 70
    32
  0
VERTEX
  8
0
 10
  -247.988
 20
   -75.971
 30
    35.000
 70
    32
  0
VERTEX
  8
0
 10
  -247.000
 20
   -77.000
 30
    35.000
 70
    32
  0
VERTEX
  8
0
 10
  -246.026
 20
   -78.063
 30
    35.000
 70
    32
  0
VERTEX
  8
0
 10
  -245.038
 20
   -79.092
 30
    35.000
 70
    32
  0
VERTEX
  8
0
 10
  -244.000
 20
   -80.000
 30
    35.000
 70
    32
  0
VERTEX
  8
0
 10
  -238.446
 20
   -81.881
 30
    35.000
 70
    32
  0
VERTEX
  8
0
 10
  -231.879
 20
   -81.316
 30
    35.000
 70
    32
  0
VERTEX
  8
0
 10
  -225.000
 20
   -80.000
 30
    35.000
 70
    32
  0
VERTEX
  8
0
 10
  -216.346
 20
   -79.226
 30
    35.000
 70
    32
  0
VERTEX
  8
0
 10
  -208.102
 20
   -79.440
 30
    35.000
 70
    32
  0
VERTEX
  8
0
 10
  -200.000
 20
   -80.000
 30
    35.000
 70
    32
  0
VERTEX
  8
0
 10
  -183.549
 20
   -80.522
 30
    35.000
 70
    32
  0
VERTEX
  8
0
 10
  -166.813
 20
   -80.353
 30
    35.000
 70
    32
  0
VERTEX
  8
0
 10
  -150.000
 20
   -80.000
 30
    35.000
 70
    32
  0
VERTEX
  8
0
 10
  -133.275
 20
   -79.860
 30
    35.000
 70
    32
  0
VERTEX
  8
0
 10
  -116.627
 20
   -79.906
 30
    35.000
 70
    32
  0
VERTEX
  8
0
 10
  -100.000
 20
   -80.000
 30
    35.000
 70
    32
  0
VERTEX
  8
0
 10
   -83.349
 20
   -80.037
 30
    35.000
 70
    32
  0
VERTEX
  8
0
 10
   -66.677
 20
   -80.025
 30
    35.000
 70
    32
  0
VERTEX
  8
0
 10
   -50.000
 20
   -80.000
 30
    35.000
 70
    32
  0
VERTEX
  8
0
 10
   -33.328
 20
   -79.992
 30
    35.000
 70
    32
  0
VERTEX
  8
0
 10
   -16.663
 20
   -79.996
 30
    35.000
 70
    32
  0
VERTEX
  8
0
 10
     0.000
 20
   -80.000
 30
    35.000
 70
    32
  0
VERTEX
  8
0
 10
    16.663
 20
   -79.996
 30
    35.000
 70
    32
  0
VERTEX
  8
0
 10
    33.329
 20
   -79.993
 30
    35.000
 70
    32
  0
VERTEX
  8
0
 10
    50.000
 20
   -80.000
 30
    35.000
 70
    32
  0
VERTEX
  8
0
 10
    66.677
 20
   -80.022
 30
    35.000
 70
    32
  0
VERTEX
  8
0
 10
    83.348
 20
   -80.034
 30
    35.000
 70
    32
  0
VERTEX
  8
0
 10
   100.000
 20
   -80.000
 30
    35.000
 70
    32
  0
VERTEX
  8
0
 10
   116.631
 20
   -79.914
 30
    35.000
 70
    32
  0
VERTEX
  8
0
 10
   133.281
 20
   -79.873
 30
    35.000
 70
    32
  0
VERTEX
  8
0
 10
   150.000
 20
   -80.000
 30
    35.000
 70
    32
  0
VERTEX
  8
0
 10
   166.800
 20
   -80.322
 30
    35.000
 70
    32
  0
VERTEX
  8
0
 10
   183.530
 20
   -80.475
 30
    35.000
 70
    32
  0
VERTEX
  8
0
 10
   200.000
 20
   -80.000
 30
    35.000
 70
    32
  0
VERTEX
  8
0
 10
   208.122
 20
   -79.490
 30
    35.000
 70
    32
  0
VERTEX
  8
0
 10
   216.374
 20
   -79.295
 30
    35.000
 70
    32
  0
VERTEX
  8
0
 10
   225.000
 20
   -80.000
 30
    35.000
 70
    32
  0
VERTEX
  8
0
 10
   230.372
 20
   -80.899
 30
    35.000
 70
    32
  0
VERTEX
  8
0
 10
   235.521
 20
   -81.258
 30
    35.000
 70
    32
  0
VERTEX
  8
0
 10
   240.000
 20
   -80.000
 30
    35.000
 70
    32
  0
VERTEX
  8
0
 10
   241.777
 20
   -78.599
 30
    35.000
 70
    32
  0
VERTEX
  8
0
 10
   243.409
 20
   -76.849
 30
    35.000
 70
    32
  0
VERTEX
  8
0
 10
   245.000
 20
   -75.000
 30
    35.000
 70
    32
  0
VERTEX
  8
0
 10
   246.632
 20
   -73.250
 30
    35.000
 70
    32
  0
VERTEX
  8
0
 10
   248.306
 20
   -71.600
 30
    35.000
 70
    32
  0
VERTEX
  8
0
 10
   250.000
 20
   -70.000
 30
    35.000
 70
    32
  0
SEQEND
  8
0
  0
POLYLINE
  8
0
 66
     1
 10
0.0
 20
0.0
 30
0.0
 70
     8
  0
VERTEX
  8
0
 10
  -250.000
 20
     0.000
 30
    35.000
 70
    32
  0
VERTEX
  8
0
 10
  -250.000
 20
     0.000
 30
    29.167
 70
    32
  0
VERTEX
  8
0
 10
  -250.000
 20
     0.000
 30
    23.333
 70
    32
  0
VERTEX
  8
0
 10
  -250.000
 20
     0.000
 30
    17.500
 70
    32
  0
VERTEX
  8
0
 10
  -249.000
 20
     0.000
 30
    17.000
 70
    32
  0
VERTEX
  8
0
 10
  -248.000
 20
     0.000
 30
    16.500
 70
    32
  0
VERTEX
  8
0
 10
  -247.000
 20
     0.000
 30
    16.000
 70
    32
  0
VERTEX
  8
0
 10
  -246.000
 20
     0.000
 30
    15.500
 70
    32
  0
VERTEX
  8
0
 10
  -245.000
 20
     0.000
 30
    15.000
 70
    32
  0
VERTEX
  8
0
 10
  -244.000
 20
     0.000
 30
    14.500
 70
    32
  0
VERTEX
  8
0
 10
  -237.667
 20
     0.000
 30
    11.333
 70
    32
  0
VERTEX
  8
0
 10
  -231.333
 20
     0.000
 30
     8.167
 70
    32
  0
VERTEX
  8
0
 10
  -225.000
 20
     0.000
 30
     5.000
 70
    32
  0
VERTEX
  8
0
 10
  -221.667
 20
     0.000
 30
     3.333
 70
    32
  0
VERTEX
  8
0
 10
  -218.333
 20
     0.000
 30
     1.667
 70
    32
  0
VERTEX
  8
0
 10
  -215.000
 20
     0.000
 30
     0.000
 70
    32
  0
VERTEX
  8
0
 10
  -215.000
 20
     0.000
 30
     0.000
 70
    32
  0
VERTEX
  8
0
 10
  -215.000
 20
     0.000
 30
     0.000
 70
    32
  0
VERTEX
  8
0
 10
  -215.000
 20
     0.000
 30
     0.000
 70
    32
  0
VERTEX
  8
0
 10
  -210.000
 20
     0.000
 30
     0.000
 70
    32
  0
VERTEX
  8
0
 10
  -205.000
 20
     0.000
 30
     0.000
 70
    32
  0
VERTEX
  8
0
 10
  -200.000
 20
     0.000
 30
     0.000
 70
    32
  0
VERTEX
  8
0
 10
  -183.333
 20
     0.000
 30
     0.000
 70
    32
  0
VERTEX
  8
0
 10
  -166.667
 20
     0.000
 30
     0.000
 70
    32
  0
VERTEX
  8
0
 10
  -150.000
 20
     0.000
 30
     0.000
 70
    32
  0
VERTEX
  8
0
 10
  -133.333
 20
     0.000
 30
     0.000
 70
    32
  0
VERTEX
  8
0
 10
  -116.667
 20
     0.000
 30
     0.000
 70
    32
  0
VERTEX
  8
0
 10
  -100.000
 20
     0.000
 30
     0.000
 70
    32
  0
VERTEX
  8
0
 10
   -83.333
 20
     0.000
 30
     0.000
 70
    32
  0
VERTEX
  8
0
 10
   -66.667
 20
     0.000
 30
     0.000
 70
    32
  0
VERTEX
  8
0
 10
   -50.000
 20
     0.000
 30
     0.000
 70
    32
  0
VERTEX
  8
0
 10
   -33.333
 20
     0.000
 30
     0.000
 70
    32
  0
VERTEX
  8
0
 10
   -16.667
 20
     0.000
 30
     0.000
 70
    32
  0
VERTEX
  8
0
 10
     0.000
 20
     0.000
 30
     0.000
 70
    32
  0
VERTEX
  8
0
 10
    16.667
 20
     0.000
 30
     0.000
 70
    32
  0
VERTEX
  8
0
 10
    33.333
 20
     0.000
 30
     0.000
 70
    32
  0
VERTEX
  8
0
 10
    50.000
 20
     0.000
 30
     0.000
 70
    32
  0
VERTEX
  8
0
 10
    66.667
 20
     0.000
 30
     0.000
 70
    32
  0
VERTEX
  8
0
 10
    83.333
 20
     0.000
 30
     0.000
 70
    32
  0
VERTEX
  8
0
 10
   100.000
 20
     0.000
 30
     0.000
 70
    32
  0
VERTEX
  8
0
 10
   116.667
 20
     0.000
 30
     0.000
 70
    32
  0
VERTEX
  8
0
 10
   133.333
 20
     0.000
 30
     0.000
 70
    32
  0
VERTEX
  8
0
 10
   150.000
 20
     0.000
 30
     0.000
 70
    32
  0
VERTEX
  8
0
 10
   166.667
 20
     0.000
 30
     0.000
 70
    32
  0
VERTEX
  8
0
 10
   183.333
 20
     0.000
 30
     0.000
 70
    32
  0
VERTEX
  8
0
 10
   200.000
 20
     0.000
 30
     0.000
 70
    32
  0
VERTEX
  8
0
 10
   204.333
 20
     0.000
 30
     0.000
 70
    32
  0
VERTEX
  8
0
 10
   208.667
 20
     0.000
 30
     0.000
 70
    32
  0
VERTEX
  8
0
 10
   213.000
 20
     0.000
 30
     0.000
 70
    32
  0
VERTEX
  8
0
 10
   213.000
 20
     0.000
 30
     0.000
 70
    32
  0
VERTEX
  8
0
 10
   213.000
 20
     0.000
 30
     0.000
 70
    32
  0
VERTEX
  8
0
 10
   213.000
 20
     0.000
 30
     0.000
 70
    32
  0
VERTEX
  8
0
 10
   217.000
 20
     0.000
 30
     2.380
 70
    32
  0
VERTEX
  8
0
 10
   221.000
 20
     0.000
 30
     4.760
 70
    32
  0
VERTEX
  8
0
 10
   225.000
 20
     0.000
 30
     7.140
 70
    32
  0
VERTEX
  8
0
 10
   230.000
 20
     0.000
 30
    10.110
 70
    32
  0
VERTEX
  8
0
 10
   235.000
 20
     0.000
 30
    13.080
 70
    32
  0
VERTEX
  8
0
 10
   240.000
 20
     0.000
 30
    16.050
 70
    32
  0
VERTEX
  8
0
 10
   241.667
 20
     0.000
 30
    17.043
 70
    32
  0
VERTEX
  8
0
 10
   243.333
 20
     0.000
 30
    18.037
 70
    32
  0
VERTEX
  8
0
 10
   245.000
 20
     0.000
 30
    19.030
 70
    32
  0
VERTEX
  8
0
 10
   246.667
 20
     0.000
 30
    20.020
 70
    32
  0
VERTEX
  8
0
 10
   248.333
 20
     0.000
 30
    21.010
 70
    32
  0
VERTEX
  8
0
 10
   250.000
 20
     0.000
 30
    22.000
 70
    32
  0
VERTEX
  8
0
 10
   250.000
 20
     0.000
 30
    26.333
 70
    32
  0
VERTEX
  8
0
 10
   250.000
 20
     0.000
 30
    30.667
 70
    32
  0
VERTEX
  8
0
 10
   250.000
 20
     0.000
 30
    35.000
 70
    32
  0
SEQEND
  8
0
  0
ENDSEC
  0
EOF
