  0
SECTION
  2
ENTITIES
  0
TEXT
  8
0
 10
    -45.67
 20
     35.69
 40
      2.00
  1
 0.00  
 50
      0.00
  0
POLYLINE
  8
0
 66
     1
  0
VERTEX
  8
0
 10
     0.000
 20
    17.500
0
VERTEX
  8
0
 10
   -74.000
 20
    35.000
0
VERTEX
  8
0
 10
   -69.333
 20
    35.126
0
VERTEX
  8
0
 10
   -64.000
 20
    35.259
0
VERTEX
  8
0
 10
   -58.667
 20
    35.382
0
VERTEX
  8
0
 10
   -53.333
 20
    35.494
0
VERTEX
  8
0
 10
   -48.000
 20
    35.595
0
VERTEX
  8
0
 10
   -42.667
 20
    35.686
0
VERTEX
  8
0
 10
   -37.333
 20
    35.766
0
VERTEX
  8
0
 10
   -32.000
 20
    35.835
0
VERTEX
  8
0
 10
   -26.667
 20
    35.894
0
VERTEX
  8
0
 10
   -21.333
 20
    35.942
0
VERTEX
  8
0
 10
   -16.000
 20
    35.979
0
VERTEX
  8
0
 10
   -10.667
 20
    36.006
0
VERTEX
  8
0
 10
    -5.333
 20
    36.022
0
VERTEX
  8
0
 10
     0.000
 20
    36.027
0
SEQEND
  8
0
  0
TEXT
  8
0
 10
    -56.33
 20
     35.73
 40
      2.00
  1
 0.25  
 50
      0.00
  0
POLYLINE
  8
0
 66
     1
  0
VERTEX
  8
0
 10
     0.000
 20
    11.250
0
VERTEX
  8
0
 10
   -80.000
 20
    11.250
0
VERTEX
  8
0
 10
   -80.000
 20
    35.000
0
VERTEX
  8
0
 10
   -80.000
 20
    35.059
0
VERTEX
  8
0
 10
   -74.667
 20
    35.214
0
VERTEX
  8
0
 10
   -69.333
 20
    35.358
0
VERTEX
  8
0
 10
   -64.000
 20
    35.491
0
VERTEX
  8
0
 10
   -58.667
 20
    35.614
0
VERTEX
  8
0
 10
   -53.333
 20
    35.726
0
VERTEX
  8
0
 10
   -48.000
 20
    35.827
0
VERTEX
  8
0
 10
   -42.667
 20
    35.918
0
VERTEX
  8
0
 10
   -37.333
 20
    35.998
0
VERTEX
  8
0
 10
   -32.000
 20
    36.067
0
VERTEX
  8
0
 10
   -26.667
 20
    36.126
0
VERTEX
  8
0
 10
   -21.333
 20
    36.174
0
VERTEX
  8
0
 10
   -16.000
 20
    36.211
0
VERTEX
  8
0
 10
   -10.667
 20
    36.238
0
VERTEX
  8
0
 10
    -5.333
 20
    36.254
0
VERTEX
  8
0
 10
     0.000
 20
    36.259
0
SEQEND
  8
0
  0
TEXT
  8
0
 10
    -51.00
 20
     35.77
 40
      2.00
  1
 0.50  
 50
      0.00
  0
POLYLINE
  8
0
 66
     1
  0
VERTEX
  8
0
 10
     0.000
 20
     5.000
0
VERTEX
  8
0
 10
   -80.000
 20
     5.000
0
VERTEX
  8
0
 10
   -80.000
 20
    35.000
0
VERTEX
  8
0
 10
   -74.667
 20
    35.155
0
VERTEX
  8
0
 10
   -69.333
 20
    35.299
0
VERTEX
  8
0
 10
   -64.000
 20
    35.432
0
VERTEX
  8
0
 10
   -58.667
 20
    35.555
0
VERTEX
  8
0
 10
   -53.333
 20
    35.667
0
VERTEX
  8
0
 10
   -48.000
 20
    35.768
0
VERTEX
  8
0
 10
   -42.667
 20
    35.859
0
VERTEX
  8
0
 10
   -37.333
 20
    35.939
0
VERTEX
  8
0
 10
   -32.000
 20
    36.008
0
VERTEX
  8
0
 10
   -26.667
 20
    36.067
0
VERTEX
  8
0
 10
   -21.333
 20
    36.115
0
VERTEX
  8
0
 10
   -16.000
 20
    36.152
0
VERTEX
  8
0
 10
   -10.667
 20
    36.179
0
VERTEX
  8
0
 10
    -5.333
 20
    36.195
0
VERTEX
  8
0
 10
     0.000
 20
    36.200
0
SEQEND
  8
0
  0
TEXT
  8
0
 10
    -51.00
 20
     35.75
 40
      2.00
  1
 0.75  
 50
      0.00
  0
POLYLINE
  8
0
 66
     1
  0
VERTEX
  8
0
 10
     0.000
 20
     0.000
0
VERTEX
  8
0
 10
   -80.000
 20
     0.000
0
VERTEX
  8
0
 10
   -79.241
 20
    35.000
0
VERTEX
  8
0
 10
   -74.667
 20
    35.133
0
VERTEX
  8
0
 10
   -69.333
 20
    35.277
0
VERTEX
  8
0
 10
   -64.000
 20
    35.410
0
VERTEX
  8
0
 10
   -58.667
 20
    35.533
0
VERTEX
  8
0
 10
   -53.333
 20
    35.645
0
VERTEX
  8
0
 10
   -48.000
 20
    35.746
0
VERTEX
  8
0
 10
   -42.667
 20
    35.837
0
VERTEX
  8
0
 10
   -37.333
 20
    35.917
0
VERTEX
  8
0
 10
   -32.000
 20
    35.986
0
VERTEX
  8
0
 10
   -26.667
 20
    36.045
0
VERTEX
  8
0
 10
   -21.333
 20
    36.093
0
VERTEX
  8
0
 10
   -16.000
 20
    36.130
0
VERTEX
  8
0
 10
   -10.667
 20
    36.157
0
VERTEX
  8
0
 10
    -5.333
 20
    36.173
0
VERTEX
  8
0
 10
     0.000
 20
    36.178
0
SEQEND
  8
0
  0
TEXT
  8
0
 10
    -51.00
 20
     35.77
 40
      2.00
  1
 1.00  
 50
      0.00
  0
POLYLINE
  8
0
 66
     1
  0
VERTEX
  8
0
 10
     0.000
 20
     0.000
0
VERTEX
  8
0
 10
   -80.000
 20
     0.000
0
VERTEX
  8
0
 10
   -80.000
 20
    35.000
0
VERTEX
  8
0
 10
   -74.667
 20
    35.155
0
VERTEX
  8
0
 10
   -69.333
 20
    35.299
0
VERTEX
  8
0
 10
   -64.000
 20
    35.432
0
VERTEX
  8
0
 10
   -58.667
 20
    35.555
0
VERTEX
  8
0
 10
   -53.333
 20
    35.667
0
VERTEX
  8
0
 10
   -48.000
 20
    35.768
0
VERTEX
  8
0
 10
   -42.667
 20
    35.859
0
VERTEX
  8
0
 10
   -37.333
 20
    35.939
0
VERTEX
  8
0
 10
   -32.000
 20
    36.008
0
VERTEX
  8
0
 10
   -26.667
 20
    36.067
0
VERTEX
  8
0
 10
   -21.333
 20
    36.115
0
VERTEX
  8
0
 10
   -16.000
 20
    36.152
0
VERTEX
  8
0
 10
   -10.667
 20
    36.179
0
VERTEX
  8
0
 10
    -5.333
 20
    36.195
0
VERTEX
  8
0
 10
     0.000
 20
    36.200
0
SEQEND
  8
0
  0
TEXT
  8
0
 10
    -56.33
 20
     35.68
 40
      2.00
  1
 1.50  
 50
      0.00
  0
POLYLINE
  8
0
 66
     1
  0
VERTEX
  8
0
 10
     0.000
 20
     0.000
0
VERTEX
  8
0
 10
   -80.000
 20
     0.000
0
VERTEX
  8
0
 10
   -80.000
 20
    35.000
0
VERTEX
  8
0
 10
   -80.000
 20
    35.015
0
VERTEX
  8
0
 10
   -74.667
 20
    35.170
0
VERTEX
  8
0
 10
   -69.333
 20
    35.314
0
VERTEX
  8
0
 10
   -64.000
 20
    35.447
0
VERTEX
  8
0
 10
   -58.667
 20
    35.570
0
VERTEX
  8
0
 10
   -53.333
 20
    35.682
0
VERTEX
  8
0
 10
   -48.000
 20
    35.783
0
VERTEX
  8
0
 10
   -42.667
 20
    35.874
0
VERTEX
  8
0
 10
   -37.333
 20
    35.954
0
VERTEX
  8
0
 10
   -32.000
 20
    36.023
0
VERTEX
  8
0
 10
   -26.667
 20
    36.082
0
VERTEX
  8
0
 10
   -21.333
 20
    36.130
0
VERTEX
  8
0
 10
   -16.000
 20
    36.167
0
VERTEX
  8
0
 10
   -10.667
 20
    36.194
0
VERTEX
  8
0
 10
    -5.333
 20
    36.210
0
VERTEX
  8
0
 10
     0.000
 20
    36.215
0
SEQEND
  8
0
  0
TEXT
  8
0
 10
    -51.00
 20
     35.77
 40
      2.00
  1
 2.00  
 50
      0.00
  0
POLYLINE
  8
0
 66
     1
  0
VERTEX
  8
0
 10
     0.000
 20
     0.000
0
VERTEX
  8
0
 10
   -80.000
 20
     0.000
0
VERTEX
  8
0
 10
   -80.000
 20
    35.000
0
VERTEX
  8
0
 10
   -74.667
 20
    35.155
0
VERTEX
  8
0
 10
   -69.333
 20
    35.299
0
VERTEX
  8
0
 10
   -64.000
 20
    35.432
0
VERTEX
  8
0
 10
   -58.667
 20
    35.555
0
VERTEX
  8
0
 10
   -53.333
 20
    35.667
0
VERTEX
  8
0
 10
   -48.000
 20
    35.768
0
VERTEX
  8
0
 10
   -42.667
 20
    35.859
0
VERTEX
  8
0
 10
   -37.333
 20
    35.939
0
VERTEX
  8
0
 10
   -32.000
 20
    36.008
0
VERTEX
  8
0
 10
   -26.667
 20
    36.067
0
VERTEX
  8
0
 10
   -21.333
 20
    36.115
0
VERTEX
  8
0
 10
   -16.000
 20
    36.152
0
VERTEX
  8
0
 10
   -10.667
 20
    36.179
0
VERTEX
  8
0
 10
    -5.333
 20
    36.195
0
VERTEX
  8
0
 10
     0.000
 20
    36.200
0
SEQEND
  8
0
  0
TEXT
  8
0
 10
    -51.00
 20
     35.76
 40
      2.00
  1
 2.50  
 50
      0.00
  0
POLYLINE
  8
0
 66
     1
  0
VERTEX
  8
0
 10
     0.000
 20
     0.000
0
VERTEX
  8
0
 10
   -80.000
 20
     0.000
0
VERTEX
  8
0
 10
   -79.868
 20
    35.000
0
VERTEX
  8
0
 10
   -74.667
 20
    35.151
0
VERTEX
  8
0
 10
   -69.333
 20
    35.295
0
VERTEX
  8
0
 10
   -64.000
 20
    35.428
0
VERTEX
  8
0
 10
   -58.667
 20
    35.551
0
VERTEX
  8
0
 10
   -53.333
 20
    35.663
0
VERTEX
  8
0
 10
   -48.000
 20
    35.764
0
VERTEX
  8
0
 10
   -42.667
 20
    35.855
0
VERTEX
  8
0
 10
   -37.333
 20
    35.935
0
VERTEX
  8
0
 10
   -32.000
 20
    36.004
0
VERTEX
  8
0
 10
   -26.667
 20
    36.063
0
VERTEX
  8
0
 10
   -21.333
 20
    36.111
0
VERTEX
  8
0
 10
   -16.000
 20
    36.148
0
VERTEX
  8
0
 10
   -10.667
 20
    36.175
0
VERTEX
  8
0
 10
    -5.333
 20
    36.191
0
VERTEX
  8
0
 10
     0.000
 20
    36.196
0
SEQEND
  8
0
  0
TEXT
  8
0
 10
    -51.00
 20
     35.77
 40
      2.00
  1
 3.00  
 50
      0.00
  0
POLYLINE
  8
0
 66
     1
  0
VERTEX
  8
0
 10
     0.000
 20
     0.000
0
VERTEX
  8
0
 10
   -80.000
 20
     0.000
0
VERTEX
  8
0
 10
   -80.000
 20
    35.000
0
VERTEX
  8
0
 10
   -74.667
 20
    35.155
0
VERTEX
  8
0
 10
   -69.333
 20
    35.299
0
VERTEX
  8
0
 10
   -64.000
 20
    35.432
0
VERTEX
  8
0
 10
   -58.667
 20
    35.555
0
VERTEX
  8
0
 10
   -53.333
 20
    35.667
0
VERTEX
  8
0
 10
   -48.000
 20
    35.768
0
VERTEX
  8
0
 10
   -42.667
 20
    35.859
0
VERTEX
  8
0
 10
   -37.333
 20
    35.939
0
VERTEX
  8
0
 10
   -32.000
 20
    36.008
0
VERTEX
  8
0
 10
   -26.667
 20
    36.067
0
VERTEX
  8
0
 10
   -21.333
 20
    36.115
0
VERTEX
  8
0
 10
   -16.000
 20
    36.152
0
VERTEX
  8
0
 10
   -10.667
 20
    36.179
0
VERTEX
  8
0
 10
    -5.333
 20
    36.195
0
VERTEX
  8
0
 10
     0.000
 20
    36.200
0
SEQEND
  8
0
  0
TEXT
  8
0
 10
    -56.33
 20
     35.67
 40
      2.00
  1
 3.50  
 50
      0.00
  0
POLYLINE
  8
0
 66
     1
  0
VERTEX
  8
0
 10
     0.000
 20
     0.000
0
VERTEX
  8
0
 10
   -80.000
 20
     0.000
0
VERTEX
  8
0
 10
   -80.000
 20
    35.000
0
VERTEX
  8
0
 10
   -80.000
 20
    35.001
0
VERTEX
  8
0
 10
   -74.667
 20
    35.156
0
VERTEX
  8
0
 10
   -69.333
 20
    35.300
0
VERTEX
  8
0
 10
   -64.000
 20
    35.433
0
VERTEX
  8
0
 10
   -58.667
 20
    35.556
0
VERTEX
  8
0
 10
   -53.333
 20
    35.668
0
VERTEX
  8
0
 10
   -48.000
 20
    35.769
0
VERTEX
  8
0
 10
   -42.667
 20
    35.860
0
VERTEX
  8
0
 10
   -37.333
 20
    35.940
0
VERTEX
  8
0
 10
   -32.000
 20
    36.009
0
VERTEX
  8
0
 10
   -26.667
 20
    36.068
0
VERTEX
  8
0
 10
   -21.333
 20
    36.116
0
VERTEX
  8
0
 10
   -16.000
 20
    36.153
0
VERTEX
  8
0
 10
   -10.667
 20
    36.180
0
VERTEX
  8
0
 10
    -5.333
 20
    36.196
0
VERTEX
  8
0
 10
     0.000
 20
    36.201
0
SEQEND
  8
0
  0
TEXT
  8
0
 10
    -51.00
 20
     35.77
 40
      2.00
  1
 4.00  
 50
      0.00
  0
POLYLINE
  8
0
 66
     1
  0
VERTEX
  8
0
 10
     0.000
 20
     0.000
0
VERTEX
  8
0
 10
   -80.000
 20
     0.000
0
VERTEX
  8
0
 10
   -80.000
 20
    35.000
0
VERTEX
  8
0
 10
   -74.667
 20
    35.155
0
VERTEX
  8
0
 10
   -69.333
 20
    35.299
0
VERTEX
  8
0
 10
   -64.000
 20
    35.432
0
VERTEX
  8
0
 10
   -58.667
 20
    35.555
0
VERTEX
  8
0
 10
   -53.333
 20
    35.667
0
VERTEX
  8
0
 10
   -48.000
 20
    35.768
0
VERTEX
  8
0
 10
   -42.667
 20
    35.859
0
VERTEX
  8
0
 10
   -37.333
 20
    35.939
0
VERTEX
  8
0
 10
   -32.000
 20
    36.008
0
VERTEX
  8
0
 10
   -26.667
 20
    36.067
0
VERTEX
  8
0
 10
   -21.333
 20
    36.115
0
VERTEX
  8
0
 10
   -16.000
 20
    36.152
0
VERTEX
  8
0
 10
   -10.667
 20
    36.179
0
VERTEX
  8
0
 10
    -5.333
 20
    36.195
0
VERTEX
  8
0
 10
     0.000
 20
    36.200
0
SEQEND
  8
0
  0
TEXT
  8
0
 10
    -51.00
 20
     35.77
 40
      2.00
  1
 4.50  
 50
      0.00
  0
POLYLINE
  8
0
 66
     1
  0
VERTEX
  8
0
 10
     0.000
 20
     0.000
0
VERTEX
  8
0
 10
   -80.000
 20
     0.000
0
VERTEX
  8
0
 10
   -79.993
 20
    35.000
0
VERTEX
  8
0
 10
   -74.667
 20
    35.154
0
VERTEX
  8
0
 10
   -69.333
 20
    35.298
0
VERTEX
  8
0
 10
   -64.000
 20
    35.432
0
VERTEX
  8
0
 10
   -58.667
 20
    35.554
0
VERTEX
  8
0
 10
   -53.333
 20
    35.666
0
VERTEX
  8
0
 10
   -48.000
 20
    35.768
0
VERTEX
  8
0
 10
   -42.667
 20
    35.858
0
VERTEX
  8
0
 10
   -37.333
 20
    35.938
0
VERTEX
  8
0
 10
   -32.000
 20
    36.008
0
VERTEX
  8
0
 10
   -26.667
 20
    36.066
0
VERTEX
  8
0
 10
   -21.333
 20
    36.114
0
VERTEX
  8
0
 10
   -16.000
 20
    36.152
0
VERTEX
  8
0
 10
   -10.667
 20
    36.178
0
VERTEX
  8
0
 10
    -5.333
 20
    36.194
0
VERTEX
  8
0
 10
     0.000
 20
    36.200
0
SEQEND
  8
0
  0
TEXT
  8
0
 10
    -51.00
 20
     35.77
 40
      2.00
  1
 5.00  
 50
      0.00
  0
POLYLINE
  8
0
 66
     1
  0
VERTEX
  8
0
 10
     0.000
 20
     0.000
0
VERTEX
  8
0
 10
   -80.000
 20
     0.000
0
VERTEX
  8
0
 10
   -80.000
 20
    35.000
0
VERTEX
  8
0
 10
   -74.667
 20
    35.155
0
VERTEX
  8
0
 10
   -69.333
 20
    35.299
0
VERTEX
  8
0
 10
   -64.000
 20
    35.432
0
VERTEX
  8
0
 10
   -58.667
 20
    35.555
0
VERTEX
  8
0
 10
   -53.333
 20
    35.667
0
VERTEX
  8
0
 10
   -48.000
 20
    35.768
0
VERTEX
  8
0
 10
   -42.667
 20
    35.859
0
VERTEX
  8
0
 10
   -37.333
 20
    35.939
0
VERTEX
  8
0
 10
   -32.000
 20
    36.008
0
VERTEX
  8
0
 10
   -26.667
 20
    36.067
0
VERTEX
  8
0
 10
   -21.333
 20
    36.115
0
VERTEX
  8
0
 10
   -16.000
 20
    36.152
0
VERTEX
  8
0
 10
   -10.667
 20
    36.179
0
VERTEX
  8
0
 10
    -5.333
 20
    36.195
0
VERTEX
  8
0
 10
     0.000
 20
    36.200
0
SEQEND
  8
0
  0
TEXT
  8
0
 10
     45.00
 20
     35.77
 40
      2.00
  1
 5.50  
 50
      0.00
  0
POLYLINE
  8
0
 66
     1
  0
VERTEX
  8
0
 10
     0.000
 20
     0.000
0
VERTEX
  8
0
 10
    80.000
 20
     0.000
0
VERTEX
  8
0
 10
    79.994
 20
    35.000
0
VERTEX
  8
0
 10
    74.667
 20
    35.154
0
VERTEX
  8
0
 10
    69.333
 20
    35.298
0
VERTEX
  8
0
 10
    64.000
 20
    35.432
0
VERTEX
  8
0
 10
    58.667
 20
    35.554
0
VERTEX
  8
0
 10
    53.333
 20
    35.666
0
VERTEX
  8
0
 10
    48.000
 20
    35.768
0
VERTEX
  8
0
 10
    42.667
 20
    35.858
0
VERTEX
  8
0
 10
    37.333
 20
    35.938
0
VERTEX
  8
0
 10
    32.000
 20
    36.008
0
VERTEX
  8
0
 10
    26.667
 20
    36.066
0
VERTEX
  8
0
 10
    21.333
 20
    36.114
0
VERTEX
  8
0
 10
    16.000
 20
    36.152
0
VERTEX
  8
0
 10
    10.667
 20
    36.178
0
VERTEX
  8
0
 10
     5.333
 20
    36.194
0
VERTEX
  8
0
 10
     0.000
 20
    36.200
0
SEQEND
  8
0
  0
TEXT
  8
0
 10
     45.00
 20
     35.77
 40
      2.00
  1
 6.00  
 50
      0.00
  0
POLYLINE
  8
0
 66
     1
  0
VERTEX
  8
0
 10
     0.000
 20
     0.000
0
VERTEX
  8
0
 10
    80.000
 20
     0.000
0
VERTEX
  8
0
 10
    80.000
 20
    35.000
0
VERTEX
  8
0
 10
    74.667
 20
    35.155
0
VERTEX
  8
0
 10
    69.333
 20
    35.299
0
VERTEX
  8
0
 10
    64.000
 20
    35.432
0
VERTEX
  8
0
 10
    58.667
 20
    35.555
0
VERTEX
  8
0
 10
    53.333
 20
    35.667
0
VERTEX
  8
0
 10
    48.000
 20
    35.768
0
VERTEX
  8
0
 10
    42.667
 20
    35.859
0
VERTEX
  8
0
 10
    37.333
 20
    35.939
0
VERTEX
  8
0
 10
    32.000
 20
    36.008
0
VERTEX
  8
0
 10
    26.667
 20
    36.067
0
VERTEX
  8
0
 10
    21.333
 20
    36.115
0
VERTEX
  8
0
 10
    16.000
 20
    36.152
0
VERTEX
  8
0
 10
    10.667
 20
    36.179
0
VERTEX
  8
0
 10
     5.333
 20
    36.195
0
VERTEX
  8
0
 10
     0.000
 20
    36.200
0
SEQEND
  8
0
  0
TEXT
  8
0
 10
     50.33
 20
     35.67
 40
      2.00
  1
 6.50  
 50
      0.00
  0
POLYLINE
  8
0
 66
     1
  0
VERTEX
  8
0
 10
     0.000
 20
     0.000
0
VERTEX
  8
0
 10
    80.000
 20
     0.000
0
VERTEX
  8
0
 10
    80.000
 20
    35.000
0
VERTEX
  8
0
 10
    80.000
 20
    35.001
0
VERTEX
  8
0
 10
    74.667
 20
    35.156
0
VERTEX
  8
0
 10
    69.333
 20
    35.300
0
VERTEX
  8
0
 10
    64.000
 20
    35.433
0
VERTEX
  8
0
 10
    58.667
 20
    35.556
0
VERTEX
  8
0
 10
    53.333
 20
    35.668
0
VERTEX
  8
0
 10
    48.000
 20
    35.769
0
VERTEX
  8
0
 10
    42.667
 20
    35.860
0
VERTEX
  8
0
 10
    37.333
 20
    35.940
0
VERTEX
  8
0
 10
    32.000
 20
    36.009
0
VERTEX
  8
0
 10
    26.667
 20
    36.068
0
VERTEX
  8
0
 10
    21.333
 20
    36.116
0
VERTEX
  8
0
 10
    16.000
 20
    36.153
0
VERTEX
  8
0
 10
    10.667
 20
    36.180
0
VERTEX
  8
0
 10
     5.333
 20
    36.196
0
VERTEX
  8
0
 10
     0.000
 20
    36.201
0
SEQEND
  8
0
  0
TEXT
  8
0
 10
     45.00
 20
     35.77
 40
      2.00
  1
 7.00  
 50
      0.00
  0
POLYLINE
  8
0
 66
     1
  0
VERTEX
  8
0
 10
     0.000
 20
     0.000
0
VERTEX
  8
0
 10
    80.000
 20
     0.000
0
VERTEX
  8
0
 10
    80.000
 20
    35.000
0
VERTEX
  8
0
 10
    74.667
 20
    35.155
0
VERTEX
  8
0
 10
    69.333
 20
    35.299
0
VERTEX
  8
0
 10
    64.000
 20
    35.432
0
VERTEX
  8
0
 10
    58.667
 20
    35.555
0
VERTEX
  8
0
 10
    53.333
 20
    35.667
0
VERTEX
  8
0
 10
    48.000
 20
    35.768
0
VERTEX
  8
0
 10
    42.667
 20
    35.859
0
VERTEX
  8
0
 10
    37.333
 20
    35.939
0
VERTEX
  8
0
 10
    32.000
 20
    36.008
0
VERTEX
  8
0
 10
    26.667
 20
    36.067
0
VERTEX
  8
0
 10
    21.333
 20
    36.115
0
VERTEX
  8
0
 10
    16.000
 20
    36.152
0
VERTEX
  8
0
 10
    10.667
 20
    36.179
0
VERTEX
  8
0
 10
     5.333
 20
    36.195
0
VERTEX
  8
0
 10
     0.000
 20
    36.200
0
SEQEND
  8
0
  0
TEXT
  8
0
 10
     45.00
 20
     35.76
 40
      2.00
  1
 7.50  
 50
      0.00
  0
POLYLINE
  8
0
 66
     1
  0
VERTEX
  8
0
 10
     0.000
 20
     0.000
0
VERTEX
  8
0
 10
    80.000
 20
     0.000
0
VERTEX
  8
0
 10
    79.880
 20
    35.000
0
VERTEX
  8
0
 10
    74.667
 20
    35.151
0
VERTEX
  8
0
 10
    69.333
 20
    35.295
0
VERTEX
  8
0
 10
    64.000
 20
    35.429
0
VERTEX
  8
0
 10
    58.667
 20
    35.551
0
VERTEX
  8
0
 10
    53.333
 20
    35.663
0
VERTEX
  8
0
 10
    48.000
 20
    35.765
0
VERTEX
  8
0
 10
    42.667
 20
    35.855
0
VERTEX
  8
0
 10
    37.333
 20
    35.935
0
VERTEX
  8
0
 10
    32.000
 20
    36.005
0
VERTEX
  8
0
 10
    26.667
 20
    36.063
0
VERTEX
  8
0
 10
    21.333
 20
    36.111
0
VERTEX
  8
0
 10
    16.000
 20
    36.149
0
VERTEX
  8
0
 10
    10.667
 20
    36.175
0
VERTEX
  8
0
 10
     5.333
 20
    36.191
0
VERTEX
  8
0
 10
     0.000
 20
    36.197
0
SEQEND
  8
0
  0
TEXT
  8
0
 10
     45.00
 20
     35.77
 40
      2.00
  1
 8.00  
 50
      0.00
  0
POLYLINE
  8
0
 66
     1
  0
VERTEX
  8
0
 10
     0.000
 20
     0.000
0
VERTEX
  8
0
 10
    80.000
 20
     0.000
0
VERTEX
  8
0
 10
    80.000
 20
    35.000
0
VERTEX
  8
0
 10
    74.667
 20
    35.155
0
VERTEX
  8
0
 10
    69.333
 20
    35.299
0
VERTEX
  8
0
 10
    64.000
 20
    35.432
0
VERTEX
  8
0
 10
    58.667
 20
    35.555
0
VERTEX
  8
0
 10
    53.333
 20
    35.667
0
VERTEX
  8
0
 10
    48.000
 20
    35.768
0
VERTEX
  8
0
 10
    42.667
 20
    35.859
0
VERTEX
  8
0
 10
    37.333
 20
    35.939
0
VERTEX
  8
0
 10
    32.000
 20
    36.008
0
VERTEX
  8
0
 10
    26.667
 20
    36.067
0
VERTEX
  8
0
 10
    21.333
 20
    36.115
0
VERTEX
  8
0
 10
    16.000
 20
    36.152
0
VERTEX
  8
0
 10
    10.667
 20
    36.179
0
VERTEX
  8
0
 10
     5.333
 20
    36.195
0
VERTEX
  8
0
 10
     0.000
 20
    36.200
0
SEQEND
  8
0
  0
TEXT
  8
0
 10
     50.33
 20
     35.68
 40
      2.00
  1
 8.50  
 50
      0.00
  0
POLYLINE
  8
0
 66
     1
  0
VERTEX
  8
0
 10
     0.000
 20
     0.000
0
VERTEX
  8
0
 10
    80.000
 20
     0.000
0
VERTEX
  8
0
 10
    80.000
 20
    35.000
0
VERTEX
  8
0
 10
    80.000
 20
    35.014
0
VERTEX
  8
0
 10
    74.667
 20
    35.169
0
VERTEX
  8
0
 10
    69.333
 20
    35.313
0
VERTEX
  8
0
 10
    64.000
 20
    35.446
0
VERTEX
  8
0
 10
    58.667
 20
    35.569
0
VERTEX
  8
0
 10
    53.333
 20
    35.681
0
VERTEX
  8
0
 10
    48.000
 20
    35.782
0
VERTEX
  8
0
 10
    42.667
 20
    35.873
0
VERTEX
  8
0
 10
    37.333
 20
    35.953
0
VERTEX
  8
0
 10
    32.000
 20
    36.022
0
VERTEX
  8
0
 10
    26.667
 20
    36.081
0
VERTEX
  8
0
 10
    21.333
 20
    36.129
0
VERTEX
  8
0
 10
    16.000
 20
    36.166
0
VERTEX
  8
0
 10
    10.667
 20
    36.193
0
VERTEX
  8
0
 10
     5.333
 20
    36.209
0
VERTEX
  8
0
 10
     0.000
 20
    36.214
0
SEQEND
  8
0
  0
TEXT
  8
0
 10
     45.00
 20
     35.77
 40
      2.00
  1
 9.00  
 50
      0.00
  0
POLYLINE
  8
0
 66
     1
  0
VERTEX
  8
0
 10
     0.000
 20
     0.000
0
VERTEX
  8
0
 10
    80.000
 20
     0.000
0
VERTEX
  8
0
 10
    80.000
 20
    35.000
0
VERTEX
  8
0
 10
    74.667
 20
    35.155
0
VERTEX
  8
0
 10
    69.333
 20
    35.299
0
VERTEX
  8
0
 10
    64.000
 20
    35.432
0
VERTEX
  8
0
 10
    58.667
 20
    35.555
0
VERTEX
  8
0
 10
    53.333
 20
    35.667
0
VERTEX
  8
0
 10
    48.000
 20
    35.768
0
VERTEX
  8
0
 10
    42.667
 20
    35.859
0
VERTEX
  8
0
 10
    37.333
 20
    35.939
0
VERTEX
  8
0
 10
    32.000
 20
    36.008
0
VERTEX
  8
0
 10
    26.667
 20
    36.067
0
VERTEX
  8
0
 10
    21.333
 20
    36.115
0
VERTEX
  8
0
 10
    16.000
 20
    36.152
0
VERTEX
  8
0
 10
    10.667
 20
    36.179
0
VERTEX
  8
0
 10
     5.333
 20
    36.195
0
VERTEX
  8
0
 10
     0.000
 20
    36.200
0
SEQEND
  8
0
  0
TEXT
  8
0
 10
     45.00
 20
     35.75
 40
      2.00
  1
 9.25  
 50
      0.00
  0
POLYLINE
  8
0
 66
     1
  0
VERTEX
  8
0
 10
     0.000
 20
     0.000
0
VERTEX
  8
0
 10
    80.000
 20
     0.000
0
VERTEX
  8
0
 10
    79.309
 20
    35.000
0
VERTEX
  8
0
 10
    74.667
 20
    35.135
0
VERTEX
  8
0
 10
    69.333
 20
    35.279
0
VERTEX
  8
0
 10
    64.000
 20
    35.412
0
VERTEX
  8
0
 10
    58.667
 20
    35.535
0
VERTEX
  8
0
 10
    53.333
 20
    35.647
0
VERTEX
  8
0
 10
    48.000
 20
    35.748
0
VERTEX
  8
0
 10
    42.667
 20
    35.839
0
VERTEX
  8
0
 10
    37.333
 20
    35.919
0
VERTEX
  8
0
 10
    32.000
 20
    35.988
0
VERTEX
  8
0
 10
    26.667
 20
    36.047
0
VERTEX
  8
0
 10
    21.333
 20
    36.095
0
VERTEX
  8
0
 10
    16.000
 20
    36.132
0
VERTEX
  8
0
 10
    10.667
 20
    36.159
0
VERTEX
  8
0
 10
     5.333
 20
    36.175
0
VERTEX
  8
0
 10
     0.000
 20
    36.180
0
SEQEND
  8
0
  0
TEXT
  8
0
 10
     45.00
 20
     35.77
 40
      2.00
  1
 9.50  
 50
      0.00
  0
POLYLINE
  8
0
 66
     1
  0
VERTEX
  8
0
 10
     0.000
 20
     7.140
0
VERTEX
  8
0
 10
    80.000
 20
     7.140
0
VERTEX
  8
0
 10
    80.000
 20
    35.000
0
VERTEX
  8
0
 10
    74.667
 20
    35.155
0
VERTEX
  8
0
 10
    69.333
 20
    35.299
0
VERTEX
  8
0
 10
    64.000
 20
    35.432
0
VERTEX
  8
0
 10
    58.667
 20
    35.555
0
VERTEX
  8
0
 10
    53.333
 20
    35.667
0
VERTEX
  8
0
 10
    48.000
 20
    35.768
0
VERTEX
  8
0
 10
    42.667
 20
    35.859
0
VERTEX
  8
0
 10
    37.333
 20
    35.939
0
VERTEX
  8
0
 10
    32.000
 20
    36.008
0
VERTEX
  8
0
 10
    26.667
 20
    36.067
0
VERTEX
  8
0
 10
    21.333
 20
    36.115
0
VERTEX
  8
0
 10
    16.000
 20
    36.152
0
VERTEX
  8
0
 10
    10.667
 20
    36.179
0
VERTEX
  8
0
 10
     5.333
 20
    36.195
0
VERTEX
  8
0
 10
     0.000
 20
    36.200
0
SEQEND
  8
0
  0
TEXT
  8
0
 10
     50.33
 20
     35.70
 40
      2.00
  1
 9.75  
 50
      0.00
  0
POLYLINE
  8
0
 66
     1
  0
VERTEX
  8
0
 10
     0.000
 20
    14.565
0
VERTEX
  8
0
 10
    80.000
 20
    14.565
0
VERTEX
  8
0
 10
    80.000
 20
    35.000
0
VERTEX
  8
0
 10
    80.000
 20
    35.031
0
VERTEX
  8
0
 10
    74.667
 20
    35.185
0
VERTEX
  8
0
 10
    69.333
 20
    35.329
0
VERTEX
  8
0
 10
    64.000
 20
    35.463
0
VERTEX
  8
0
 10
    58.667
 20
    35.585
0
VERTEX
  8
0
 10
    53.333
 20
    35.697
0
VERTEX
  8
0
 10
    48.000
 20
    35.799
0
VERTEX
  8
0
 10
    42.667
 20
    35.889
0
VERTEX
  8
0
 10
    37.333
 20
    35.969
0
VERTEX
  8
0
 10
    32.000
 20
    36.039
0
VERTEX
  8
0
 10
    26.667
 20
    36.097
0
VERTEX
  8
0
 10
    21.333
 20
    36.145
0
VERTEX
  8
0
 10
    16.000
 20
    36.183
0
VERTEX
  8
0
 10
    10.667
 20
    36.209
0
VERTEX
  8
0
 10
     5.333
 20
    36.225
0
VERTEX
  8
0
 10
     0.000
 20
    36.231
0
SEQEND
  8
0
  0
TEXT
  8
0
 10
     45.00
 20
     35.49
 40
      2.00
  1
10.00  
 50
      0.00
  0
POLYLINE
  8
0
 66
     1
  0
VERTEX
  8
0
 10
     0.000
 20
    22.000
0
VERTEX
  8
0
 10
    70.000
 20
    22.000
0
VERTEX
  8
0
 10
    70.000
 20
    35.000
0
VERTEX
  8
0
 10
    69.333
 20
    35.018
0
VERTEX
  8
0
 10
    64.000
 20
    35.151
0
VERTEX
  8
0
 10
    58.667
 20
    35.274
0
VERTEX
  8
0
 10
    53.333
 20
    35.386
0
VERTEX
  8
0
 10
    48.000
 20
    35.487
0
VERTEX
  8
0
 10
    42.667
 20
    35.578
0
VERTEX
  8
0
 10
    37.333
 20
    35.658
0
VERTEX
  8
0
 10
    32.000
 20
    35.727
0
VERTEX
  8
0
 10
    26.667
 20
    35.786
0
VERTEX
  8
0
 10
    21.333
 20
    35.834
0
VERTEX
  8
0
 10
    16.000
 20
    35.871
0
VERTEX
  8
0
 10
    10.667
 20
    35.898
0
VERTEX
  8
0
 10
     5.333
 20
    35.914
0
VERTEX
  8
0
 10
     0.000
 20
    35.919
0
SEQEND
  8
0
  0
LINE
  8
0
 10
   -80.000
 20
     0.000
 11
    80.000
 21
     0.000
  0
TEXT
  8
0
 10
    -88.00
 20
     -1.00
 40
      2.00
  1
 0.0   
 50
      0.00
  0
TEXT
  8
0
 10
     82.00
 20
     -1.00
 40
      2.00
  1
 0.0   
 50
      0.00
  0
LINE
  8
0
 10
   -80.000
 20
    10.000
 11
    80.000
 21
    10.000
  0
TEXT
  8
0
 10
    -88.00
 20
      9.00
 40
      2.00
  1
 1.0   
 50
      0.00
  0
TEXT
  8
0
 10
     82.00
 20
      9.00
 40
      2.00
  1
 1.0   
 50
      0.00
  0
LINE
  8
0
 10
   -80.000
 20
    20.000
 11
    80.000
 21
    20.000
  0
TEXT
  8
0
 10
    -88.00
 20
     19.00
 40
      2.00
  1
 2.0   
 50
      0.00
  0
TEXT
  8
0
 10
     82.00
 20
     19.00
 40
      2.00
  1
 2.0   
 50
      0.00
  0
LINE
  8
0
 10
   -80.000
 20
    30.000
 11
    80.000
 21
    30.000
  0
TEXT
  8
0
 10
    -88.00
 20
     29.00
 40
      2.00
  1
 3.0   
 50
      0.00
  0
TEXT
  8
0
 10
     82.00
 20
     29.00
 40
      2.00
  1
 3.0   
 50
      0.00
  0
LINE
  8
0
 10
   -80.000
 20
    35.000
 11
    80.000
 21
    35.000
  0
LINE
  8
0
 10
     0.000
 20
     0.000
 11
     0.000
 21
    35.000
  0
TEXT
  8
0
 10
     -4.00
 20
     -3.00
 40
      2.00
  1
 0.0   
 50
      0.00
  0
LINE
  8
0
 10
     0.000
 20
     0.000
 11
     0.000
 21
    35.000
  0
LINE
  8
0
 10
    10.000
 20
     0.000
 11
    10.000
 21
    35.000
  0
TEXT
  8
0
 10
      6.00
 20
     -3.00
 40
      2.00
  1
 1.0   
 50
      0.00
  0
LINE
  8
0
 10
   -10.000
 20
     0.000
 11
   -10.000
 21
    35.000
  0
TEXT
  8
0
 10
    -14.00
 20
     -3.00
 40
      2.00
  1
 1.0   
 50
      0.00
  0
LINE
  8
0
 10
    20.000
 20
     0.000
 11
    20.000
 21
    35.000
  0
TEXT
  8
0
 10
     16.00
 20
     -3.00
 40
      2.00
  1
 2.0   
 50
      0.00
  0
LINE
  8
0
 10
   -20.000
 20
     0.000
 11
   -20.000
 21
    35.000
  0
TEXT
  8
0
 10
    -24.00
 20
     -3.00
 40
      2.00
  1
 2.0   
 50
      0.00
  0
LINE
  8
0
 10
    30.000
 20
     0.000
 11
    30.000
 21
    35.000
  0
TEXT
  8
0
 10
     26.00
 20
     -3.00
 40
      2.00
  1
 3.0   
 50
      0.00
  0
LINE
  8
0
 10
   -30.000
 20
     0.000
 11
   -30.000
 21
    35.000
  0
TEXT
  8
0
 10
    -34.00
 20
     -3.00
 40
      2.00
  1
 3.0   
 50
      0.00
  0
LINE
  8
0
 10
    40.000
 20
     0.000
 11
    40.000
 21
    35.000
  0
TEXT
  8
0
 10
     36.00
 20
     -3.00
 40
      2.00
  1
 4.0   
 50
      0.00
  0
LINE
  8
0
 10
   -40.000
 20
     0.000
 11
   -40.000
 21
    35.000
  0
TEXT
  8
0
 10
    -44.00
 20
     -3.00
 40
      2.00
  1
 4.0   
 50
      0.00
  0
LINE
  8
0
 10
    50.000
 20
     0.000
 11
    50.000
 21
    35.000
  0
TEXT
  8
0
 10
     46.00
 20
     -3.00
 40
      2.00
  1
 5.0   
 50
      0.00
  0
LINE
  8
0
 10
   -50.000
 20
     0.000
 11
   -50.000
 21
    35.000
  0
TEXT
  8
0
 10
    -54.00
 20
     -3.00
 40
      2.00
  1
 5.0   
 50
      0.00
  0
LINE
  8
0
 10
    60.000
 20
     0.000
 11
    60.000
 21
    35.000
  0
TEXT
  8
0
 10
     56.00
 20
     -3.00
 40
      2.00
  1
 6.0   
 50
      0.00
  0
LINE
  8
0
 10
   -60.000
 20
     0.000
 11
   -60.000
 21
    35.000
  0
TEXT
  8
0
 10
    -64.00
 20
     -3.00
 40
      2.00
  1
 6.0   
 50
      0.00
  0
LINE
  8
0
 10
    70.000
 20
     0.000
 11
    70.000
 21
    35.000
  0
TEXT
  8
0
 10
     66.00
 20
     -3.00
 40
      2.00
  1
 7.0   
 50
      0.00
  0
LINE
  8
0
 10
   -70.000
 20
     0.000
 11
   -70.000
 21
    35.000
  0
TEXT
  8
0
 10
    -74.00
 20
     -3.00
 40
      2.00
  1
 7.0   
 50
      0.00
  0
LINE
  8
0
 10
    80.000
 20
     0.000
 11
    80.000
 21
    35.000
  0
TEXT
  8
0
 10
     76.00
 20
     -3.00
 40
      2.00
  1
 8.0   
 50
      0.00
  0
LINE
  8
0
 10
   -80.000
 20
     0.000
 11
   -80.000
 21
    35.000
  0
TEXT
  8
0
 10
    -84.00
 20
     -3.00
 40
      2.00
  1
 8.0   
 50
      0.00
  0
LINE
  8
0
 10
   -80.000
 20
     0.000
 11
   -80.000
 21
    35.000
  0
LINE
  8
0
 10
    80.000
 20
     0.000
 11
    80.000
 21
    35.000
  0
ENDSEC
  0
EOF
