  0
SECTION
  2
ENTITIES
  0
LINE
  8
0
 10
     0.000
 20
    17.498
 11
   -74.005
 21
    17.498
  0
LINE
  8
0
 10
   -74.005
 20
    17.498
 11
   -74.005
 21
    35.000
  0
LINE
  8
0
 10
   -74.005
 20
    35.000
 11
   -69.333
 21
    35.126
  0
LINE
  8
0
 10
   -69.333
 20
    35.126
 11
   -64.000
 21
    35.259
  0
LINE
  8
0
 10
   -64.000
 20
    35.259
 11
   -58.667
 21
    35.382
  0
LINE
  8
0
 10
   -58.667
 20
    35.382
 11
   -53.333
 21
    35.494
  0
LINE
  8
0
 10
   -53.333
 20
    35.494
 11
   -48.000
 21
    35.595
  0
LINE
  8
0
 10
   -48.000
 20
    35.595
 11
   -42.667
 21
    35.686
  0
LINE
  8
0
 10
   -42.667
 20
    35.686
 11
   -37.333
 21
    35.766
  0
LINE
  8
0
 10
   -37.333
 20
    35.766
 11
   -32.000
 21
    35.835
  0
LINE
  8
0
 10
   -32.000
 20
    35.835
 11
   -26.667
 21
    35.894
  0
LINE
  8
0
 10
   -26.667
 20
    35.894
 11
   -21.333
 21
    35.942
  0
LINE
  8
0
 10
   -21.333
 20
    35.942
 11
   -16.000
 21
    35.979
  0
LINE
  8
0
 10
   -16.000
 20
    35.979
 11
   -10.667
 21
    36.006
  0
LINE
  8
0
 10
   -10.667
 20
    36.006
 11
    -5.333
 21
    36.022
  0
LINE
  8
0
 10
    -5.333
 20
    36.022
 11
     0.000
 21
    36.027
  0
LINE
  8
0
 10
     0.000
 20
    13.125
 11
   -80.000
 21
    13.125
  0
LINE
  8
0
 10
   -80.000
 20
    13.125
 11
   -80.000
 21
    35.000
  0
LINE
  8
0
 10
   -80.000
 20
    35.000
 11
   -80.000
 21
    35.043
  0
LINE
  8
0
 10
   -80.000
 20
    35.043
 11
   -74.667
 21
    35.198
  0
LINE
  8
0
 10
   -74.667
 20
    35.198
 11
   -69.333
 21
    35.342
  0
LINE
  8
0
 10
   -69.333
 20
    35.342
 11
   -64.000
 21
    35.475
  0
LINE
  8
0
 10
   -64.000
 20
    35.475
 11
   -58.667
 21
    35.598
  0
LINE
  8
0
 10
   -58.667
 20
    35.598
 11
   -53.333
 21
    35.710
  0
LINE
  8
0
 10
   -53.333
 20
    35.710
 11
   -48.000
 21
    35.811
  0
LINE
  8
0
 10
   -48.000
 20
    35.811
 11
   -42.667
 21
    35.902
  0
LINE
  8
0
 10
   -42.667
 20
    35.902
 11
   -37.333
 21
    35.982
  0
LINE
  8
0
 10
   -37.333
 20
    35.982
 11
   -32.000
 21
    36.051
  0
LINE
  8
0
 10
   -32.000
 20
    36.051
 11
   -26.667
 21
    36.110
  0
LINE
  8
0
 10
   -26.667
 20
    36.110
 11
   -21.333
 21
    36.158
  0
LINE
  8
0
 10
   -21.333
 20
    36.158
 11
   -16.000
 21
    36.195
  0
LINE
  8
0
 10
   -16.000
 20
    36.195
 11
   -10.667
 21
    36.222
  0
LINE
  8
0
 10
   -10.667
 20
    36.222
 11
    -5.333
 21
    36.238
  0
LINE
  8
0
 10
    -5.333
 20
    36.238
 11
     0.000
 21
    36.243
  0
LINE
  8
0
 10
     0.000
 20
     8.750
 11
   -80.000
 21
     8.750
  0
LINE
  8
0
 10
   -80.000
 20
     8.750
 11
   -80.000
 21
    35.000
  0
LINE
  8
0
 10
   -80.000
 20
    35.000
 11
   -80.000
 21
    35.044
  0
LINE
  8
0
 10
   -80.000
 20
    35.044
 11
   -74.667
 21
    35.199
  0
LINE
  8
0
 10
   -74.667
 20
    35.199
 11
   -69.333
 21
    35.343
  0
LINE
  8
0
 10
   -69.333
 20
    35.343
 11
   -64.000
 21
    35.476
  0
LINE
  8
0
 10
   -64.000
 20
    35.476
 11
   -58.667
 21
    35.599
  0
LINE
  8
0
 10
   -58.667
 20
    35.599
 11
   -53.333
 21
    35.711
  0
LINE
  8
0
 10
   -53.333
 20
    35.711
 11
   -48.000
 21
    35.812
  0
LINE
  8
0
 10
   -48.000
 20
    35.812
 11
   -42.667
 21
    35.903
  0
LINE
  8
0
 10
   -42.667
 20
    35.903
 11
   -37.333
 21
    35.983
  0
LINE
  8
0
 10
   -37.333
 20
    35.983
 11
   -32.000
 21
    36.052
  0
LINE
  8
0
 10
   -32.000
 20
    36.052
 11
   -26.667
 21
    36.111
  0
LINE
  8
0
 10
   -26.667
 20
    36.111
 11
   -21.333
 21
    36.159
  0
LINE
  8
0
 10
   -21.333
 20
    36.159
 11
   -16.000
 21
    36.196
  0
LINE
  8
0
 10
   -16.000
 20
    36.196
 11
   -10.667
 21
    36.223
  0
LINE
  8
0
 10
   -10.667
 20
    36.223
 11
    -5.333
 21
    36.239
  0
LINE
  8
0
 10
    -5.333
 20
    36.239
 11
     0.000
 21
    36.244
  0
LINE
  8
0
 10
     0.000
 20
     4.375
 11
   -80.000
 21
     4.375
  0
LINE
  8
0
 10
   -80.000
 20
     4.375
 11
   -79.807
 21
    35.000
  0
LINE
  8
0
 10
   -79.807
 20
    35.000
 11
   -74.667
 21
    35.149
  0
LINE
  8
0
 10
   -74.667
 20
    35.149
 11
   -69.333
 21
    35.293
  0
LINE
  8
0
 10
   -69.333
 20
    35.293
 11
   -64.000
 21
    35.426
  0
LINE
  8
0
 10
   -64.000
 20
    35.426
 11
   -58.667
 21
    35.549
  0
LINE
  8
0
 10
   -58.667
 20
    35.549
 11
   -53.333
 21
    35.661
  0
LINE
  8
0
 10
   -53.333
 20
    35.661
 11
   -48.000
 21
    35.762
  0
LINE
  8
0
 10
   -48.000
 20
    35.762
 11
   -42.667
 21
    35.853
  0
LINE
  8
0
 10
   -42.667
 20
    35.853
 11
   -37.333
 21
    35.933
  0
LINE
  8
0
 10
   -37.333
 20
    35.933
 11
   -32.000
 21
    36.002
  0
LINE
  8
0
 10
   -32.000
 20
    36.002
 11
   -26.667
 21
    36.061
  0
LINE
  8
0
 10
   -26.667
 20
    36.061
 11
   -21.333
 21
    36.109
  0
LINE
  8
0
 10
   -21.333
 20
    36.109
 11
   -16.000
 21
    36.146
  0
LINE
  8
0
 10
   -16.000
 20
    36.146
 11
   -10.667
 21
    36.173
  0
LINE
  8
0
 10
   -10.667
 20
    36.173
 11
    -5.333
 21
    36.189
  0
LINE
  8
0
 10
    -5.333
 20
    36.189
 11
     0.000
 21
    36.194
  0
LINE
  8
0
 10
     0.000
 20
     0.002
 11
   -80.000
 21
     0.002
  0
LINE
  8
0
 10
   -80.000
 20
     0.002
 11
   -79.210
 21
    35.000
  0
LINE
  8
0
 10
   -79.210
 20
    35.000
 11
   -74.667
 21
    35.132
  0
LINE
  8
0
 10
   -74.667
 20
    35.132
 11
   -69.333
 21
    35.276
  0
LINE
  8
0
 10
   -69.333
 20
    35.276
 11
   -64.000
 21
    35.409
  0
LINE
  8
0
 10
   -64.000
 20
    35.409
 11
   -58.667
 21
    35.532
  0
LINE
  8
0
 10
   -58.667
 20
    35.532
 11
   -53.333
 21
    35.644
  0
LINE
  8
0
 10
   -53.333
 20
    35.644
 11
   -48.000
 21
    35.745
  0
LINE
  8
0
 10
   -48.000
 20
    35.745
 11
   -42.667
 21
    35.836
  0
LINE
  8
0
 10
   -42.667
 20
    35.836
 11
   -37.333
 21
    35.916
  0
LINE
  8
0
 10
   -37.333
 20
    35.916
 11
   -32.000
 21
    35.985
  0
LINE
  8
0
 10
   -32.000
 20
    35.985
 11
   -26.667
 21
    36.044
  0
LINE
  8
0
 10
   -26.667
 20
    36.044
 11
   -21.333
 21
    36.092
  0
LINE
  8
0
 10
   -21.333
 20
    36.092
 11
   -16.000
 21
    36.129
  0
LINE
  8
0
 10
   -16.000
 20
    36.129
 11
   -10.667
 21
    36.156
  0
LINE
  8
0
 10
   -10.667
 20
    36.156
 11
    -5.333
 21
    36.172
  0
LINE
  8
0
 10
    -5.333
 20
    36.172
 11
     0.000
 21
    36.177
  0
LINE
  8
0
 10
     0.000
 20
     0.000
 11
   -80.000
 21
     0.000
  0
LINE
  8
0
 10
   -80.000
 20
     0.000
 11
   -79.210
 21
    35.000
  0
LINE
  8
0
 10
   -79.210
 20
    35.000
 11
   -74.667
 21
    35.132
  0
LINE
  8
0
 10
   -74.667
 20
    35.132
 11
   -69.333
 21
    35.276
  0
LINE
  8
0
 10
   -69.333
 20
    35.276
 11
   -64.000
 21
    35.409
  0
LINE
  8
0
 10
   -64.000
 20
    35.409
 11
   -58.667
 21
    35.532
  0
LINE
  8
0
 10
   -58.667
 20
    35.532
 11
   -53.333
 21
    35.644
  0
LINE
  8
0
 10
   -53.333
 20
    35.644
 11
   -48.000
 21
    35.745
  0
LINE
  8
0
 10
   -48.000
 20
    35.745
 11
   -42.667
 21
    35.836
  0
LINE
  8
0
 10
   -42.667
 20
    35.836
 11
   -37.333
 21
    35.916
  0
LINE
  8
0
 10
   -37.333
 20
    35.916
 11
   -32.000
 21
    35.985
  0
LINE
  8
0
 10
   -32.000
 20
    35.985
 11
   -26.667
 21
    36.044
  0
LINE
  8
0
 10
   -26.667
 20
    36.044
 11
   -21.333
 21
    36.092
  0
LINE
  8
0
 10
   -21.333
 20
    36.092
 11
   -16.000
 21
    36.129
  0
LINE
  8
0
 10
   -16.000
 20
    36.129
 11
   -10.667
 21
    36.156
  0
LINE
  8
0
 10
   -10.667
 20
    36.156
 11
    -5.333
 21
    36.172
  0
LINE
  8
0
 10
    -5.333
 20
    36.172
 11
     0.000
 21
    36.177
  0
LINE
  8
0
 10
     0.000
 20
     0.000
 11
   -80.000
 21
     0.000
  0
LINE
  8
0
 10
   -80.000
 20
     0.000
 11
   -80.000
 21
    35.000
  0
LINE
  8
0
 10
   -80.000
 20
    35.000
 11
   -80.000
 21
    35.012
  0
LINE
  8
0
 10
   -80.000
 20
    35.012
 11
   -74.667
 21
    35.167
  0
LINE
  8
0
 10
   -74.667
 20
    35.167
 11
   -69.333
 21
    35.311
  0
LINE
  8
0
 10
   -69.333
 20
    35.311
 11
   -64.000
 21
    35.444
  0
LINE
  8
0
 10
   -64.000
 20
    35.444
 11
   -58.667
 21
    35.567
  0
LINE
  8
0
 10
   -58.667
 20
    35.567
 11
   -53.333
 21
    35.679
  0
LINE
  8
0
 10
   -53.333
 20
    35.679
 11
   -48.000
 21
    35.780
  0
LINE
  8
0
 10
   -48.000
 20
    35.780
 11
   -42.667
 21
    35.871
  0
LINE
  8
0
 10
   -42.667
 20
    35.871
 11
   -37.333
 21
    35.951
  0
LINE
  8
0
 10
   -37.333
 20
    35.951
 11
   -32.000
 21
    36.020
  0
LINE
  8
0
 10
   -32.000
 20
    36.020
 11
   -26.667
 21
    36.079
  0
LINE
  8
0
 10
   -26.667
 20
    36.079
 11
   -21.333
 21
    36.127
  0
LINE
  8
0
 10
   -21.333
 20
    36.127
 11
   -16.000
 21
    36.164
  0
LINE
  8
0
 10
   -16.000
 20
    36.164
 11
   -10.667
 21
    36.191
  0
LINE
  8
0
 10
   -10.667
 20
    36.191
 11
    -5.333
 21
    36.207
  0
LINE
  8
0
 10
    -5.333
 20
    36.207
 11
     0.000
 21
    36.212
  0
LINE
  8
0
 10
     0.000
 20
     0.000
 11
   -80.000
 21
     0.000
  0
LINE
  8
0
 10
   -80.000
 20
     0.000
 11
   -80.000
 21
    35.000
  0
LINE
  8
0
 10
   -80.000
 20
    35.000
 11
   -80.000
 21
    35.011
  0
LINE
  8
0
 10
   -80.000
 20
    35.011
 11
   -74.667
 21
    35.166
  0
LINE
  8
0
 10
   -74.667
 20
    35.166
 11
   -69.333
 21
    35.310
  0
LINE
  8
0
 10
   -69.333
 20
    35.310
 11
   -64.000
 21
    35.443
  0
LINE
  8
0
 10
   -64.000
 20
    35.443
 11
   -58.667
 21
    35.566
  0
LINE
  8
0
 10
   -58.667
 20
    35.566
 11
   -53.333
 21
    35.678
  0
LINE
  8
0
 10
   -53.333
 20
    35.678
 11
   -48.000
 21
    35.779
  0
LINE
  8
0
 10
   -48.000
 20
    35.779
 11
   -42.667
 21
    35.870
  0
LINE
  8
0
 10
   -42.667
 20
    35.870
 11
   -37.333
 21
    35.950
  0
LINE
  8
0
 10
   -37.333
 20
    35.950
 11
   -32.000
 21
    36.019
  0
LINE
  8
0
 10
   -32.000
 20
    36.019
 11
   -26.667
 21
    36.078
  0
LINE
  8
0
 10
   -26.667
 20
    36.078
 11
   -21.333
 21
    36.126
  0
LINE
  8
0
 10
   -21.333
 20
    36.126
 11
   -16.000
 21
    36.163
  0
LINE
  8
0
 10
   -16.000
 20
    36.163
 11
   -10.667
 21
    36.190
  0
LINE
  8
0
 10
   -10.667
 20
    36.190
 11
    -5.333
 21
    36.206
  0
LINE
  8
0
 10
    -5.333
 20
    36.206
 11
     0.000
 21
    36.211
  0
LINE
  8
0
 10
     0.000
 20
     0.000
 11
   -80.000
 21
     0.000
  0
LINE
  8
0
 10
   -80.000
 20
     0.000
 11
   -79.917
 21
    35.000
  0
LINE
  8
0
 10
   -79.917
 20
    35.000
 11
   -74.667
 21
    35.152
  0
LINE
  8
0
 10
   -74.667
 20
    35.152
 11
   -69.333
 21
    35.296
  0
LINE
  8
0
 10
   -69.333
 20
    35.296
 11
   -64.000
 21
    35.430
  0
LINE
  8
0
 10
   -64.000
 20
    35.430
 11
   -58.667
 21
    35.552
  0
LINE
  8
0
 10
   -58.667
 20
    35.552
 11
   -53.333
 21
    35.664
  0
LINE
  8
0
 10
   -53.333
 20
    35.664
 11
   -48.000
 21
    35.766
  0
LINE
  8
0
 10
   -48.000
 20
    35.766
 11
   -42.667
 21
    35.856
  0
LINE
  8
0
 10
   -42.667
 20
    35.856
 11
   -37.333
 21
    35.936
  0
LINE
  8
0
 10
   -37.333
 20
    35.936
 11
   -32.000
 21
    36.006
  0
LINE
  8
0
 10
   -32.000
 20
    36.006
 11
   -26.667
 21
    36.064
  0
LINE
  8
0
 10
   -26.667
 20
    36.064
 11
   -21.333
 21
    36.112
  0
LINE
  8
0
 10
   -21.333
 20
    36.112
 11
   -16.000
 21
    36.150
  0
LINE
  8
0
 10
   -16.000
 20
    36.150
 11
   -10.667
 21
    36.176
  0
LINE
  8
0
 10
   -10.667
 20
    36.176
 11
    -5.333
 21
    36.192
  0
LINE
  8
0
 10
    -5.333
 20
    36.192
 11
     0.000
 21
    36.198
  0
LINE
  8
0
 10
     0.000
 20
     0.000
 11
   -80.000
 21
     0.000
  0
LINE
  8
0
 10
   -80.000
 20
     0.000
 11
   -79.888
 21
    35.000
  0
LINE
  8
0
 10
   -79.888
 20
    35.000
 11
   -74.667
 21
    35.151
  0
LINE
  8
0
 10
   -74.667
 20
    35.151
 11
   -69.333
 21
    35.295
  0
LINE
  8
0
 10
   -69.333
 20
    35.295
 11
   -64.000
 21
    35.429
  0
LINE
  8
0
 10
   -64.000
 20
    35.429
 11
   -58.667
 21
    35.551
  0
LINE
  8
0
 10
   -58.667
 20
    35.551
 11
   -53.333
 21
    35.663
  0
LINE
  8
0
 10
   -53.333
 20
    35.663
 11
   -48.000
 21
    35.765
  0
LINE
  8
0
 10
   -48.000
 20
    35.765
 11
   -42.667
 21
    35.855
  0
LINE
  8
0
 10
   -42.667
 20
    35.855
 11
   -37.333
 21
    35.935
  0
LINE
  8
0
 10
   -37.333
 20
    35.935
 11
   -32.000
 21
    36.005
  0
LINE
  8
0
 10
   -32.000
 20
    36.005
 11
   -26.667
 21
    36.063
  0
LINE
  8
0
 10
   -26.667
 20
    36.063
 11
   -21.333
 21
    36.111
  0
LINE
  8
0
 10
   -21.333
 20
    36.111
 11
   -16.000
 21
    36.149
  0
LINE
  8
0
 10
   -16.000
 20
    36.149
 11
   -10.667
 21
    36.175
  0
LINE
  8
0
 10
   -10.667
 20
    36.175
 11
    -5.333
 21
    36.191
  0
LINE
  8
0
 10
    -5.333
 20
    36.191
 11
     0.000
 21
    36.197
  0
LINE
  8
0
 10
     0.000
 20
     0.000
 11
   -80.000
 21
     0.000
  0
LINE
  8
0
 10
   -80.000
 20
     0.000
 11
   -80.000
 21
    35.000
  0
LINE
  8
0
 10
   -80.000
 20
    35.000
 11
   -80.000
 21
    35.000
  0
LINE
  8
0
 10
   -80.000
 20
    35.000
 11
   -74.667
 21
    35.155
  0
LINE
  8
0
 10
   -74.667
 20
    35.155
 11
   -69.333
 21
    35.299
  0
LINE
  8
0
 10
   -69.333
 20
    35.299
 11
   -64.000
 21
    35.432
  0
LINE
  8
0
 10
   -64.000
 20
    35.432
 11
   -58.667
 21
    35.555
  0
LINE
  8
0
 10
   -58.667
 20
    35.555
 11
   -53.333
 21
    35.667
  0
LINE
  8
0
 10
   -53.333
 20
    35.667
 11
   -48.000
 21
    35.768
  0
LINE
  8
0
 10
   -48.000
 20
    35.768
 11
   -42.667
 21
    35.859
  0
LINE
  8
0
 10
   -42.667
 20
    35.859
 11
   -37.333
 21
    35.939
  0
LINE
  8
0
 10
   -37.333
 20
    35.939
 11
   -32.000
 21
    36.008
  0
LINE
  8
0
 10
   -32.000
 20
    36.008
 11
   -26.667
 21
    36.067
  0
LINE
  8
0
 10
   -26.667
 20
    36.067
 11
   -21.333
 21
    36.115
  0
LINE
  8
0
 10
   -21.333
 20
    36.115
 11
   -16.000
 21
    36.152
  0
LINE
  8
0
 10
   -16.000
 20
    36.152
 11
   -10.667
 21
    36.179
  0
LINE
  8
0
 10
   -10.667
 20
    36.179
 11
    -5.333
 21
    36.195
  0
LINE
  8
0
 10
    -5.333
 20
    36.195
 11
     0.000
 21
    36.200
  0
LINE
  8
0
 10
     0.000
 20
     0.000
 11
   -80.000
 21
     0.000
  0
LINE
  8
0
 10
   -80.000
 20
     0.000
 11
   -80.000
 21
    35.000
  0
LINE
  8
0
 10
   -80.000
 20
    35.000
 11
   -80.000
 21
    35.001
  0
LINE
  8
0
 10
   -80.000
 20
    35.001
 11
   -74.667
 21
    35.156
  0
LINE
  8
0
 10
   -74.667
 20
    35.156
 11
   -69.333
 21
    35.300
  0
LINE
  8
0
 10
   -69.333
 20
    35.300
 11
   -64.000
 21
    35.433
  0
LINE
  8
0
 10
   -64.000
 20
    35.433
 11
   -58.667
 21
    35.556
  0
LINE
  8
0
 10
   -58.667
 20
    35.556
 11
   -53.333
 21
    35.668
  0
LINE
  8
0
 10
   -53.333
 20
    35.668
 11
   -48.000
 21
    35.769
  0
LINE
  8
0
 10
   -48.000
 20
    35.769
 11
   -42.667
 21
    35.860
  0
LINE
  8
0
 10
   -42.667
 20
    35.860
 11
   -37.333
 21
    35.940
  0
LINE
  8
0
 10
   -37.333
 20
    35.940
 11
   -32.000
 21
    36.009
  0
LINE
  8
0
 10
   -32.000
 20
    36.009
 11
   -26.667
 21
    36.068
  0
LINE
  8
0
 10
   -26.667
 20
    36.068
 11
   -21.333
 21
    36.116
  0
LINE
  8
0
 10
   -21.333
 20
    36.116
 11
   -16.000
 21
    36.153
  0
LINE
  8
0
 10
   -16.000
 20
    36.153
 11
   -10.667
 21
    36.180
  0
LINE
  8
0
 10
   -10.667
 20
    36.180
 11
    -5.333
 21
    36.196
  0
LINE
  8
0
 10
    -5.333
 20
    36.196
 11
     0.000
 21
    36.201
  0
LINE
  8
0
 10
     0.000
 20
     0.000
 11
   -80.000
 21
     0.000
  0
LINE
  8
0
 10
   -80.000
 20
     0.000
 11
   -79.998
 21
    35.000
  0
LINE
  8
0
 10
   -79.998
 20
    35.000
 11
   -74.667
 21
    35.155
  0
LINE
  8
0
 10
   -74.667
 20
    35.155
 11
   -69.333
 21
    35.299
  0
LINE
  8
0
 10
   -69.333
 20
    35.299
 11
   -64.000
 21
    35.432
  0
LINE
  8
0
 10
   -64.000
 20
    35.432
 11
   -58.667
 21
    35.555
  0
LINE
  8
0
 10
   -58.667
 20
    35.555
 11
   -53.333
 21
    35.667
  0
LINE
  8
0
 10
   -53.333
 20
    35.667
 11
   -48.000
 21
    35.768
  0
LINE
  8
0
 10
   -48.000
 20
    35.768
 11
   -42.667
 21
    35.859
  0
LINE
  8
0
 10
   -42.667
 20
    35.859
 11
   -37.333
 21
    35.939
  0
LINE
  8
0
 10
   -37.333
 20
    35.939
 11
   -32.000
 21
    36.008
  0
LINE
  8
0
 10
   -32.000
 20
    36.008
 11
   -26.667
 21
    36.067
  0
LINE
  8
0
 10
   -26.667
 20
    36.067
 11
   -21.333
 21
    36.115
  0
LINE
  8
0
 10
   -21.333
 20
    36.115
 11
   -16.000
 21
    36.152
  0
LINE
  8
0
 10
   -16.000
 20
    36.152
 11
   -10.667
 21
    36.179
  0
LINE
  8
0
 10
   -10.667
 20
    36.179
 11
    -5.333
 21
    36.195
  0
LINE
  8
0
 10
    -5.333
 20
    36.195
 11
     0.000
 21
    36.200
  0
LINE
  8
0
 10
     0.000
 20
     0.000
 11
   -80.000
 21
     0.000
  0
LINE
  8
0
 10
   -80.000
 20
     0.000
 11
   -79.993
 21
    35.000
  0
LINE
  8
0
 10
   -79.993
 20
    35.000
 11
   -74.667
 21
    35.154
  0
LINE
  8
0
 10
   -74.667
 20
    35.154
 11
   -69.333
 21
    35.298
  0
LINE
  8
0
 10
   -69.333
 20
    35.298
 11
   -64.000
 21
    35.432
  0
LINE
  8
0
 10
   -64.000
 20
    35.432
 11
   -58.667
 21
    35.554
  0
LINE
  8
0
 10
   -58.667
 20
    35.554
 11
   -53.333
 21
    35.666
  0
LINE
  8
0
 10
   -53.333
 20
    35.666
 11
   -48.000
 21
    35.768
  0
LINE
  8
0
 10
   -48.000
 20
    35.768
 11
   -42.667
 21
    35.858
  0
LINE
  8
0
 10
   -42.667
 20
    35.858
 11
   -37.333
 21
    35.938
  0
LINE
  8
0
 10
   -37.333
 20
    35.938
 11
   -32.000
 21
    36.008
  0
LINE
  8
0
 10
   -32.000
 20
    36.008
 11
   -26.667
 21
    36.066
  0
LINE
  8
0
 10
   -26.667
 20
    36.066
 11
   -21.333
 21
    36.114
  0
LINE
  8
0
 10
   -21.333
 20
    36.114
 11
   -16.000
 21
    36.152
  0
LINE
  8
0
 10
   -16.000
 20
    36.152
 11
   -10.667
 21
    36.178
  0
LINE
  8
0
 10
   -10.667
 20
    36.178
 11
    -5.333
 21
    36.194
  0
LINE
  8
0
 10
    -5.333
 20
    36.194
 11
     0.000
 21
    36.200
  0
LINE
  8
0
 10
     0.000
 20
     0.000
 11
   -80.000
 21
     0.000
  0
LINE
  8
0
 10
   -80.000
 20
     0.000
 11
   -80.000
 21
    35.000
  0
LINE
  8
0
 10
   -80.000
 20
    35.000
 11
   -74.667
 21
    35.155
  0
LINE
  8
0
 10
   -74.667
 20
    35.155
 11
   -69.333
 21
    35.299
  0
LINE
  8
0
 10
   -69.333
 20
    35.299
 11
   -64.000
 21
    35.432
  0
LINE
  8
0
 10
   -64.000
 20
    35.432
 11
   -58.667
 21
    35.555
  0
LINE
  8
0
 10
   -58.667
 20
    35.555
 11
   -53.333
 21
    35.667
  0
LINE
  8
0
 10
   -53.333
 20
    35.667
 11
   -48.000
 21
    35.768
  0
LINE
  8
0
 10
   -48.000
 20
    35.768
 11
   -42.667
 21
    35.859
  0
LINE
  8
0
 10
   -42.667
 20
    35.859
 11
   -37.333
 21
    35.939
  0
LINE
  8
0
 10
   -37.333
 20
    35.939
 11
   -32.000
 21
    36.008
  0
LINE
  8
0
 10
   -32.000
 20
    36.008
 11
   -26.667
 21
    36.067
  0
LINE
  8
0
 10
   -26.667
 20
    36.067
 11
   -21.333
 21
    36.115
  0
LINE
  8
0
 10
   -21.333
 20
    36.115
 11
   -16.000
 21
    36.152
  0
LINE
  8
0
 10
   -16.000
 20
    36.152
 11
   -10.667
 21
    36.179
  0
LINE
  8
0
 10
   -10.667
 20
    36.179
 11
    -5.333
 21
    36.195
  0
LINE
  8
0
 10
    -5.333
 20
    36.195
 11
     0.000
 21
    36.200
  0
LINE
  8
0
 10
     0.000
 20
     0.000
 11
    80.000
 21
     0.000
  0
LINE
  8
0
 10
    80.000
 20
     0.000
 11
    79.995
 21
    35.000
  0
LINE
  8
0
 10
    79.995
 20
    35.000
 11
    74.667
 21
    35.155
  0
LINE
  8
0
 10
    74.667
 20
    35.155
 11
    69.333
 21
    35.299
  0
LINE
  8
0
 10
    69.333
 20
    35.299
 11
    64.000
 21
    35.432
  0
LINE
  8
0
 10
    64.000
 20
    35.432
 11
    58.667
 21
    35.555
  0
LINE
  8
0
 10
    58.667
 20
    35.555
 11
    53.333
 21
    35.667
  0
LINE
  8
0
 10
    53.333
 20
    35.667
 11
    48.000
 21
    35.768
  0
LINE
  8
0
 10
    48.000
 20
    35.768
 11
    42.667
 21
    35.859
  0
LINE
  8
0
 10
    42.667
 20
    35.859
 11
    37.333
 21
    35.939
  0
LINE
  8
0
 10
    37.333
 20
    35.939
 11
    32.000
 21
    36.008
  0
LINE
  8
0
 10
    32.000
 20
    36.008
 11
    26.667
 21
    36.067
  0
LINE
  8
0
 10
    26.667
 20
    36.067
 11
    21.333
 21
    36.115
  0
LINE
  8
0
 10
    21.333
 20
    36.115
 11
    16.000
 21
    36.152
  0
LINE
  8
0
 10
    16.000
 20
    36.152
 11
    10.667
 21
    36.179
  0
LINE
  8
0
 10
    10.667
 20
    36.179
 11
     5.333
 21
    36.195
  0
LINE
  8
0
 10
     5.333
 20
    36.195
 11
     0.000
 21
    36.200
  0
LINE
  8
0
 10
     0.000
 20
     0.000
 11
    80.000
 21
     0.000
  0
LINE
  8
0
 10
    80.000
 20
     0.000
 11
    79.997
 21
    35.000
  0
LINE
  8
0
 10
    79.997
 20
    35.000
 11
    74.667
 21
    35.155
  0
LINE
  8
0
 10
    74.667
 20
    35.155
 11
    69.333
 21
    35.299
  0
LINE
  8
0
 10
    69.333
 20
    35.299
 11
    64.000
 21
    35.432
  0
LINE
  8
0
 10
    64.000
 20
    35.432
 11
    58.667
 21
    35.555
  0
LINE
  8
0
 10
    58.667
 20
    35.555
 11
    53.333
 21
    35.667
  0
LINE
  8
0
 10
    53.333
 20
    35.667
 11
    48.000
 21
    35.768
  0
LINE
  8
0
 10
    48.000
 20
    35.768
 11
    42.667
 21
    35.859
  0
LINE
  8
0
 10
    42.667
 20
    35.859
 11
    37.333
 21
    35.939
  0
LINE
  8
0
 10
    37.333
 20
    35.939
 11
    32.000
 21
    36.008
  0
LINE
  8
0
 10
    32.000
 20
    36.008
 11
    26.667
 21
    36.067
  0
LINE
  8
0
 10
    26.667
 20
    36.067
 11
    21.333
 21
    36.115
  0
LINE
  8
0
 10
    21.333
 20
    36.115
 11
    16.000
 21
    36.152
  0
LINE
  8
0
 10
    16.000
 20
    36.152
 11
    10.667
 21
    36.179
  0
LINE
  8
0
 10
    10.667
 20
    36.179
 11
     5.333
 21
    36.195
  0
LINE
  8
0
 10
     5.333
 20
    36.195
 11
     0.000
 21
    36.200
  0
LINE
  8
0
 10
     0.000
 20
     0.000
 11
    80.000
 21
     0.000
  0
LINE
  8
0
 10
    80.000
 20
     0.000
 11
    80.000
 21
    35.000
  0
LINE
  8
0
 10
    80.000
 20
    35.000
 11
    80.000
 21
    35.001
  0
LINE
  8
0
 10
    80.000
 20
    35.001
 11
    74.667
 21
    35.156
  0
LINE
  8
0
 10
    74.667
 20
    35.156
 11
    69.333
 21
    35.300
  0
LINE
  8
0
 10
    69.333
 20
    35.300
 11
    64.000
 21
    35.433
  0
LINE
  8
0
 10
    64.000
 20
    35.433
 11
    58.667
 21
    35.556
  0
LINE
  8
0
 10
    58.667
 20
    35.556
 11
    53.333
 21
    35.668
  0
LINE
  8
0
 10
    53.333
 20
    35.668
 11
    48.000
 21
    35.769
  0
LINE
  8
0
 10
    48.000
 20
    35.769
 11
    42.667
 21
    35.860
  0
LINE
  8
0
 10
    42.667
 20
    35.860
 11
    37.333
 21
    35.940
  0
LINE
  8
0
 10
    37.333
 20
    35.940
 11
    32.000
 21
    36.009
  0
LINE
  8
0
 10
    32.000
 20
    36.009
 11
    26.667
 21
    36.068
  0
LINE
  8
0
 10
    26.667
 20
    36.068
 11
    21.333
 21
    36.116
  0
LINE
  8
0
 10
    21.333
 20
    36.116
 11
    16.000
 21
    36.153
  0
LINE
  8
0
 10
    16.000
 20
    36.153
 11
    10.667
 21
    36.180
  0
LINE
  8
0
 10
    10.667
 20
    36.180
 11
     5.333
 21
    36.196
  0
LINE
  8
0
 10
     5.333
 20
    36.196
 11
     0.000
 21
    36.201
  0
LINE
  8
0
 10
     0.000
 20
     0.000
 11
    80.000
 21
     0.000
  0
LINE
  8
0
 10
    80.000
 20
     0.000
 11
    80.000
 21
    35.000
  0
LINE
  8
0
 10
    80.000
 20
    35.000
 11
    80.000
 21
    35.001
  0
LINE
  8
0
 10
    80.000
 20
    35.001
 11
    74.667
 21
    35.155
  0
LINE
  8
0
 10
    74.667
 20
    35.155
 11
    69.333
 21
    35.299
  0
LINE
  8
0
 10
    69.333
 20
    35.299
 11
    64.000
 21
    35.433
  0
LINE
  8
0
 10
    64.000
 20
    35.433
 11
    58.667
 21
    35.555
  0
LINE
  8
0
 10
    58.667
 20
    35.555
 11
    53.333
 21
    35.667
  0
LINE
  8
0
 10
    53.333
 20
    35.667
 11
    48.000
 21
    35.769
  0
LINE
  8
0
 10
    48.000
 20
    35.769
 11
    42.667
 21
    35.859
  0
LINE
  8
0
 10
    42.667
 20
    35.859
 11
    37.333
 21
    35.939
  0
LINE
  8
0
 10
    37.333
 20
    35.939
 11
    32.000
 21
    36.009
  0
LINE
  8
0
 10
    32.000
 20
    36.009
 11
    26.667
 21
    36.067
  0
LINE
  8
0
 10
    26.667
 20
    36.067
 11
    21.333
 21
    36.115
  0
LINE
  8
0
 10
    21.333
 20
    36.115
 11
    16.000
 21
    36.153
  0
LINE
  8
0
 10
    16.000
 20
    36.153
 11
    10.667
 21
    36.179
  0
LINE
  8
0
 10
    10.667
 20
    36.179
 11
     5.333
 21
    36.195
  0
LINE
  8
0
 10
     5.333
 20
    36.195
 11
     0.000
 21
    36.201
  0
LINE
  8
0
 10
     0.000
 20
     0.000
 11
    80.000
 21
     0.000
  0
LINE
  8
0
 10
    80.000
 20
     0.000
 11
    79.908
 21
    35.000
  0
LINE
  8
0
 10
    79.908
 20
    35.000
 11
    74.667
 21
    35.152
  0
LINE
  8
0
 10
    74.667
 20
    35.152
 11
    69.333
 21
    35.296
  0
LINE
  8
0
 10
    69.333
 20
    35.296
 11
    64.000
 21
    35.429
  0
LINE
  8
0
 10
    64.000
 20
    35.429
 11
    58.667
 21
    35.552
  0
LINE
  8
0
 10
    58.667
 20
    35.552
 11
    53.333
 21
    35.664
  0
LINE
  8
0
 10
    53.333
 20
    35.664
 11
    48.000
 21
    35.765
  0
LINE
  8
0
 10
    48.000
 20
    35.765
 11
    42.667
 21
    35.856
  0
LINE
  8
0
 10
    42.667
 20
    35.856
 11
    37.333
 21
    35.936
  0
LINE
  8
0
 10
    37.333
 20
    35.936
 11
    32.000
 21
    36.005
  0
LINE
  8
0
 10
    32.000
 20
    36.005
 11
    26.667
 21
    36.064
  0
LINE
  8
0
 10
    26.667
 20
    36.064
 11
    21.333
 21
    36.112
  0
LINE
  8
0
 10
    21.333
 20
    36.112
 11
    16.000
 21
    36.149
  0
LINE
  8
0
 10
    16.000
 20
    36.149
 11
    10.667
 21
    36.176
  0
LINE
  8
0
 10
    10.667
 20
    36.176
 11
     5.333
 21
    36.192
  0
LINE
  8
0
 10
     5.333
 20
    36.192
 11
     0.000
 21
    36.197
  0
LINE
  8
0
 10
     0.000
 20
     0.000
 11
    80.000
 21
     0.000
  0
LINE
  8
0
 10
    80.000
 20
     0.000
 11
    79.908
 21
    35.000
  0
LINE
  8
0
 10
    79.908
 20
    35.000
 11
    74.667
 21
    35.152
  0
LINE
  8
0
 10
    74.667
 20
    35.152
 11
    69.333
 21
    35.296
  0
LINE
  8
0
 10
    69.333
 20
    35.296
 11
    64.000
 21
    35.429
  0
LINE
  8
0
 10
    64.000
 20
    35.429
 11
    58.667
 21
    35.552
  0
LINE
  8
0
 10
    58.667
 20
    35.552
 11
    53.333
 21
    35.664
  0
LINE
  8
0
 10
    53.333
 20
    35.664
 11
    48.000
 21
    35.765
  0
LINE
  8
0
 10
    48.000
 20
    35.765
 11
    42.667
 21
    35.856
  0
LINE
  8
0
 10
    42.667
 20
    35.856
 11
    37.333
 21
    35.936
  0
LINE
  8
0
 10
    37.333
 20
    35.936
 11
    32.000
 21
    36.005
  0
LINE
  8
0
 10
    32.000
 20
    36.005
 11
    26.667
 21
    36.064
  0
LINE
  8
0
 10
    26.667
 20
    36.064
 11
    21.333
 21
    36.112
  0
LINE
  8
0
 10
    21.333
 20
    36.112
 11
    16.000
 21
    36.149
  0
LINE
  8
0
 10
    16.000
 20
    36.149
 11
    10.667
 21
    36.176
  0
LINE
  8
0
 10
    10.667
 20
    36.176
 11
     5.333
 21
    36.192
  0
LINE
  8
0
 10
     5.333
 20
    36.192
 11
     0.000
 21
    36.197
  0
LINE
  8
0
 10
     0.000
 20
     0.000
 11
    80.000
 21
     0.000
  0
LINE
  8
0
 10
    80.000
 20
     0.000
 11
    80.000
 21
    35.000
  0
LINE
  8
0
 10
    80.000
 20
    35.000
 11
    80.000
 21
    35.009
  0
LINE
  8
0
 10
    80.000
 20
    35.009
 11
    74.667
 21
    35.164
  0
LINE
  8
0
 10
    74.667
 20
    35.164
 11
    69.333
 21
    35.308
  0
LINE
  8
0
 10
    69.333
 20
    35.308
 11
    64.000
 21
    35.441
  0
LINE
  8
0
 10
    64.000
 20
    35.441
 11
    58.667
 21
    35.564
  0
LINE
  8
0
 10
    58.667
 20
    35.564
 11
    53.333
 21
    35.676
  0
LINE
  8
0
 10
    53.333
 20
    35.676
 11
    48.000
 21
    35.777
  0
LINE
  8
0
 10
    48.000
 20
    35.777
 11
    42.667
 21
    35.868
  0
LINE
  8
0
 10
    42.667
 20
    35.868
 11
    37.333
 21
    35.948
  0
LINE
  8
0
 10
    37.333
 20
    35.948
 11
    32.000
 21
    36.017
  0
LINE
  8
0
 10
    32.000
 20
    36.017
 11
    26.667
 21
    36.076
  0
LINE
  8
0
 10
    26.667
 20
    36.076
 11
    21.333
 21
    36.124
  0
LINE
  8
0
 10
    21.333
 20
    36.124
 11
    16.000
 21
    36.161
  0
LINE
  8
0
 10
    16.000
 20
    36.161
 11
    10.667
 21
    36.188
  0
LINE
  8
0
 10
    10.667
 20
    36.188
 11
     5.333
 21
    36.204
  0
LINE
  8
0
 10
     5.333
 20
    36.204
 11
     0.000
 21
    36.209
  0
LINE
  8
0
 10
     0.000
 20
     0.000
 11
    80.000
 21
     0.000
  0
LINE
  8
0
 10
    80.000
 20
     0.000
 11
    80.000
 21
    35.000
  0
LINE
  8
0
 10
    80.000
 20
    35.000
 11
    80.000
 21
    35.013
  0
LINE
  8
0
 10
    80.000
 20
    35.013
 11
    74.667
 21
    35.167
  0
LINE
  8
0
 10
    74.667
 20
    35.167
 11
    69.333
 21
    35.311
  0
LINE
  8
0
 10
    69.333
 20
    35.311
 11
    64.000
 21
    35.445
  0
LINE
  8
0
 10
    64.000
 20
    35.445
 11
    58.667
 21
    35.567
  0
LINE
  8
0
 10
    58.667
 20
    35.567
 11
    53.333
 21
    35.679
  0
LINE
  8
0
 10
    53.333
 20
    35.679
 11
    48.000
 21
    35.781
  0
LINE
  8
0
 10
    48.000
 20
    35.781
 11
    42.667
 21
    35.871
  0
LINE
  8
0
 10
    42.667
 20
    35.871
 11
    37.333
 21
    35.951
  0
LINE
  8
0
 10
    37.333
 20
    35.951
 11
    32.000
 21
    36.021
  0
LINE
  8
0
 10
    32.000
 20
    36.021
 11
    26.667
 21
    36.079
  0
LINE
  8
0
 10
    26.667
 20
    36.079
 11
    21.333
 21
    36.127
  0
LINE
  8
0
 10
    21.333
 20
    36.127
 11
    16.000
 21
    36.165
  0
LINE
  8
0
 10
    16.000
 20
    36.165
 11
    10.667
 21
    36.191
  0
LINE
  8
0
 10
    10.667
 20
    36.191
 11
     5.333
 21
    36.207
  0
LINE
  8
0
 10
     5.333
 20
    36.207
 11
     0.000
 21
    36.213
  0
LINE
  8
0
 10
     0.000
 20
     0.000
 11
    80.000
 21
     0.000
  0
LINE
  8
0
 10
    80.000
 20
     0.000
 11
    79.298
 21
    35.000
  0
LINE
  8
0
 10
    79.298
 20
    35.000
 11
    74.667
 21
    35.134
  0
LINE
  8
0
 10
    74.667
 20
    35.134
 11
    69.333
 21
    35.278
  0
LINE
  8
0
 10
    69.333
 20
    35.278
 11
    64.000
 21
    35.412
  0
LINE
  8
0
 10
    64.000
 20
    35.412
 11
    58.667
 21
    35.534
  0
LINE
  8
0
 10
    58.667
 20
    35.534
 11
    53.333
 21
    35.646
  0
LINE
  8
0
 10
    53.333
 20
    35.646
 11
    48.000
 21
    35.748
  0
LINE
  8
0
 10
    48.000
 20
    35.748
 11
    42.667
 21
    35.838
  0
LINE
  8
0
 10
    42.667
 20
    35.838
 11
    37.333
 21
    35.918
  0
LINE
  8
0
 10
    37.333
 20
    35.918
 11
    32.000
 21
    35.988
  0
LINE
  8
0
 10
    32.000
 20
    35.988
 11
    26.667
 21
    36.046
  0
LINE
  8
0
 10
    26.667
 20
    36.046
 11
    21.333
 21
    36.094
  0
LINE
  8
0
 10
    21.333
 20
    36.094
 11
    16.000
 21
    36.132
  0
LINE
  8
0
 10
    16.000
 20
    36.132
 11
    10.667
 21
    36.158
  0
LINE
  8
0
 10
    10.667
 20
    36.158
 11
     5.333
 21
    36.174
  0
LINE
  8
0
 10
     5.333
 20
    36.174
 11
     0.000
 21
    36.180
  0
LINE
  8
0
 10
     0.000
 20
     0.003
 11
    80.000
 21
     0.003
  0
LINE
  8
0
 10
    80.000
 20
     0.003
 11
    79.298
 21
    35.000
  0
LINE
  8
0
 10
    79.298
 20
    35.000
 11
    74.667
 21
    35.134
  0
LINE
  8
0
 10
    74.667
 20
    35.134
 11
    69.333
 21
    35.278
  0
LINE
  8
0
 10
    69.333
 20
    35.278
 11
    64.000
 21
    35.412
  0
LINE
  8
0
 10
    64.000
 20
    35.412
 11
    58.667
 21
    35.534
  0
LINE
  8
0
 10
    58.667
 20
    35.534
 11
    53.333
 21
    35.646
  0
LINE
  8
0
 10
    53.333
 20
    35.646
 11
    48.000
 21
    35.748
  0
LINE
  8
0
 10
    48.000
 20
    35.748
 11
    42.667
 21
    35.838
  0
LINE
  8
0
 10
    42.667
 20
    35.838
 11
    37.333
 21
    35.918
  0
LINE
  8
0
 10
    37.333
 20
    35.918
 11
    32.000
 21
    35.988
  0
LINE
  8
0
 10
    32.000
 20
    35.988
 11
    26.667
 21
    36.046
  0
LINE
  8
0
 10
    26.667
 20
    36.046
 11
    21.333
 21
    36.094
  0
LINE
  8
0
 10
    21.333
 20
    36.094
 11
    16.000
 21
    36.132
  0
LINE
  8
0
 10
    16.000
 20
    36.132
 11
    10.667
 21
    36.158
  0
LINE
  8
0
 10
    10.667
 20
    36.158
 11
     5.333
 21
    36.174
  0
LINE
  8
0
 10
     5.333
 20
    36.174
 11
     0.000
 21
    36.180
  0
LINE
  8
0
 10
     0.000
 20
     3.669
 11
    80.000
 21
     3.669
  0
LINE
  8
0
 10
    80.000
 20
     3.669
 11
    79.399
 21
    35.000
  0
LINE
  8
0
 10
    79.399
 20
    35.000
 11
    74.667
 21
    35.137
  0
LINE
  8
0
 10
    74.667
 20
    35.137
 11
    69.333
 21
    35.281
  0
LINE
  8
0
 10
    69.333
 20
    35.281
 11
    64.000
 21
    35.415
  0
LINE
  8
0
 10
    64.000
 20
    35.415
 11
    58.667
 21
    35.537
  0
LINE
  8
0
 10
    58.667
 20
    35.537
 11
    53.333
 21
    35.649
  0
LINE
  8
0
 10
    53.333
 20
    35.649
 11
    48.000
 21
    35.751
  0
LINE
  8
0
 10
    48.000
 20
    35.751
 11
    42.667
 21
    35.841
  0
LINE
  8
0
 10
    42.667
 20
    35.841
 11
    37.333
 21
    35.921
  0
LINE
  8
0
 10
    37.333
 20
    35.921
 11
    32.000
 21
    35.991
  0
LINE
  8
0
 10
    32.000
 20
    35.991
 11
    26.667
 21
    36.049
  0
LINE
  8
0
 10
    26.667
 20
    36.049
 11
    21.333
 21
    36.097
  0
LINE
  8
0
 10
    21.333
 20
    36.097
 11
    16.000
 21
    36.135
  0
LINE
  8
0
 10
    16.000
 20
    36.135
 11
    10.667
 21
    36.161
  0
LINE
  8
0
 10
    10.667
 20
    36.161
 11
     5.333
 21
    36.177
  0
LINE
  8
0
 10
     5.333
 20
    36.177
 11
     0.000
 21
    36.183
  0
LINE
  8
0
 10
     0.000
 20
     7.338
 11
    80.000
 21
     7.338
  0
LINE
  8
0
 10
    80.000
 20
     7.338
 11
    80.000
 21
    35.000
  0
LINE
  8
0
 10
    80.000
 20
    35.000
 11
    80.000
 21
    35.002
  0
LINE
  8
0
 10
    80.000
 20
    35.002
 11
    74.667
 21
    35.156
  0
LINE
  8
0
 10
    74.667
 20
    35.156
 11
    69.333
 21
    35.300
  0
LINE
  8
0
 10
    69.333
 20
    35.300
 11
    64.000
 21
    35.434
  0
LINE
  8
0
 10
    64.000
 20
    35.434
 11
    58.667
 21
    35.556
  0
LINE
  8
0
 10
    58.667
 20
    35.556
 11
    53.333
 21
    35.668
  0
LINE
  8
0
 10
    53.333
 20
    35.668
 11
    48.000
 21
    35.770
  0
LINE
  8
0
 10
    48.000
 20
    35.770
 11
    42.667
 21
    35.860
  0
LINE
  8
0
 10
    42.667
 20
    35.860
 11
    37.333
 21
    35.940
  0
LINE
  8
0
 10
    37.333
 20
    35.940
 11
    32.000
 21
    36.010
  0
LINE
  8
0
 10
    32.000
 20
    36.010
 11
    26.667
 21
    36.068
  0
LINE
  8
0
 10
    26.667
 20
    36.068
 11
    21.333
 21
    36.116
  0
LINE
  8
0
 10
    21.333
 20
    36.116
 11
    16.000
 21
    36.154
  0
LINE
  8
0
 10
    16.000
 20
    36.154
 11
    10.667
 21
    36.180
  0
LINE
  8
0
 10
    10.667
 20
    36.180
 11
     5.333
 21
    36.196
  0
LINE
  8
0
 10
     5.333
 20
    36.196
 11
     0.000
 21
    36.202
  0
LINE
  8
0
 10
     0.000
 20
    11.001
 11
    80.000
 21
    11.001
  0
LINE
  8
0
 10
    80.000
 20
    11.001
 11
    80.000
 21
    35.000
  0
LINE
  8
0
 10
    80.000
 20
    35.000
 11
    80.000
 21
    35.033
  0
LINE
  8
0
 10
    80.000
 20
    35.033
 11
    74.667
 21
    35.187
  0
LINE
  8
0
 10
    74.667
 20
    35.187
 11
    69.333
 21
    35.331
  0
LINE
  8
0
 10
    69.333
 20
    35.331
 11
    64.000
 21
    35.465
  0
LINE
  8
0
 10
    64.000
 20
    35.465
 11
    58.667
 21
    35.587
  0
LINE
  8
0
 10
    58.667
 20
    35.587
 11
    53.333
 21
    35.699
  0
LINE
  8
0
 10
    53.333
 20
    35.699
 11
    48.000
 21
    35.801
  0
LINE
  8
0
 10
    48.000
 20
    35.801
 11
    42.667
 21
    35.891
  0
LINE
  8
0
 10
    42.667
 20
    35.891
 11
    37.333
 21
    35.971
  0
LINE
  8
0
 10
    37.333
 20
    35.971
 11
    32.000
 21
    36.041
  0
LINE
  8
0
 10
    32.000
 20
    36.041
 11
    26.667
 21
    36.099
  0
LINE
  8
0
 10
    26.667
 20
    36.099
 11
    21.333
 21
    36.147
  0
LINE
  8
0
 10
    21.333
 20
    36.147
 11
    16.000
 21
    36.185
  0
LINE
  8
0
 10
    16.000
 20
    36.185
 11
    10.667
 21
    36.211
  0
LINE
  8
0
 10
    10.667
 20
    36.211
 11
     5.333
 21
    36.227
  0
LINE
  8
0
 10
     5.333
 20
    36.227
 11
     0.000
 21
    36.233
  0
LINE
  8
0
 10
     0.000
 20
    14.664
 11
    80.000
 21
    14.664
  0
LINE
  8
0
 10
    80.000
 20
    14.664
 11
    80.000
 21
    35.000
  0
LINE
  8
0
 10
    80.000
 20
    35.000
 11
    80.000
 21
    35.029
  0
LINE
  8
0
 10
    80.000
 20
    35.029
 11
    74.667
 21
    35.184
  0
LINE
  8
0
 10
    74.667
 20
    35.184
 11
    69.333
 21
    35.328
  0
LINE
  8
0
 10
    69.333
 20
    35.328
 11
    64.000
 21
    35.461
  0
LINE
  8
0
 10
    64.000
 20
    35.461
 11
    58.667
 21
    35.584
  0
LINE
  8
0
 10
    58.667
 20
    35.584
 11
    53.333
 21
    35.696
  0
LINE
  8
0
 10
    53.333
 20
    35.696
 11
    48.000
 21
    35.797
  0
LINE
  8
0
 10
    48.000
 20
    35.797
 11
    42.667
 21
    35.888
  0
LINE
  8
0
 10
    42.667
 20
    35.888
 11
    37.333
 21
    35.968
  0
LINE
  8
0
 10
    37.333
 20
    35.968
 11
    32.000
 21
    36.037
  0
LINE
  8
0
 10
    32.000
 20
    36.037
 11
    26.667
 21
    36.096
  0
LINE
  8
0
 10
    26.667
 20
    36.096
 11
    21.333
 21
    36.144
  0
LINE
  8
0
 10
    21.333
 20
    36.144
 11
    16.000
 21
    36.181
  0
LINE
  8
0
 10
    16.000
 20
    36.181
 11
    10.667
 21
    36.208
  0
LINE
  8
0
 10
    10.667
 20
    36.208
 11
     5.333
 21
    36.224
  0
LINE
  8
0
 10
     5.333
 20
    36.224
 11
     0.000
 21
    36.229
  0
LINE
  8
0
 10
     0.000
 20
    18.335
 11
    76.167
 21
    18.335
  0
LINE
  8
0
 10
    76.167
 20
    18.335
 11
    76.355
 21
    35.000
  0
LINE
  8
0
 10
    76.355
 20
    35.000
 11
    74.667
 21
    35.049
  0
LINE
  8
0
 10
    74.667
 20
    35.049
 11
    69.333
 21
    35.193
  0
LINE
  8
0
 10
    69.333
 20
    35.193
 11
    64.000
 21
    35.326
  0
LINE
  8
0
 10
    64.000
 20
    35.326
 11
    58.667
 21
    35.449
  0
LINE
  8
0
 10
    58.667
 20
    35.449
 11
    53.333
 21
    35.561
  0
LINE
  8
0
 10
    53.333
 20
    35.561
 11
    48.000
 21
    35.662
  0
LINE
  8
0
 10
    48.000
 20
    35.662
 11
    42.667
 21
    35.753
  0
LINE
  8
0
 10
    42.667
 20
    35.753
 11
    37.333
 21
    35.833
  0
LINE
  8
0
 10
    37.333
 20
    35.833
 11
    32.000
 21
    35.902
  0
LINE
  8
0
 10
    32.000
 20
    35.902
 11
    26.667
 21
    35.961
  0
LINE
  8
0
 10
    26.667
 20
    35.961
 11
    21.333
 21
    36.009
  0
LINE
  8
0
 10
    21.333
 20
    36.009
 11
    16.000
 21
    36.046
  0
LINE
  8
0
 10
    16.000
 20
    36.046
 11
    10.667
 21
    36.073
  0
LINE
  8
0
 10
    10.667
 20
    36.073
 11
     5.333
 21
    36.089
  0
LINE
  8
0
 10
     5.333
 20
    36.089
 11
     0.000
 21
    36.094
  0
LINE
  8
0
 10
     0.000
 20
    21.997
 11
    70.005
 21
    21.997
  0
LINE
  8
0
 10
    70.005
 20
    21.997
 11
    70.005
 21
    35.000
  0
LINE
  8
0
 10
    70.005
 20
    35.000
 11
    69.333
 21
    35.018
  0
LINE
  8
0
 10
    69.333
 20
    35.018
 11
    64.000
 21
    35.151
  0
LINE
  8
0
 10
    64.000
 20
    35.151
 11
    58.667
 21
    35.274
  0
LINE
  8
0
 10
    58.667
 20
    35.274
 11
    53.333
 21
    35.386
  0
LINE
  8
0
 10
    53.333
 20
    35.386
 11
    48.000
 21
    35.487
  0
LINE
  8
0
 10
    48.000
 20
    35.487
 11
    42.667
 21
    35.578
  0
LINE
  8
0
 10
    42.667
 20
    35.578
 11
    37.333
 21
    35.658
  0
LINE
  8
0
 10
    37.333
 20
    35.658
 11
    32.000
 21
    35.727
  0
LINE
  8
0
 10
    32.000
 20
    35.727
 11
    26.667
 21
    35.786
  0
LINE
  8
0
 10
    26.667
 20
    35.786
 11
    21.333
 21
    35.834
  0
LINE
  8
0
 10
    21.333
 20
    35.834
 11
    16.000
 21
    35.871
  0
LINE
  8
0
 10
    16.000
 20
    35.871
 11
    10.667
 21
    35.898
  0
LINE
  8
0
 10
    10.667
 20
    35.898
 11
     5.333
 21
    35.914
  0
LINE
  8
0
 10
     5.333
 20
    35.914
 11
     0.000
 21
    35.919
  0
LINE
  8
0
 10
   -80.000
 20
     0.000
 11
    80.000
 21
     0.000
  0
TEXT
  8
0
 10
    -88.00
 20
     -1.00
 40
      2.00
  1
 0.0   
 50
      0.00
  0
TEXT
  8
0
 10
     82.00
 20
     -1.00
 40
      2.00
  1
 0.0   
 50
      0.00
  0
LINE
  8
0
 10
   -80.000
 20
     5.000
 11
    80.000
 21
     5.000
  0
TEXT
  8
0
 10
    -88.00
 20
      4.00
 40
      2.00
  1
 0.5   
 50
      0.00
  0
TEXT
  8
0
 10
     82.00
 20
      4.00
 40
      2.00
  1
 0.5   
 50
      0.00
  0
LINE
  8
0
 10
   -80.000
 20
    10.000
 11
    80.000
 21
    10.000
  0
TEXT
  8
0
 10
    -88.00
 20
      9.00
 40
      2.00
  1
 1.0   
 50
      0.00
  0
TEXT
  8
0
 10
     82.00
 20
      9.00
 40
      2.00
  1
 1.0   
 50
      0.00
  0
LINE
  8
0
 10
   -80.000
 20
    15.000
 11
    80.000
 21
    15.000
  0
TEXT
  8
0
 10
    -88.00
 20
     14.00
 40
      2.00
  1
 1.5   
 50
      0.00
  0
TEXT
  8
0
 10
     82.00
 20
     14.00
 40
      2.00
  1
 1.5   
 50
      0.00
  0
LINE
  8
0
 10
   -80.000
 20
    20.000
 11
    80.000
 21
    20.000
  0
TEXT
  8
0
 10
    -88.00
 20
     19.00
 40
      2.00
  1
 2.0   
 50
      0.00
  0
TEXT
  8
0
 10
     82.00
 20
     19.00
 40
      2.00
  1
 2.0   
 50
      0.00
  0
LINE
  8
0
 10
   -80.000
 20
    25.000
 11
    80.000
 21
    25.000
  0
TEXT
  8
0
 10
    -88.00
 20
     24.00
 40
      2.00
  1
 2.5   
 50
      0.00
  0
TEXT
  8
0
 10
     82.00
 20
     24.00
 40
      2.00
  1
 2.5   
 50
      0.00
  0
LINE
  8
0
 10
   -80.000
 20
    30.000
 11
    80.000
 21
    30.000
  0
TEXT
  8
0
 10
    -88.00
 20
     29.00
 40
      2.00
  1
 3.0   
 50
      0.00
  0
TEXT
  8
0
 10
     82.00
 20
     29.00
 40
      2.00
  1
 3.0   
 50
      0.00
  0
LINE
  8
0
 10
   -80.000
 20
    35.000
 11
    80.000
 21
    35.000
  0
TEXT
  8
0
 10
    -88.00
 20
     34.00
 40
      2.00
  1
 3.5   
 50
      0.00
  0
TEXT
  8
0
 10
     82.00
 20
     34.00
 40
      2.00
  1
 3.5   
 50
      0.00
  0
LINE
  8
0
 10
   -80.000
 20
    35.000
 11
    80.000
 21
    35.000
  0
LINE
  8
0
 10
     0.000
 20
     0.000
 11
     0.000
 21
    35.000
  0
TEXT
  8
0
 10
     -4.00
 20
     -3.00
 40
      2.00
  1
 0.0   
 50
      0.00
  0
LINE
  8
0
 10
     0.000
 20
     0.000
 11
     0.000
 21
    35.000
  0
LINE
  8
0
 10
    10.000
 20
     0.000
 11
    10.000
 21
    35.000
  0
TEXT
  8
0
 10
      6.00
 20
     -3.00
 40
      2.00
  1
 1.0   
 50
      0.00
  0
LINE
  8
0
 10
   -10.000
 20
     0.000
 11
   -10.000
 21
    35.000
  0
TEXT
  8
0
 10
    -14.00
 20
     -3.00
 40
      2.00
  1
 1.0   
 50
      0.00
  0
LINE
  8
0
 10
    20.000
 20
     0.000
 11
    20.000
 21
    35.000
  0
TEXT
  8
0
 10
     16.00
 20
     -3.00
 40
      2.00
  1
 2.0   
 50
      0.00
  0
LINE
  8
0
 10
   -20.000
 20
     0.000
 11
   -20.000
 21
    35.000
  0
TEXT
  8
0
 10
    -24.00
 20
     -3.00
 40
      2.00
  1
 2.0   
 50
      0.00
  0
LINE
  8
0
 10
    30.000
 20
     0.000
 11
    30.000
 21
    35.000
  0
TEXT
  8
0
 10
     26.00
 20
     -3.00
 40
      2.00
  1
 3.0   
 50
      0.00
  0
LINE
  8
0
 10
   -30.000
 20
     0.000
 11
   -30.000
 21
    35.000
  0
TEXT
  8
0
 10
    -34.00
 20
     -3.00
 40
      2.00
  1
 3.0   
 50
      0.00
  0
LINE
  8
0
 10
    40.000
 20
     0.000
 11
    40.000
 21
    35.000
  0
TEXT
  8
0
 10
     36.00
 20
     -3.00
 40
      2.00
  1
 4.0   
 50
      0.00
  0
LINE
  8
0
 10
   -40.000
 20
     0.000
 11
   -40.000
 21
    35.000
  0
TEXT
  8
0
 10
    -44.00
 20
     -3.00
 40
      2.00
  1
 4.0   
 50
      0.00
  0
LINE
  8
0
 10
    50.000
 20
     0.000
 11
    50.000
 21
    35.000
  0
TEXT
  8
0
 10
     46.00
 20
     -3.00
 40
      2.00
  1
 5.0   
 50
      0.00
  0
LINE
  8
0
 10
   -50.000
 20
     0.000
 11
   -50.000
 21
    35.000
  0
TEXT
  8
0
 10
    -54.00
 20
     -3.00
 40
      2.00
  1
 5.0   
 50
      0.00
  0
LINE
  8
0
 10
    60.000
 20
     0.000
 11
    60.000
 21
    35.000
  0
TEXT
  8
0
 10
     56.00
 20
     -3.00
 40
      2.00
  1
 6.0   
 50
      0.00
  0
LINE
  8
0
 10
   -60.000
 20
     0.000
 11
   -60.000
 21
    35.000
  0
TEXT
  8
0
 10
    -64.00
 20
     -3.00
 40
      2.00
  1
 6.0   
 50
      0.00
  0
LINE
  8
0
 10
    70.000
 20
     0.000
 11
    70.000
 21
    35.000
  0
TEXT
  8
0
 10
     66.00
 20
     -3.00
 40
      2.00
  1
 7.0   
 50
      0.00
  0
LINE
  8
0
 10
   -70.000
 20
     0.000
 11
   -70.000
 21
    35.000
  0
TEXT
  8
0
 10
    -74.00
 20
     -3.00
 40
      2.00
  1
 7.0   
 50
      0.00
  0
LINE
  8
0
 10
    80.000
 20
     0.000
 11
    80.000
 21
    35.000
  0
TEXT
  8
0
 10
     76.00
 20
     -3.00
 40
      2.00
  1
 8.0   
 50
      0.00
  0
LINE
  8
0
 10
   -80.000
 20
     0.000
 11
   -80.000
 21
    35.000
  0
TEXT
  8
0
 10
    -84.00
 20
     -3.00
 40
      2.00
  1
 8.0   
 50
      0.00
  0
LINE
  8
0
 10
   -80.000
 20
     0.000
 11
   -80.000
 21
    35.000
  0
LINE
  8
0
 10
    80.000
 20
     0.000
 11
    80.000
 21
    35.000
  0
ENDSEC
  0
EOF
