  0
SECTION
  2
ENTITIES
  0
LINE
  8
0
 10
     0.000
 20
    35.000
 11
     0.000
 21
    29.167
  0
LINE
  8
0
 10
     0.000
 20
    29.167
 11
     0.000
 21
    23.333
  0
LINE
  8
0
 10
     0.000
 20
    23.333
 11
     0.000
 21
    17.500
  0
LINE
  8
0
 10
     0.000
 20
    17.500
 11
     0.000
 21
    17.500
  0
LINE
  8
0
 10
     0.000
 20
    17.500
 11
     1.000
 21
    17.000
  0
LINE
  8
0
 10
     1.000
 20
    17.000
 11
     2.000
 21
    16.500
  0
LINE
  8
0
 10
     2.000
 20
    16.500
 11
     3.000
 21
    16.000
  0
LINE
  8
0
 10
     3.000
 20
    16.000
 11
     3.000
 21
    16.000
  0
LINE
  8
0
 10
     3.000
 20
    16.000
 11
     4.000
 21
    15.500
  0
LINE
  8
0
 10
     4.000
 20
    15.500
 11
     5.000
 21
    15.000
  0
LINE
  8
0
 10
     5.000
 20
    15.000
 11
     6.000
 21
    14.500
  0
LINE
  8
0
 10
     6.000
 20
    14.500
 11
     6.000
 21
    14.500
  0
LINE
  8
0
 10
     6.000
 20
    14.500
 11
    12.333
 21
    11.333
  0
LINE
  8
0
 10
    12.333
 20
    11.333
 11
    18.667
 21
     8.167
  0
LINE
  8
0
 10
    18.667
 20
     8.167
 11
    25.000
 21
     5.000
  0
LINE
  8
0
 10
    25.000
 20
     5.000
 11
    28.333
 21
     3.333
  0
LINE
  8
0
 10
    28.333
 20
     3.333
 11
    31.667
 21
     1.667
  0
LINE
  8
0
 10
    31.667
 20
     1.667
 11
    35.000
 21
     0.000
  0
LINE
  8
0
 10
    35.000
 20
     0.000
 11
    35.000
 21
     0.000
  0
LINE
  8
0
 10
    35.000
 20
     0.000
 11
    35.000
 21
     0.000
  0
LINE
  8
0
 10
    35.000
 20
     0.000
 11
    35.000
 21
     0.000
  0
LINE
  8
0
 10
    35.000
 20
     0.000
 11
    35.000
 21
     0.000
  0
LINE
  8
0
 10
    35.000
 20
     0.000
 11
    35.000
 21
     0.000
  0
LINE
  8
0
 10
    35.000
 20
     0.000
 11
    40.000
 21
     0.000
  0
LINE
  8
0
 10
    40.000
 20
     0.000
 11
    45.000
 21
     0.000
  0
LINE
  8
0
 10
    45.000
 20
     0.000
 11
    50.000
 21
     0.000
  0
LINE
  8
0
 10
    50.000
 20
     0.000
 11
    50.000
 21
     0.000
  0
LINE
  8
0
 10
    50.000
 20
     0.000
 11
    66.667
 21
     0.000
  0
LINE
  8
0
 10
    66.667
 20
     0.000
 11
    83.333
 21
     0.000
  0
LINE
  8
0
 10
    83.333
 20
     0.000
 11
   100.000
 21
     0.000
  0
LINE
  8
0
 10
   100.000
 20
     0.000
 11
   100.000
 21
     0.000
  0
LINE
  8
0
 10
   100.000
 20
     0.000
 11
   116.667
 21
     0.000
  0
LINE
  8
0
 10
   116.667
 20
     0.000
 11
   133.333
 21
     0.000
  0
LINE
  8
0
 10
   133.333
 20
     0.000
 11
   150.000
 21
     0.000
  0
LINE
  8
0
 10
   150.000
 20
     0.000
 11
   150.000
 21
     0.000
  0
LINE
  8
0
 10
   150.000
 20
     0.000
 11
   166.667
 21
     0.000
  0
LINE
  8
0
 10
   166.667
 20
     0.000
 11
   183.333
 21
     0.000
  0
LINE
  8
0
 10
   183.333
 20
     0.000
 11
   200.000
 21
     0.000
  0
LINE
  8
0
 10
   200.000
 20
     0.000
 11
   200.000
 21
     0.000
  0
LINE
  8
0
 10
   200.000
 20
     0.000
 11
   216.667
 21
     0.000
  0
LINE
  8
0
 10
   216.667
 20
     0.000
 11
   233.333
 21
     0.000
  0
LINE
  8
0
 10
   233.333
 20
     0.000
 11
   250.000
 21
     0.000
  0
LINE
  8
0
 10
   250.000
 20
     0.000
 11
   250.000
 21
     0.000
  0
LINE
  8
0
 10
   250.000
 20
     0.000
 11
   266.667
 21
     0.000
  0
LINE
  8
0
 10
   266.667
 20
     0.000
 11
   283.333
 21
     0.000
  0
LINE
  8
0
 10
   283.333
 20
     0.000
 11
   300.000
 21
     0.000
  0
LINE
  8
0
 10
   300.000
 20
     0.000
 11
   300.000
 21
     0.000
  0
LINE
  8
0
 10
   300.000
 20
     0.000
 11
   316.667
 21
     0.000
  0
LINE
  8
0
 10
   316.667
 20
     0.000
 11
   333.333
 21
     0.000
  0
LINE
  8
0
 10
   333.333
 20
     0.000
 11
   350.000
 21
     0.000
  0
LINE
  8
0
 10
   350.000
 20
     0.000
 11
   350.000
 21
     0.000
  0
LINE
  8
0
 10
   350.000
 20
     0.000
 11
   366.667
 21
     0.000
  0
LINE
  8
0
 10
   366.667
 20
     0.000
 11
   383.333
 21
     0.000
  0
LINE
  8
0
 10
   383.333
 20
     0.000
 11
   400.000
 21
     0.000
  0
LINE
  8
0
 10
   400.000
 20
     0.000
 11
   400.000
 21
     0.000
  0
LINE
  8
0
 10
   400.000
 20
     0.000
 11
   416.667
 21
     0.000
  0
LINE
  8
0
 10
   416.667
 20
     0.000
 11
   433.333
 21
     0.000
  0
LINE
  8
0
 10
   433.333
 20
     0.000
 11
   450.000
 21
     0.000
  0
LINE
  8
0
 10
   450.000
 20
     0.000
 11
   450.000
 21
     0.000
  0
LINE
  8
0
 10
   450.000
 20
     0.000
 11
   454.333
 21
     0.000
  0
LINE
  8
0
 10
   454.333
 20
     0.000
 11
   458.667
 21
     0.000
  0
LINE
  8
0
 10
   458.667
 20
     0.000
 11
   463.000
 21
     0.000
  0
LINE
  8
0
 10
   463.000
 20
     0.000
 11
   463.000
 21
     0.000
  0
LINE
  8
0
 10
   463.000
 20
     0.000
 11
   463.000
 21
     0.000
  0
LINE
  8
0
 10
   463.000
 20
     0.000
 11
   463.000
 21
     0.000
  0
LINE
  8
0
 10
   463.000
 20
     0.000
 11
   463.000
 21
     0.000
  0
LINE
  8
0
 10
   463.000
 20
     0.000
 11
   467.000
 21
     2.380
  0
LINE
  8
0
 10
   467.000
 20
     2.380
 11
   471.000
 21
     4.760
  0
LINE
  8
0
 10
   471.000
 20
     4.760
 11
   475.000
 21
     7.140
  0
LINE
  8
0
 10
   475.000
 20
     7.140
 11
   480.000
 21
    10.110
  0
LINE
  8
0
 10
   480.000
 20
    10.110
 11
   485.000
 21
    13.080
  0
LINE
  8
0
 10
   485.000
 20
    13.080
 11
   490.000
 21
    16.050
  0
LINE
  8
0
 10
   490.000
 20
    16.050
 11
   491.667
 21
    17.043
  0
LINE
  8
0
 10
   491.667
 20
    17.043
 11
   493.333
 21
    18.037
  0
LINE
  8
0
 10
   493.333
 20
    18.037
 11
   495.000
 21
    19.030
  0
LINE
  8
0
 10
   495.000
 20
    19.030
 11
   495.000
 21
    19.030
  0
LINE
  8
0
 10
   495.000
 20
    19.030
 11
   496.667
 21
    20.020
  0
LINE
  8
0
 10
   496.667
 20
    20.020
 11
   498.333
 21
    21.010
  0
LINE
  8
0
 10
   498.333
 20
    21.010
 11
   500.000
 21
    22.000
  0
LINE
  8
0
 10
   500.000
 20
    22.000
 11
   500.000
 21
    22.000
  0
LINE
  8
0
 10
   500.000
 20
    22.000
 11
   500.000
 21
    26.333
  0
LINE
  8
0
 10
   500.000
 20
    26.333
 11
   500.000
 21
    30.667
  0
ENDSEC
  0
EOF
