  0
SECTION
  2
ENTITIES
  0
POLYLINE
  8
0
 66
     1
 10
0.0
 20
0.0
 30
0.0
 70
     8
  0
VERTEX
  8
0
 10
     0.000
 20
    17.498
 30
  -250.000
 70
    32
  0
VERTEX
  8
0
 10
    74.005
 20
    17.498
 30
  -250.000
 70
    32
  0
VERTEX
  8
0
 10
    74.005
 20
    35.000
 30
  -250.000
 70
    32
  0
VERTEX
  8
0
 10
    69.333
 20
    35.126
 30
  -250.000
 70
    32
  0
VERTEX
  8
0
 10
    64.000
 20
    35.259
 30
  -250.000
 70
    32
  0
VERTEX
  8
0
 10
    58.667
 20
    35.382
 30
  -250.000
 70
    32
  0
VERTEX
  8
0
 10
    53.333
 20
    35.494
 30
  -250.000
 70
    32
  0
VERTEX
  8
0
 10
    48.000
 20
    35.595
 30
  -250.000
 70
    32
  0
VERTEX
  8
0
 10
    42.667
 20
    35.686
 30
  -250.000
 70
    32
  0
VERTEX
  8
0
 10
    37.333
 20
    35.766
 30
  -250.000
 70
    32
  0
VERTEX
  8
0
 10
    32.000
 20
    35.835
 30
  -250.000
 70
    32
  0
VERTEX
  8
0
 10
    26.667
 20
    35.894
 30
  -250.000
 70
    32
  0
VERTEX
  8
0
 10
    21.333
 20
    35.942
 30
  -250.000
 70
    32
  0
VERTEX
  8
0
 10
    16.000
 20
    35.979
 30
  -250.000
 70
    32
  0
VERTEX
  8
0
 10
    10.667
 20
    36.006
 30
  -250.000
 70
    32
  0
VERTEX
  8
0
 10
     5.333
 20
    36.022
 30
  -250.000
 70
    32
  0
VERTEX
  8
0
 10
     0.000
 20
    36.027
 30
  -250.000
 70
    32
  0
SEQEND
  8
0
  0
POLYLINE
  8
0
 66
     1
 10
0.0
 20
0.0
 30
0.0
 70
     8
  0
VERTEX
  8
0
 10
     0.000
 20
    17.498
 30
  -250.000
 70
    32
  0
VERTEX
  8
0
 10
   -74.005
 20
    17.498
 30
  -250.000
 70
    32
  0
VERTEX
  8
0
 10
   -74.005
 20
    35.000
 30
  -250.000
 70
    32
  0
VERTEX
  8
0
 10
   -69.333
 20
    35.126
 30
  -250.000
 70
    32
  0
VERTEX
  8
0
 10
   -64.000
 20
    35.259
 30
  -250.000
 70
    32
  0
VERTEX
  8
0
 10
   -58.667
 20
    35.382
 30
  -250.000
 70
    32
  0
VERTEX
  8
0
 10
   -53.333
 20
    35.494
 30
  -250.000
 70
    32
  0
VERTEX
  8
0
 10
   -48.000
 20
    35.595
 30
  -250.000
 70
    32
  0
VERTEX
  8
0
 10
   -42.667
 20
    35.686
 30
  -250.000
 70
    32
  0
VERTEX
  8
0
 10
   -37.333
 20
    35.766
 30
  -250.000
 70
    32
  0
VERTEX
  8
0
 10
   -32.000
 20
    35.835
 30
  -250.000
 70
    32
  0
VERTEX
  8
0
 10
   -26.667
 20
    35.894
 30
  -250.000
 70
    32
  0
VERTEX
  8
0
 10
   -21.333
 20
    35.942
 30
  -250.000
 70
    32
  0
VERTEX
  8
0
 10
   -16.000
 20
    35.979
 30
  -250.000
 70
    32
  0
VERTEX
  8
0
 10
   -10.667
 20
    36.006
 30
  -250.000
 70
    32
  0
VERTEX
  8
0
 10
    -5.333
 20
    36.022
 30
  -250.000
 70
    32
  0
VERTEX
  8
0
 10
     0.000
 20
    36.027
 30
  -250.000
 70
    32
  0
SEQEND
  8
0
  0
POLYLINE
  8
0
 66
     1
 10
0.0
 20
0.0
 30
0.0
 70
     8
  0
VERTEX
  8
0
 10
     0.000
 20
    13.125
 30
  -241.250
 70
    32
  0
VERTEX
  8
0
 10
    80.000
 20
    13.125
 30
  -241.250
 70
    32
  0
VERTEX
  8
0
 10
    80.000
 20
    35.000
 30
  -241.250
 70
    32
  0
VERTEX
  8
0
 10
    80.000
 20
    35.043
 30
  -241.250
 70
    32
  0
VERTEX
  8
0
 10
    74.667
 20
    35.198
 30
  -241.250
 70
    32
  0
VERTEX
  8
0
 10
    69.333
 20
    35.342
 30
  -241.250
 70
    32
  0
VERTEX
  8
0
 10
    64.000
 20
    35.475
 30
  -241.250
 70
    32
  0
VERTEX
  8
0
 10
    58.667
 20
    35.598
 30
  -241.250
 70
    32
  0
VERTEX
  8
0
 10
    53.333
 20
    35.710
 30
  -241.250
 70
    32
  0
VERTEX
  8
0
 10
    48.000
 20
    35.811
 30
  -241.250
 70
    32
  0
VERTEX
  8
0
 10
    42.667
 20
    35.902
 30
  -241.250
 70
    32
  0
VERTEX
  8
0
 10
    37.333
 20
    35.982
 30
  -241.250
 70
    32
  0
VERTEX
  8
0
 10
    32.000
 20
    36.051
 30
  -241.250
 70
    32
  0
VERTEX
  8
0
 10
    26.667
 20
    36.110
 30
  -241.250
 70
    32
  0
VERTEX
  8
0
 10
    21.333
 20
    36.158
 30
  -241.250
 70
    32
  0
VERTEX
  8
0
 10
    16.000
 20
    36.195
 30
  -241.250
 70
    32
  0
VERTEX
  8
0
 10
    10.667
 20
    36.222
 30
  -241.250
 70
    32
  0
VERTEX
  8
0
 10
     5.333
 20
    36.238
 30
  -241.250
 70
    32
  0
VERTEX
  8
0
 10
     0.000
 20
    36.243
 30
  -241.250
 70
    32
  0
SEQEND
  8
0
  0
POLYLINE
  8
0
 66
     1
 10
0.0
 20
0.0
 30
0.0
 70
     8
  0
VERTEX
  8
0
 10
     0.000
 20
    13.125
 30
  -241.250
 70
    32
  0
VERTEX
  8
0
 10
   -80.000
 20
    13.125
 30
  -241.250
 70
    32
  0
VERTEX
  8
0
 10
   -80.000
 20
    35.000
 30
  -241.250
 70
    32
  0
VERTEX
  8
0
 10
   -80.000
 20
    35.043
 30
  -241.250
 70
    32
  0
VERTEX
  8
0
 10
   -74.667
 20
    35.198
 30
  -241.250
 70
    32
  0
VERTEX
  8
0
 10
   -69.333
 20
    35.342
 30
  -241.250
 70
    32
  0
VERTEX
  8
0
 10
   -64.000
 20
    35.475
 30
  -241.250
 70
    32
  0
VERTEX
  8
0
 10
   -58.667
 20
    35.598
 30
  -241.250
 70
    32
  0
VERTEX
  8
0
 10
   -53.333
 20
    35.710
 30
  -241.250
 70
    32
  0
VERTEX
  8
0
 10
   -48.000
 20
    35.811
 30
  -241.250
 70
    32
  0
VERTEX
  8
0
 10
   -42.667
 20
    35.902
 30
  -241.250
 70
    32
  0
VERTEX
  8
0
 10
   -37.333
 20
    35.982
 30
  -241.250
 70
    32
  0
VERTEX
  8
0
 10
   -32.000
 20
    36.051
 30
  -241.250
 70
    32
  0
VERTEX
  8
0
 10
   -26.667
 20
    36.110
 30
  -241.250
 70
    32
  0
VERTEX
  8
0
 10
   -21.333
 20
    36.158
 30
  -241.250
 70
    32
  0
VERTEX
  8
0
 10
   -16.000
 20
    36.195
 30
  -241.250
 70
    32
  0
VERTEX
  8
0
 10
   -10.667
 20
    36.222
 30
  -241.250
 70
    32
  0
VERTEX
  8
0
 10
    -5.333
 20
    36.238
 30
  -241.250
 70
    32
  0
VERTEX
  8
0
 10
     0.000
 20
    36.243
 30
  -241.250
 70
    32
  0
SEQEND
  8
0
  0
POLYLINE
  8
0
 66
     1
 10
0.0
 20
0.0
 30
0.0
 70
     8
  0
VERTEX
  8
0
 10
     0.000
 20
     8.750
 30
  -232.500
 70
    32
  0
VERTEX
  8
0
 10
    80.000
 20
     8.750
 30
  -232.500
 70
    32
  0
VERTEX
  8
0
 10
    80.000
 20
    35.000
 30
  -232.500
 70
    32
  0
VERTEX
  8
0
 10
    80.000
 20
    35.044
 30
  -232.500
 70
    32
  0
VERTEX
  8
0
 10
    74.667
 20
    35.199
 30
  -232.500
 70
    32
  0
VERTEX
  8
0
 10
    69.333
 20
    35.343
 30
  -232.500
 70
    32
  0
VERTEX
  8
0
 10
    64.000
 20
    35.476
 30
  -232.500
 70
    32
  0
VERTEX
  8
0
 10
    58.667
 20
    35.599
 30
  -232.500
 70
    32
  0
VERTEX
  8
0
 10
    53.333
 20
    35.711
 30
  -232.500
 70
    32
  0
VERTEX
  8
0
 10
    48.000
 20
    35.812
 30
  -232.500
 70
    32
  0
VERTEX
  8
0
 10
    42.667
 20
    35.903
 30
  -232.500
 70
    32
  0
VERTEX
  8
0
 10
    37.333
 20
    35.983
 30
  -232.500
 70
    32
  0
VERTEX
  8
0
 10
    32.000
 20
    36.052
 30
  -232.500
 70
    32
  0
VERTEX
  8
0
 10
    26.667
 20
    36.111
 30
  -232.500
 70
    32
  0
VERTEX
  8
0
 10
    21.333
 20
    36.159
 30
  -232.500
 70
    32
  0
VERTEX
  8
0
 10
    16.000
 20
    36.196
 30
  -232.500
 70
    32
  0
VERTEX
  8
0
 10
    10.667
 20
    36.223
 30
  -232.500
 70
    32
  0
VERTEX
  8
0
 10
     5.333
 20
    36.239
 30
  -232.500
 70
    32
  0
VERTEX
  8
0
 10
     0.000
 20
    36.244
 30
  -232.500
 70
    32
  0
SEQEND
  8
0
  0
POLYLINE
  8
0
 66
     1
 10
0.0
 20
0.0
 30
0.0
 70
     8
  0
VERTEX
  8
0
 10
     0.000
 20
     8.750
 30
  -232.500
 70
    32
  0
VERTEX
  8
0
 10
   -80.000
 20
     8.750
 30
  -232.500
 70
    32
  0
VERTEX
  8
0
 10
   -80.000
 20
    35.000
 30
  -232.500
 70
    32
  0
VERTEX
  8
0
 10
   -80.000
 20
    35.044
 30
  -232.500
 70
    32
  0
VERTEX
  8
0
 10
   -74.667
 20
    35.199
 30
  -232.500
 70
    32
  0
VERTEX
  8
0
 10
   -69.333
 20
    35.343
 30
  -232.500
 70
    32
  0
VERTEX
  8
0
 10
   -64.000
 20
    35.476
 30
  -232.500
 70
    32
  0
VERTEX
  8
0
 10
   -58.667
 20
    35.599
 30
  -232.500
 70
    32
  0
VERTEX
  8
0
 10
   -53.333
 20
    35.711
 30
  -232.500
 70
    32
  0
VERTEX
  8
0
 10
   -48.000
 20
    35.812
 30
  -232.500
 70
    32
  0
VERTEX
  8
0
 10
   -42.667
 20
    35.903
 30
  -232.500
 70
    32
  0
VERTEX
  8
0
 10
   -37.333
 20
    35.983
 30
  -232.500
 70
    32
  0
VERTEX
  8
0
 10
   -32.000
 20
    36.052
 30
  -232.500
 70
    32
  0
VERTEX
  8
0
 10
   -26.667
 20
    36.111
 30
  -232.500
 70
    32
  0
VERTEX
  8
0
 10
   -21.333
 20
    36.159
 30
  -232.500
 70
    32
  0
VERTEX
  8
0
 10
   -16.000
 20
    36.196
 30
  -232.500
 70
    32
  0
VERTEX
  8
0
 10
   -10.667
 20
    36.223
 30
  -232.500
 70
    32
  0
VERTEX
  8
0
 10
    -5.333
 20
    36.239
 30
  -232.500
 70
    32
  0
VERTEX
  8
0
 10
     0.000
 20
    36.244
 30
  -232.500
 70
    32
  0
SEQEND
  8
0
  0
POLYLINE
  8
0
 66
     1
 10
0.0
 20
0.0
 30
0.0
 70
     8
  0
VERTEX
  8
0
 10
     0.000
 20
     4.375
 30
  -223.750
 70
    32
  0
VERTEX
  8
0
 10
    80.000
 20
     4.375
 30
  -223.750
 70
    32
  0
VERTEX
  8
0
 10
    79.807
 20
    35.000
 30
  -223.750
 70
    32
  0
VERTEX
  8
0
 10
    74.667
 20
    35.149
 30
  -223.750
 70
    32
  0
VERTEX
  8
0
 10
    69.333
 20
    35.293
 30
  -223.750
 70
    32
  0
VERTEX
  8
0
 10
    64.000
 20
    35.426
 30
  -223.750
 70
    32
  0
VERTEX
  8
0
 10
    58.667
 20
    35.549
 30
  -223.750
 70
    32
  0
VERTEX
  8
0
 10
    53.333
 20
    35.661
 30
  -223.750
 70
    32
  0
VERTEX
  8
0
 10
    48.000
 20
    35.762
 30
  -223.750
 70
    32
  0
VERTEX
  8
0
 10
    42.667
 20
    35.853
 30
  -223.750
 70
    32
  0
VERTEX
  8
0
 10
    37.333
 20
    35.933
 30
  -223.750
 70
    32
  0
VERTEX
  8
0
 10
    32.000
 20
    36.002
 30
  -223.750
 70
    32
  0
VERTEX
  8
0
 10
    26.667
 20
    36.061
 30
  -223.750
 70
    32
  0
VERTEX
  8
0
 10
    21.333
 20
    36.109
 30
  -223.750
 70
    32
  0
VERTEX
  8
0
 10
    16.000
 20
    36.146
 30
  -223.750
 70
    32
  0
VERTEX
  8
0
 10
    10.667
 20
    36.173
 30
  -223.750
 70
    32
  0
VERTEX
  8
0
 10
     5.333
 20
    36.189
 30
  -223.750
 70
    32
  0
VERTEX
  8
0
 10
     0.000
 20
    36.194
 30
  -223.750
 70
    32
  0
SEQEND
  8
0
  0
POLYLINE
  8
0
 66
     1
 10
0.0
 20
0.0
 30
0.0
 70
     8
  0
VERTEX
  8
0
 10
     0.000
 20
     4.375
 30
  -223.750
 70
    32
  0
VERTEX
  8
0
 10
   -80.000
 20
     4.375
 30
  -223.750
 70
    32
  0
VERTEX
  8
0
 10
   -79.807
 20
    35.000
 30
  -223.750
 70
    32
  0
VERTEX
  8
0
 10
   -74.667
 20
    35.149
 30
  -223.750
 70
    32
  0
VERTEX
  8
0
 10
   -69.333
 20
    35.293
 30
  -223.750
 70
    32
  0
VERTEX
  8
0
 10
   -64.000
 20
    35.426
 30
  -223.750
 70
    32
  0
VERTEX
  8
0
 10
   -58.667
 20
    35.549
 30
  -223.750
 70
    32
  0
VERTEX
  8
0
 10
   -53.333
 20
    35.661
 30
  -223.750
 70
    32
  0
VERTEX
  8
0
 10
   -48.000
 20
    35.762
 30
  -223.750
 70
    32
  0
VERTEX
  8
0
 10
   -42.667
 20
    35.853
 30
  -223.750
 70
    32
  0
VERTEX
  8
0
 10
   -37.333
 20
    35.933
 30
  -223.750
 70
    32
  0
VERTEX
  8
0
 10
   -32.000
 20
    36.002
 30
  -223.750
 70
    32
  0
VERTEX
  8
0
 10
   -26.667
 20
    36.061
 30
  -223.750
 70
    32
  0
VERTEX
  8
0
 10
   -21.333
 20
    36.109
 30
  -223.750
 70
    32
  0
VERTEX
  8
0
 10
   -16.000
 20
    36.146
 30
  -223.750
 70
    32
  0
VERTEX
  8
0
 10
   -10.667
 20
    36.173
 30
  -223.750
 70
    32
  0
VERTEX
  8
0
 10
    -5.333
 20
    36.189
 30
  -223.750
 70
    32
  0
VERTEX
  8
0
 10
     0.000
 20
    36.194
 30
  -223.750
 70
    32
  0
SEQEND
  8
0
  0
POLYLINE
  8
0
 66
     1
 10
0.0
 20
0.0
 30
0.0
 70
     8
  0
VERTEX
  8
0
 10
     0.000
 20
     0.002
 30
  -215.000
 70
    32
  0
VERTEX
  8
0
 10
    80.000
 20
     0.002
 30
  -215.000
 70
    32
  0
VERTEX
  8
0
 10
    79.210
 20
    35.000
 30
  -215.000
 70
    32
  0
VERTEX
  8
0
 10
    74.667
 20
    35.132
 30
  -215.000
 70
    32
  0
VERTEX
  8
0
 10
    69.333
 20
    35.276
 30
  -215.000
 70
    32
  0
VERTEX
  8
0
 10
    64.000
 20
    35.409
 30
  -215.000
 70
    32
  0
VERTEX
  8
0
 10
    58.667
 20
    35.532
 30
  -215.000
 70
    32
  0
VERTEX
  8
0
 10
    53.333
 20
    35.644
 30
  -215.000
 70
    32
  0
VERTEX
  8
0
 10
    48.000
 20
    35.745
 30
  -215.000
 70
    32
  0
VERTEX
  8
0
 10
    42.667
 20
    35.836
 30
  -215.000
 70
    32
  0
VERTEX
  8
0
 10
    37.333
 20
    35.916
 30
  -215.000
 70
    32
  0
VERTEX
  8
0
 10
    32.000
 20
    35.985
 30
  -215.000
 70
    32
  0
VERTEX
  8
0
 10
    26.667
 20
    36.044
 30
  -215.000
 70
    32
  0
VERTEX
  8
0
 10
    21.333
 20
    36.092
 30
  -215.000
 70
    32
  0
VERTEX
  8
0
 10
    16.000
 20
    36.129
 30
  -215.000
 70
    32
  0
VERTEX
  8
0
 10
    10.667
 20
    36.156
 30
  -215.000
 70
    32
  0
VERTEX
  8
0
 10
     5.333
 20
    36.172
 30
  -215.000
 70
    32
  0
VERTEX
  8
0
 10
     0.000
 20
    36.177
 30
  -215.000
 70
    32
  0
SEQEND
  8
0
  0
POLYLINE
  8
0
 66
     1
 10
0.0
 20
0.0
 30
0.0
 70
     8
  0
VERTEX
  8
0
 10
     0.000
 20
     0.002
 30
  -215.000
 70
    32
  0
VERTEX
  8
0
 10
   -80.000
 20
     0.002
 30
  -215.000
 70
    32
  0
VERTEX
  8
0
 10
   -79.210
 20
    35.000
 30
  -215.000
 70
    32
  0
VERTEX
  8
0
 10
   -74.667
 20
    35.132
 30
  -215.000
 70
    32
  0
VERTEX
  8
0
 10
   -69.333
 20
    35.276
 30
  -215.000
 70
    32
  0
VERTEX
  8
0
 10
   -64.000
 20
    35.409
 30
  -215.000
 70
    32
  0
VERTEX
  8
0
 10
   -58.667
 20
    35.532
 30
  -215.000
 70
    32
  0
VERTEX
  8
0
 10
   -53.333
 20
    35.644
 30
  -215.000
 70
    32
  0
VERTEX
  8
0
 10
   -48.000
 20
    35.745
 30
  -215.000
 70
    32
  0
VERTEX
  8
0
 10
   -42.667
 20
    35.836
 30
  -215.000
 70
    32
  0
VERTEX
  8
0
 10
   -37.333
 20
    35.916
 30
  -215.000
 70
    32
  0
VERTEX
  8
0
 10
   -32.000
 20
    35.985
 30
  -215.000
 70
    32
  0
VERTEX
  8
0
 10
   -26.667
 20
    36.044
 30
  -215.000
 70
    32
  0
VERTEX
  8
0
 10
   -21.333
 20
    36.092
 30
  -215.000
 70
    32
  0
VERTEX
  8
0
 10
   -16.000
 20
    36.129
 30
  -215.000
 70
    32
  0
VERTEX
  8
0
 10
   -10.667
 20
    36.156
 30
  -215.000
 70
    32
  0
VERTEX
  8
0
 10
    -5.333
 20
    36.172
 30
  -215.000
 70
    32
  0
VERTEX
  8
0
 10
     0.000
 20
    36.177
 30
  -215.000
 70
    32
  0
SEQEND
  8
0
  0
POLYLINE
  8
0
 66
     1
 10
0.0
 20
0.0
 30
0.0
 70
     8
  0
VERTEX
  8
0
 10
     0.000
 20
     0.000
 30
  -215.000
 70
    32
  0
VERTEX
  8
0
 10
    80.000
 20
     0.000
 30
  -215.000
 70
    32
  0
VERTEX
  8
0
 10
    79.210
 20
    35.000
 30
  -215.000
 70
    32
  0
VERTEX
  8
0
 10
    74.667
 20
    35.132
 30
  -215.000
 70
    32
  0
VERTEX
  8
0
 10
    69.333
 20
    35.276
 30
  -215.000
 70
    32
  0
VERTEX
  8
0
 10
    64.000
 20
    35.409
 30
  -215.000
 70
    32
  0
VERTEX
  8
0
 10
    58.667
 20
    35.532
 30
  -215.000
 70
    32
  0
VERTEX
  8
0
 10
    53.333
 20
    35.644
 30
  -215.000
 70
    32
  0
VERTEX
  8
0
 10
    48.000
 20
    35.745
 30
  -215.000
 70
    32
  0
VERTEX
  8
0
 10
    42.667
 20
    35.836
 30
  -215.000
 70
    32
  0
VERTEX
  8
0
 10
    37.333
 20
    35.916
 30
  -215.000
 70
    32
  0
VERTEX
  8
0
 10
    32.000
 20
    35.985
 30
  -215.000
 70
    32
  0
VERTEX
  8
0
 10
    26.667
 20
    36.044
 30
  -215.000
 70
    32
  0
VERTEX
  8
0
 10
    21.333
 20
    36.092
 30
  -215.000
 70
    32
  0
VERTEX
  8
0
 10
    16.000
 20
    36.129
 30
  -215.000
 70
    32
  0
VERTEX
  8
0
 10
    10.667
 20
    36.156
 30
  -215.000
 70
    32
  0
VERTEX
  8
0
 10
     5.333
 20
    36.172
 30
  -215.000
 70
    32
  0
VERTEX
  8
0
 10
     0.000
 20
    36.177
 30
  -215.000
 70
    32
  0
SEQEND
  8
0
  0
POLYLINE
  8
0
 66
     1
 10
0.0
 20
0.0
 30
0.0
 70
     8
  0
VERTEX
  8
0
 10
     0.000
 20
     0.000
 30
  -215.000
 70
    32
  0
VERTEX
  8
0
 10
   -80.000
 20
     0.000
 30
  -215.000
 70
    32
  0
VERTEX
  8
0
 10
   -79.210
 20
    35.000
 30
  -215.000
 70
    32
  0
VERTEX
  8
0
 10
   -74.667
 20
    35.132
 30
  -215.000
 70
    32
  0
VERTEX
  8
0
 10
   -69.333
 20
    35.276
 30
  -215.000
 70
    32
  0
VERTEX
  8
0
 10
   -64.000
 20
    35.409
 30
  -215.000
 70
    32
  0
VERTEX
  8
0
 10
   -58.667
 20
    35.532
 30
  -215.000
 70
    32
  0
VERTEX
  8
0
 10
   -53.333
 20
    35.644
 30
  -215.000
 70
    32
  0
VERTEX
  8
0
 10
   -48.000
 20
    35.745
 30
  -215.000
 70
    32
  0
VERTEX
  8
0
 10
   -42.667
 20
    35.836
 30
  -215.000
 70
    32
  0
VERTEX
  8
0
 10
   -37.333
 20
    35.916
 30
  -215.000
 70
    32
  0
VERTEX
  8
0
 10
   -32.000
 20
    35.985
 30
  -215.000
 70
    32
  0
VERTEX
  8
0
 10
   -26.667
 20
    36.044
 30
  -215.000
 70
    32
  0
VERTEX
  8
0
 10
   -21.333
 20
    36.092
 30
  -215.000
 70
    32
  0
VERTEX
  8
0
 10
   -16.000
 20
    36.129
 30
  -215.000
 70
    32
  0
VERTEX
  8
0
 10
   -10.667
 20
    36.156
 30
  -215.000
 70
    32
  0
VERTEX
  8
0
 10
    -5.333
 20
    36.172
 30
  -215.000
 70
    32
  0
VERTEX
  8
0
 10
     0.000
 20
    36.177
 30
  -215.000
 70
    32
  0
SEQEND
  8
0
  0
POLYLINE
  8
0
 66
     1
 10
0.0
 20
0.0
 30
0.0
 70
     8
  0
VERTEX
  8
0
 10
     0.000
 20
     0.000
 30
  -191.222
 70
    32
  0
VERTEX
  8
0
 10
    80.000
 20
     0.000
 30
  -191.222
 70
    32
  0
VERTEX
  8
0
 10
    80.000
 20
    35.000
 30
  -191.222
 70
    32
  0
VERTEX
  8
0
 10
    80.000
 20
    35.012
 30
  -191.222
 70
    32
  0
VERTEX
  8
0
 10
    74.667
 20
    35.167
 30
  -191.222
 70
    32
  0
VERTEX
  8
0
 10
    69.333
 20
    35.311
 30
  -191.222
 70
    32
  0
VERTEX
  8
0
 10
    64.000
 20
    35.444
 30
  -191.222
 70
    32
  0
VERTEX
  8
0
 10
    58.667
 20
    35.567
 30
  -191.222
 70
    32
  0
VERTEX
  8
0
 10
    53.333
 20
    35.679
 30
  -191.222
 70
    32
  0
VERTEX
  8
0
 10
    48.000
 20
    35.780
 30
  -191.222
 70
    32
  0
VERTEX
  8
0
 10
    42.667
 20
    35.871
 30
  -191.222
 70
    32
  0
VERTEX
  8
0
 10
    37.333
 20
    35.951
 30
  -191.222
 70
    32
  0
VERTEX
  8
0
 10
    32.000
 20
    36.020
 30
  -191.222
 70
    32
  0
VERTEX
  8
0
 10
    26.667
 20
    36.079
 30
  -191.222
 70
    32
  0
VERTEX
  8
0
 10
    21.333
 20
    36.127
 30
  -191.222
 70
    32
  0
VERTEX
  8
0
 10
    16.000
 20
    36.164
 30
  -191.222
 70
    32
  0
VERTEX
  8
0
 10
    10.667
 20
    36.191
 30
  -191.222
 70
    32
  0
VERTEX
  8
0
 10
     5.333
 20
    36.207
 30
  -191.222
 70
    32
  0
VERTEX
  8
0
 10
     0.000
 20
    36.212
 30
  -191.222
 70
    32
  0
SEQEND
  8
0
  0
POLYLINE
  8
0
 66
     1
 10
0.0
 20
0.0
 30
0.0
 70
     8
  0
VERTEX
  8
0
 10
     0.000
 20
     0.000
 30
  -191.222
 70
    32
  0
VERTEX
  8
0
 10
   -80.000
 20
     0.000
 30
  -191.222
 70
    32
  0
VERTEX
  8
0
 10
   -80.000
 20
    35.000
 30
  -191.222
 70
    32
  0
VERTEX
  8
0
 10
   -80.000
 20
    35.012
 30
  -191.222
 70
    32
  0
VERTEX
  8
0
 10
   -74.667
 20
    35.167
 30
  -191.222
 70
    32
  0
VERTEX
  8
0
 10
   -69.333
 20
    35.311
 30
  -191.222
 70
    32
  0
VERTEX
  8
0
 10
   -64.000
 20
    35.444
 30
  -191.222
 70
    32
  0
VERTEX
  8
0
 10
   -58.667
 20
    35.567
 30
  -191.222
 70
    32
  0
VERTEX
  8
0
 10
   -53.333
 20
    35.679
 30
  -191.222
 70
    32
  0
VERTEX
  8
0
 10
   -48.000
 20
    35.780
 30
  -191.222
 70
    32
  0
VERTEX
  8
0
 10
   -42.667
 20
    35.871
 30
  -191.222
 70
    32
  0
VERTEX
  8
0
 10
   -37.333
 20
    35.951
 30
  -191.222
 70
    32
  0
VERTEX
  8
0
 10
   -32.000
 20
    36.020
 30
  -191.222
 70
    32
  0
VERTEX
  8
0
 10
   -26.667
 20
    36.079
 30
  -191.222
 70
    32
  0
VERTEX
  8
0
 10
   -21.333
 20
    36.127
 30
  -191.222
 70
    32
  0
VERTEX
  8
0
 10
   -16.000
 20
    36.164
 30
  -191.222
 70
    32
  0
VERTEX
  8
0
 10
   -10.667
 20
    36.191
 30
  -191.222
 70
    32
  0
VERTEX
  8
0
 10
    -5.333
 20
    36.207
 30
  -191.222
 70
    32
  0
VERTEX
  8
0
 10
     0.000
 20
    36.212
 30
  -191.222
 70
    32
  0
SEQEND
  8
0
  0
POLYLINE
  8
0
 66
     1
 10
0.0
 20
0.0
 30
0.0
 70
     8
  0
VERTEX
  8
0
 10
     0.000
 20
     0.000
 30
  -167.444
 70
    32
  0
VERTEX
  8
0
 10
    80.000
 20
     0.000
 30
  -167.444
 70
    32
  0
VERTEX
  8
0
 10
    80.000
 20
    35.000
 30
  -167.444
 70
    32
  0
VERTEX
  8
0
 10
    80.000
 20
    35.011
 30
  -167.444
 70
    32
  0
VERTEX
  8
0
 10
    74.667
 20
    35.166
 30
  -167.444
 70
    32
  0
VERTEX
  8
0
 10
    69.333
 20
    35.310
 30
  -167.444
 70
    32
  0
VERTEX
  8
0
 10
    64.000
 20
    35.443
 30
  -167.444
 70
    32
  0
VERTEX
  8
0
 10
    58.667
 20
    35.566
 30
  -167.444
 70
    32
  0
VERTEX
  8
0
 10
    53.333
 20
    35.678
 30
  -167.444
 70
    32
  0
VERTEX
  8
0
 10
    48.000
 20
    35.779
 30
  -167.444
 70
    32
  0
VERTEX
  8
0
 10
    42.667
 20
    35.870
 30
  -167.444
 70
    32
  0
VERTEX
  8
0
 10
    37.333
 20
    35.950
 30
  -167.444
 70
    32
  0
VERTEX
  8
0
 10
    32.000
 20
    36.019
 30
  -167.444
 70
    32
  0
VERTEX
  8
0
 10
    26.667
 20
    36.078
 30
  -167.444
 70
    32
  0
VERTEX
  8
0
 10
    21.333
 20
    36.126
 30
  -167.444
 70
    32
  0
VERTEX
  8
0
 10
    16.000
 20
    36.163
 30
  -167.444
 70
    32
  0
VERTEX
  8
0
 10
    10.667
 20
    36.190
 30
  -167.444
 70
    32
  0
VERTEX
  8
0
 10
     5.333
 20
    36.206
 30
  -167.444
 70
    32
  0
VERTEX
  8
0
 10
     0.000
 20
    36.211
 30
  -167.444
 70
    32
  0
SEQEND
  8
0
  0
POLYLINE
  8
0
 66
     1
 10
0.0
 20
0.0
 30
0.0
 70
     8
  0
VERTEX
  8
0
 10
     0.000
 20
     0.000
 30
  -167.444
 70
    32
  0
VERTEX
  8
0
 10
   -80.000
 20
     0.000
 30
  -167.444
 70
    32
  0
VERTEX
  8
0
 10
   -80.000
 20
    35.000
 30
  -167.444
 70
    32
  0
VERTEX
  8
0
 10
   -80.000
 20
    35.011
 30
  -167.444
 70
    32
  0
VERTEX
  8
0
 10
   -74.667
 20
    35.166
 30
  -167.444
 70
    32
  0
VERTEX
  8
0
 10
   -69.333
 20
    35.310
 30
  -167.444
 70
    32
  0
VERTEX
  8
0
 10
   -64.000
 20
    35.443
 30
  -167.444
 70
    32
  0
VERTEX
  8
0
 10
   -58.667
 20
    35.566
 30
  -167.444
 70
    32
  0
VERTEX
  8
0
 10
   -53.333
 20
    35.678
 30
  -167.444
 70
    32
  0
VERTEX
  8
0
 10
   -48.000
 20
    35.779
 30
  -167.444
 70
    32
  0
VERTEX
  8
0
 10
   -42.667
 20
    35.870
 30
  -167.444
 70
    32
  0
VERTEX
  8
0
 10
   -37.333
 20
    35.950
 30
  -167.444
 70
    32
  0
VERTEX
  8
0
 10
   -32.000
 20
    36.019
 30
  -167.444
 70
    32
  0
VERTEX
  8
0
 10
   -26.667
 20
    36.078
 30
  -167.444
 70
    32
  0
VERTEX
  8
0
 10
   -21.333
 20
    36.126
 30
  -167.444
 70
    32
  0
VERTEX
  8
0
 10
   -16.000
 20
    36.163
 30
  -167.444
 70
    32
  0
VERTEX
  8
0
 10
   -10.667
 20
    36.190
 30
  -167.444
 70
    32
  0
VERTEX
  8
0
 10
    -5.333
 20
    36.206
 30
  -167.444
 70
    32
  0
VERTEX
  8
0
 10
     0.000
 20
    36.211
 30
  -167.444
 70
    32
  0
SEQEND
  8
0
  0
POLYLINE
  8
0
 66
     1
 10
0.0
 20
0.0
 30
0.0
 70
     8
  0
VERTEX
  8
0
 10
     0.000
 20
     0.000
 30
  -143.667
 70
    32
  0
VERTEX
  8
0
 10
    80.000
 20
     0.000
 30
  -143.667
 70
    32
  0
VERTEX
  8
0
 10
    79.917
 20
    35.000
 30
  -143.667
 70
    32
  0
VERTEX
  8
0
 10
    74.667
 20
    35.152
 30
  -143.667
 70
    32
  0
VERTEX
  8
0
 10
    69.333
 20
    35.296
 30
  -143.667
 70
    32
  0
VERTEX
  8
0
 10
    64.000
 20
    35.430
 30
  -143.667
 70
    32
  0
VERTEX
  8
0
 10
    58.667
 20
    35.552
 30
  -143.667
 70
    32
  0
VERTEX
  8
0
 10
    53.333
 20
    35.664
 30
  -143.667
 70
    32
  0
VERTEX
  8
0
 10
    48.000
 20
    35.766
 30
  -143.667
 70
    32
  0
VERTEX
  8
0
 10
    42.667
 20
    35.856
 30
  -143.667
 70
    32
  0
VERTEX
  8
0
 10
    37.333
 20
    35.936
 30
  -143.667
 70
    32
  0
VERTEX
  8
0
 10
    32.000
 20
    36.006
 30
  -143.667
 70
    32
  0
VERTEX
  8
0
 10
    26.667
 20
    36.064
 30
  -143.667
 70
    32
  0
VERTEX
  8
0
 10
    21.333
 20
    36.112
 30
  -143.667
 70
    32
  0
VERTEX
  8
0
 10
    16.000
 20
    36.150
 30
  -143.667
 70
    32
  0
VERTEX
  8
0
 10
    10.667
 20
    36.176
 30
  -143.667
 70
    32
  0
VERTEX
  8
0
 10
     5.333
 20
    36.192
 30
  -143.667
 70
    32
  0
VERTEX
  8
0
 10
     0.000
 20
    36.198
 30
  -143.667
 70
    32
  0
SEQEND
  8
0
  0
POLYLINE
  8
0
 66
     1
 10
0.0
 20
0.0
 30
0.0
 70
     8
  0
VERTEX
  8
0
 10
     0.000
 20
     0.000
 30
  -143.667
 70
    32
  0
VERTEX
  8
0
 10
   -80.000
 20
     0.000
 30
  -143.667
 70
    32
  0
VERTEX
  8
0
 10
   -79.917
 20
    35.000
 30
  -143.667
 70
    32
  0
VERTEX
  8
0
 10
   -74.667
 20
    35.152
 30
  -143.667
 70
    32
  0
VERTEX
  8
0
 10
   -69.333
 20
    35.296
 30
  -143.667
 70
    32
  0
VERTEX
  8
0
 10
   -64.000
 20
    35.430
 30
  -143.667
 70
    32
  0
VERTEX
  8
0
 10
   -58.667
 20
    35.552
 30
  -143.667
 70
    32
  0
VERTEX
  8
0
 10
   -53.333
 20
    35.664
 30
  -143.667
 70
    32
  0
VERTEX
  8
0
 10
   -48.000
 20
    35.766
 30
  -143.667
 70
    32
  0
VERTEX
  8
0
 10
   -42.667
 20
    35.856
 30
  -143.667
 70
    32
  0
VERTEX
  8
0
 10
   -37.333
 20
    35.936
 30
  -143.667
 70
    32
  0
VERTEX
  8
0
 10
   -32.000
 20
    36.006
 30
  -143.667
 70
    32
  0
VERTEX
  8
0
 10
   -26.667
 20
    36.064
 30
  -143.667
 70
    32
  0
VERTEX
  8
0
 10
   -21.333
 20
    36.112
 30
  -143.667
 70
    32
  0
VERTEX
  8
0
 10
   -16.000
 20
    36.150
 30
  -143.667
 70
    32
  0
VERTEX
  8
0
 10
   -10.667
 20
    36.176
 30
  -143.667
 70
    32
  0
VERTEX
  8
0
 10
    -5.333
 20
    36.192
 30
  -143.667
 70
    32
  0
VERTEX
  8
0
 10
     0.000
 20
    36.198
 30
  -143.667
 70
    32
  0
SEQEND
  8
0
  0
POLYLINE
  8
0
 66
     1
 10
0.0
 20
0.0
 30
0.0
 70
     8
  0
VERTEX
  8
0
 10
     0.000
 20
     0.000
 30
  -119.889
 70
    32
  0
VERTEX
  8
0
 10
    80.000
 20
     0.000
 30
  -119.889
 70
    32
  0
VERTEX
  8
0
 10
    79.888
 20
    35.000
 30
  -119.889
 70
    32
  0
VERTEX
  8
0
 10
    74.667
 20
    35.151
 30
  -119.889
 70
    32
  0
VERTEX
  8
0
 10
    69.333
 20
    35.295
 30
  -119.889
 70
    32
  0
VERTEX
  8
0
 10
    64.000
 20
    35.429
 30
  -119.889
 70
    32
  0
VERTEX
  8
0
 10
    58.667
 20
    35.551
 30
  -119.889
 70
    32
  0
VERTEX
  8
0
 10
    53.333
 20
    35.663
 30
  -119.889
 70
    32
  0
VERTEX
  8
0
 10
    48.000
 20
    35.765
 30
  -119.889
 70
    32
  0
VERTEX
  8
0
 10
    42.667
 20
    35.855
 30
  -119.889
 70
    32
  0
VERTEX
  8
0
 10
    37.333
 20
    35.935
 30
  -119.889
 70
    32
  0
VERTEX
  8
0
 10
    32.000
 20
    36.005
 30
  -119.889
 70
    32
  0
VERTEX
  8
0
 10
    26.667
 20
    36.063
 30
  -119.889
 70
    32
  0
VERTEX
  8
0
 10
    21.333
 20
    36.111
 30
  -119.889
 70
    32
  0
VERTEX
  8
0
 10
    16.000
 20
    36.149
 30
  -119.889
 70
    32
  0
VERTEX
  8
0
 10
    10.667
 20
    36.175
 30
  -119.889
 70
    32
  0
VERTEX
  8
0
 10
     5.333
 20
    36.191
 30
  -119.889
 70
    32
  0
VERTEX
  8
0
 10
     0.000
 20
    36.197
 30
  -119.889
 70
    32
  0
SEQEND
  8
0
  0
POLYLINE
  8
0
 66
     1
 10
0.0
 20
0.0
 30
0.0
 70
     8
  0
VERTEX
  8
0
 10
     0.000
 20
     0.000
 30
  -119.889
 70
    32
  0
VERTEX
  8
0
 10
   -80.000
 20
     0.000
 30
  -119.889
 70
    32
  0
VERTEX
  8
0
 10
   -79.888
 20
    35.000
 30
  -119.889
 70
    32
  0
VERTEX
  8
0
 10
   -74.667
 20
    35.151
 30
  -119.889
 70
    32
  0
VERTEX
  8
0
 10
   -69.333
 20
    35.295
 30
  -119.889
 70
    32
  0
VERTEX
  8
0
 10
   -64.000
 20
    35.429
 30
  -119.889
 70
    32
  0
VERTEX
  8
0
 10
   -58.667
 20
    35.551
 30
  -119.889
 70
    32
  0
VERTEX
  8
0
 10
   -53.333
 20
    35.663
 30
  -119.889
 70
    32
  0
VERTEX
  8
0
 10
   -48.000
 20
    35.765
 30
  -119.889
 70
    32
  0
VERTEX
  8
0
 10
   -42.667
 20
    35.855
 30
  -119.889
 70
    32
  0
VERTEX
  8
0
 10
   -37.333
 20
    35.935
 30
  -119.889
 70
    32
  0
VERTEX
  8
0
 10
   -32.000
 20
    36.005
 30
  -119.889
 70
    32
  0
VERTEX
  8
0
 10
   -26.667
 20
    36.063
 30
  -119.889
 70
    32
  0
VERTEX
  8
0
 10
   -21.333
 20
    36.111
 30
  -119.889
 70
    32
  0
VERTEX
  8
0
 10
   -16.000
 20
    36.149
 30
  -119.889
 70
    32
  0
VERTEX
  8
0
 10
   -10.667
 20
    36.175
 30
  -119.889
 70
    32
  0
VERTEX
  8
0
 10
    -5.333
 20
    36.191
 30
  -119.889
 70
    32
  0
VERTEX
  8
0
 10
     0.000
 20
    36.197
 30
  -119.889
 70
    32
  0
SEQEND
  8
0
  0
POLYLINE
  8
0
 66
     1
 10
0.0
 20
0.0
 30
0.0
 70
     8
  0
VERTEX
  8
0
 10
     0.000
 20
     0.000
 30
   -96.111
 70
    32
  0
VERTEX
  8
0
 10
    80.000
 20
     0.000
 30
   -96.111
 70
    32
  0
VERTEX
  8
0
 10
    80.000
 20
    35.000
 30
   -96.111
 70
    32
  0
VERTEX
  8
0
 10
    80.000
 20
    35.000
 30
   -96.111
 70
    32
  0
VERTEX
  8
0
 10
    74.667
 20
    35.155
 30
   -96.111
 70
    32
  0
VERTEX
  8
0
 10
    69.333
 20
    35.299
 30
   -96.111
 70
    32
  0
VERTEX
  8
0
 10
    64.000
 20
    35.432
 30
   -96.111
 70
    32
  0
VERTEX
  8
0
 10
    58.667
 20
    35.555
 30
   -96.111
 70
    32
  0
VERTEX
  8
0
 10
    53.333
 20
    35.667
 30
   -96.111
 70
    32
  0
VERTEX
  8
0
 10
    48.000
 20
    35.768
 30
   -96.111
 70
    32
  0
VERTEX
  8
0
 10
    42.667
 20
    35.859
 30
   -96.111
 70
    32
  0
VERTEX
  8
0
 10
    37.333
 20
    35.939
 30
   -96.111
 70
    32
  0
VERTEX
  8
0
 10
    32.000
 20
    36.008
 30
   -96.111
 70
    32
  0
VERTEX
  8
0
 10
    26.667
 20
    36.067
 30
   -96.111
 70
    32
  0
VERTEX
  8
0
 10
    21.333
 20
    36.115
 30
   -96.111
 70
    32
  0
VERTEX
  8
0
 10
    16.000
 20
    36.152
 30
   -96.111
 70
    32
  0
VERTEX
  8
0
 10
    10.667
 20
    36.179
 30
   -96.111
 70
    32
  0
VERTEX
  8
0
 10
     5.333
 20
    36.195
 30
   -96.111
 70
    32
  0
VERTEX
  8
0
 10
     0.000
 20
    36.200
 30
   -96.111
 70
    32
  0
SEQEND
  8
0
  0
POLYLINE
  8
0
 66
     1
 10
0.0
 20
0.0
 30
0.0
 70
     8
  0
VERTEX
  8
0
 10
     0.000
 20
     0.000
 30
   -96.111
 70
    32
  0
VERTEX
  8
0
 10
   -80.000
 20
     0.000
 30
   -96.111
 70
    32
  0
VERTEX
  8
0
 10
   -80.000
 20
    35.000
 30
   -96.111
 70
    32
  0
VERTEX
  8
0
 10
   -80.000
 20
    35.000
 30
   -96.111
 70
    32
  0
VERTEX
  8
0
 10
   -74.667
 20
    35.155
 30
   -96.111
 70
    32
  0
VERTEX
  8
0
 10
   -69.333
 20
    35.299
 30
   -96.111
 70
    32
  0
VERTEX
  8
0
 10
   -64.000
 20
    35.432
 30
   -96.111
 70
    32
  0
VERTEX
  8
0
 10
   -58.667
 20
    35.555
 30
   -96.111
 70
    32
  0
VERTEX
  8
0
 10
   -53.333
 20
    35.667
 30
   -96.111
 70
    32
  0
VERTEX
  8
0
 10
   -48.000
 20
    35.768
 30
   -96.111
 70
    32
  0
VERTEX
  8
0
 10
   -42.667
 20
    35.859
 30
   -96.111
 70
    32
  0
VERTEX
  8
0
 10
   -37.333
 20
    35.939
 30
   -96.111
 70
    32
  0
VERTEX
  8
0
 10
   -32.000
 20
    36.008
 30
   -96.111
 70
    32
  0
VERTEX
  8
0
 10
   -26.667
 20
    36.067
 30
   -96.111
 70
    32
  0
VERTEX
  8
0
 10
   -21.333
 20
    36.115
 30
   -96.111
 70
    32
  0
VERTEX
  8
0
 10
   -16.000
 20
    36.152
 30
   -96.111
 70
    32
  0
VERTEX
  8
0
 10
   -10.667
 20
    36.179
 30
   -96.111
 70
    32
  0
VERTEX
  8
0
 10
    -5.333
 20
    36.195
 30
   -96.111
 70
    32
  0
VERTEX
  8
0
 10
     0.000
 20
    36.200
 30
   -96.111
 70
    32
  0
SEQEND
  8
0
  0
POLYLINE
  8
0
 66
     1
 10
0.0
 20
0.0
 30
0.0
 70
     8
  0
VERTEX
  8
0
 10
     0.000
 20
     0.000
 30
   -72.333
 70
    32
  0
VERTEX
  8
0
 10
    80.000
 20
     0.000
 30
   -72.333
 70
    32
  0
VERTEX
  8
0
 10
    80.000
 20
    35.000
 30
   -72.333
 70
    32
  0
VERTEX
  8
0
 10
    80.000
 20
    35.001
 30
   -72.333
 70
    32
  0
VERTEX
  8
0
 10
    74.667
 20
    35.156
 30
   -72.333
 70
    32
  0
VERTEX
  8
0
 10
    69.333
 20
    35.300
 30
   -72.333
 70
    32
  0
VERTEX
  8
0
 10
    64.000
 20
    35.433
 30
   -72.333
 70
    32
  0
VERTEX
  8
0
 10
    58.667
 20
    35.556
 30
   -72.333
 70
    32
  0
VERTEX
  8
0
 10
    53.333
 20
    35.668
 30
   -72.333
 70
    32
  0
VERTEX
  8
0
 10
    48.000
 20
    35.769
 30
   -72.333
 70
    32
  0
VERTEX
  8
0
 10
    42.667
 20
    35.860
 30
   -72.333
 70
    32
  0
VERTEX
  8
0
 10
    37.333
 20
    35.940
 30
   -72.333
 70
    32
  0
VERTEX
  8
0
 10
    32.000
 20
    36.009
 30
   -72.333
 70
    32
  0
VERTEX
  8
0
 10
    26.667
 20
    36.068
 30
   -72.333
 70
    32
  0
VERTEX
  8
0
 10
    21.333
 20
    36.116
 30
   -72.333
 70
    32
  0
VERTEX
  8
0
 10
    16.000
 20
    36.153
 30
   -72.333
 70
    32
  0
VERTEX
  8
0
 10
    10.667
 20
    36.180
 30
   -72.333
 70
    32
  0
VERTEX
  8
0
 10
     5.333
 20
    36.196
 30
   -72.333
 70
    32
  0
VERTEX
  8
0
 10
     0.000
 20
    36.201
 30
   -72.333
 70
    32
  0
SEQEND
  8
0
  0
POLYLINE
  8
0
 66
     1
 10
0.0
 20
0.0
 30
0.0
 70
     8
  0
VERTEX
  8
0
 10
     0.000
 20
     0.000
 30
   -72.333
 70
    32
  0
VERTEX
  8
0
 10
   -80.000
 20
     0.000
 30
   -72.333
 70
    32
  0
VERTEX
  8
0
 10
   -80.000
 20
    35.000
 30
   -72.333
 70
    32
  0
VERTEX
  8
0
 10
   -80.000
 20
    35.001
 30
   -72.333
 70
    32
  0
VERTEX
  8
0
 10
   -74.667
 20
    35.156
 30
   -72.333
 70
    32
  0
VERTEX
  8
0
 10
   -69.333
 20
    35.300
 30
   -72.333
 70
    32
  0
VERTEX
  8
0
 10
   -64.000
 20
    35.433
 30
   -72.333
 70
    32
  0
VERTEX
  8
0
 10
   -58.667
 20
    35.556
 30
   -72.333
 70
    32
  0
VERTEX
  8
0
 10
   -53.333
 20
    35.668
 30
   -72.333
 70
    32
  0
VERTEX
  8
0
 10
   -48.000
 20
    35.769
 30
   -72.333
 70
    32
  0
VERTEX
  8
0
 10
   -42.667
 20
    35.860
 30
   -72.333
 70
    32
  0
VERTEX
  8
0
 10
   -37.333
 20
    35.940
 30
   -72.333
 70
    32
  0
VERTEX
  8
0
 10
   -32.000
 20
    36.009
 30
   -72.333
 70
    32
  0
VERTEX
  8
0
 10
   -26.667
 20
    36.068
 30
   -72.333
 70
    32
  0
VERTEX
  8
0
 10
   -21.333
 20
    36.116
 30
   -72.333
 70
    32
  0
VERTEX
  8
0
 10
   -16.000
 20
    36.153
 30
   -72.333
 70
    32
  0
VERTEX
  8
0
 10
   -10.667
 20
    36.180
 30
   -72.333
 70
    32
  0
VERTEX
  8
0
 10
    -5.333
 20
    36.196
 30
   -72.333
 70
    32
  0
VERTEX
  8
0
 10
     0.000
 20
    36.201
 30
   -72.333
 70
    32
  0
SEQEND
  8
0
  0
POLYLINE
  8
0
 66
     1
 10
0.0
 20
0.0
 30
0.0
 70
     8
  0
VERTEX
  8
0
 10
     0.000
 20
     0.000
 30
   -48.556
 70
    32
  0
VERTEX
  8
0
 10
    80.000
 20
     0.000
 30
   -48.556
 70
    32
  0
VERTEX
  8
0
 10
    79.998
 20
    35.000
 30
   -48.556
 70
    32
  0
VERTEX
  8
0
 10
    74.667
 20
    35.155
 30
   -48.556
 70
    32
  0
VERTEX
  8
0
 10
    69.333
 20
    35.299
 30
   -48.556
 70
    32
  0
VERTEX
  8
0
 10
    64.000
 20
    35.432
 30
   -48.556
 70
    32
  0
VERTEX
  8
0
 10
    58.667
 20
    35.555
 30
   -48.556
 70
    32
  0
VERTEX
  8
0
 10
    53.333
 20
    35.667
 30
   -48.556
 70
    32
  0
VERTEX
  8
0
 10
    48.000
 20
    35.768
 30
   -48.556
 70
    32
  0
VERTEX
  8
0
 10
    42.667
 20
    35.859
 30
   -48.556
 70
    32
  0
VERTEX
  8
0
 10
    37.333
 20
    35.939
 30
   -48.556
 70
    32
  0
VERTEX
  8
0
 10
    32.000
 20
    36.008
 30
   -48.556
 70
    32
  0
VERTEX
  8
0
 10
    26.667
 20
    36.067
 30
   -48.556
 70
    32
  0
VERTEX
  8
0
 10
    21.333
 20
    36.115
 30
   -48.556
 70
    32
  0
VERTEX
  8
0
 10
    16.000
 20
    36.152
 30
   -48.556
 70
    32
  0
VERTEX
  8
0
 10
    10.667
 20
    36.179
 30
   -48.556
 70
    32
  0
VERTEX
  8
0
 10
     5.333
 20
    36.195
 30
   -48.556
 70
    32
  0
VERTEX
  8
0
 10
     0.000
 20
    36.200
 30
   -48.556
 70
    32
  0
SEQEND
  8
0
  0
POLYLINE
  8
0
 66
     1
 10
0.0
 20
0.0
 30
0.0
 70
     8
  0
VERTEX
  8
0
 10
     0.000
 20
     0.000
 30
   -48.556
 70
    32
  0
VERTEX
  8
0
 10
   -80.000
 20
     0.000
 30
   -48.556
 70
    32
  0
VERTEX
  8
0
 10
   -79.998
 20
    35.000
 30
   -48.556
 70
    32
  0
VERTEX
  8
0
 10
   -74.667
 20
    35.155
 30
   -48.556
 70
    32
  0
VERTEX
  8
0
 10
   -69.333
 20
    35.299
 30
   -48.556
 70
    32
  0
VERTEX
  8
0
 10
   -64.000
 20
    35.432
 30
   -48.556
 70
    32
  0
VERTEX
  8
0
 10
   -58.667
 20
    35.555
 30
   -48.556
 70
    32
  0
VERTEX
  8
0
 10
   -53.333
 20
    35.667
 30
   -48.556
 70
    32
  0
VERTEX
  8
0
 10
   -48.000
 20
    35.768
 30
   -48.556
 70
    32
  0
VERTEX
  8
0
 10
   -42.667
 20
    35.859
 30
   -48.556
 70
    32
  0
VERTEX
  8
0
 10
   -37.333
 20
    35.939
 30
   -48.556
 70
    32
  0
VERTEX
  8
0
 10
   -32.000
 20
    36.008
 30
   -48.556
 70
    32
  0
VERTEX
  8
0
 10
   -26.667
 20
    36.067
 30
   -48.556
 70
    32
  0
VERTEX
  8
0
 10
   -21.333
 20
    36.115
 30
   -48.556
 70
    32
  0
VERTEX
  8
0
 10
   -16.000
 20
    36.152
 30
   -48.556
 70
    32
  0
VERTEX
  8
0
 10
   -10.667
 20
    36.179
 30
   -48.556
 70
    32
  0
VERTEX
  8
0
 10
    -5.333
 20
    36.195
 30
   -48.556
 70
    32
  0
VERTEX
  8
0
 10
     0.000
 20
    36.200
 30
   -48.556
 70
    32
  0
SEQEND
  8
0
  0
POLYLINE
  8
0
 66
     1
 10
0.0
 20
0.0
 30
0.0
 70
     8
  0
VERTEX
  8
0
 10
     0.000
 20
     0.000
 30
   -24.778
 70
    32
  0
VERTEX
  8
0
 10
    80.000
 20
     0.000
 30
   -24.778
 70
    32
  0
VERTEX
  8
0
 10
    79.993
 20
    35.000
 30
   -24.778
 70
    32
  0
VERTEX
  8
0
 10
    74.667
 20
    35.154
 30
   -24.778
 70
    32
  0
VERTEX
  8
0
 10
    69.333
 20
    35.298
 30
   -24.778
 70
    32
  0
VERTEX
  8
0
 10
    64.000
 20
    35.432
 30
   -24.778
 70
    32
  0
VERTEX
  8
0
 10
    58.667
 20
    35.554
 30
   -24.778
 70
    32
  0
VERTEX
  8
0
 10
    53.333
 20
    35.666
 30
   -24.778
 70
    32
  0
VERTEX
  8
0
 10
    48.000
 20
    35.768
 30
   -24.778
 70
    32
  0
VERTEX
  8
0
 10
    42.667
 20
    35.858
 30
   -24.778
 70
    32
  0
VERTEX
  8
0
 10
    37.333
 20
    35.938
 30
   -24.778
 70
    32
  0
VERTEX
  8
0
 10
    32.000
 20
    36.008
 30
   -24.778
 70
    32
  0
VERTEX
  8
0
 10
    26.667
 20
    36.066
 30
   -24.778
 70
    32
  0
VERTEX
  8
0
 10
    21.333
 20
    36.114
 30
   -24.778
 70
    32
  0
VERTEX
  8
0
 10
    16.000
 20
    36.152
 30
   -24.778
 70
    32
  0
VERTEX
  8
0
 10
    10.667
 20
    36.178
 30
   -24.778
 70
    32
  0
VERTEX
  8
0
 10
     5.333
 20
    36.194
 30
   -24.778
 70
    32
  0
VERTEX
  8
0
 10
     0.000
 20
    36.200
 30
   -24.778
 70
    32
  0
SEQEND
  8
0
  0
POLYLINE
  8
0
 66
     1
 10
0.0
 20
0.0
 30
0.0
 70
     8
  0
VERTEX
  8
0
 10
     0.000
 20
     0.000
 30
   -24.778
 70
    32
  0
VERTEX
  8
0
 10
   -80.000
 20
     0.000
 30
   -24.778
 70
    32
  0
VERTEX
  8
0
 10
   -79.993
 20
    35.000
 30
   -24.778
 70
    32
  0
VERTEX
  8
0
 10
   -74.667
 20
    35.154
 30
   -24.778
 70
    32
  0
VERTEX
  8
0
 10
   -69.333
 20
    35.298
 30
   -24.778
 70
    32
  0
VERTEX
  8
0
 10
   -64.000
 20
    35.432
 30
   -24.778
 70
    32
  0
VERTEX
  8
0
 10
   -58.667
 20
    35.554
 30
   -24.778
 70
    32
  0
VERTEX
  8
0
 10
   -53.333
 20
    35.666
 30
   -24.778
 70
    32
  0
VERTEX
  8
0
 10
   -48.000
 20
    35.768
 30
   -24.778
 70
    32
  0
VERTEX
  8
0
 10
   -42.667
 20
    35.858
 30
   -24.778
 70
    32
  0
VERTEX
  8
0
 10
   -37.333
 20
    35.938
 30
   -24.778
 70
    32
  0
VERTEX
  8
0
 10
   -32.000
 20
    36.008
 30
   -24.778
 70
    32
  0
VERTEX
  8
0
 10
   -26.667
 20
    36.066
 30
   -24.778
 70
    32
  0
VERTEX
  8
0
 10
   -21.333
 20
    36.114
 30
   -24.778
 70
    32
  0
VERTEX
  8
0
 10
   -16.000
 20
    36.152
 30
   -24.778
 70
    32
  0
VERTEX
  8
0
 10
   -10.667
 20
    36.178
 30
   -24.778
 70
    32
  0
VERTEX
  8
0
 10
    -5.333
 20
    36.194
 30
   -24.778
 70
    32
  0
VERTEX
  8
0
 10
     0.000
 20
    36.200
 30
   -24.778
 70
    32
  0
SEQEND
  8
0
  0
POLYLINE
  8
0
 66
     1
 10
0.0
 20
0.0
 30
0.0
 70
     8
  0
VERTEX
  8
0
 10
     0.000
 20
     0.000
 30
    -1.000
 70
    32
  0
VERTEX
  8
0
 10
    80.000
 20
     0.000
 30
    -1.000
 70
    32
  0
VERTEX
  8
0
 10
    80.000
 20
    35.000
 30
    -1.000
 70
    32
  0
VERTEX
  8
0
 10
    74.667
 20
    35.155
 30
    -1.000
 70
    32
  0
VERTEX
  8
0
 10
    69.333
 20
    35.299
 30
    -1.000
 70
    32
  0
VERTEX
  8
0
 10
    64.000
 20
    35.432
 30
    -1.000
 70
    32
  0
VERTEX
  8
0
 10
    58.667
 20
    35.555
 30
    -1.000
 70
    32
  0
VERTEX
  8
0
 10
    53.333
 20
    35.667
 30
    -1.000
 70
    32
  0
VERTEX
  8
0
 10
    48.000
 20
    35.768
 30
    -1.000
 70
    32
  0
VERTEX
  8
0
 10
    42.667
 20
    35.859
 30
    -1.000
 70
    32
  0
VERTEX
  8
0
 10
    37.333
 20
    35.939
 30
    -1.000
 70
    32
  0
VERTEX
  8
0
 10
    32.000
 20
    36.008
 30
    -1.000
 70
    32
  0
VERTEX
  8
0
 10
    26.667
 20
    36.067
 30
    -1.000
 70
    32
  0
VERTEX
  8
0
 10
    21.333
 20
    36.115
 30
    -1.000
 70
    32
  0
VERTEX
  8
0
 10
    16.000
 20
    36.152
 30
    -1.000
 70
    32
  0
VERTEX
  8
0
 10
    10.667
 20
    36.179
 30
    -1.000
 70
    32
  0
VERTEX
  8
0
 10
     5.333
 20
    36.195
 30
    -1.000
 70
    32
  0
VERTEX
  8
0
 10
     0.000
 20
    36.200
 30
    -1.000
 70
    32
  0
SEQEND
  8
0
  0
POLYLINE
  8
0
 66
     1
 10
0.0
 20
0.0
 30
0.0
 70
     8
  0
VERTEX
  8
0
 10
     0.000
 20
     0.000
 30
    -1.000
 70
    32
  0
VERTEX
  8
0
 10
   -80.000
 20
     0.000
 30
    -1.000
 70
    32
  0
VERTEX
  8
0
 10
   -80.000
 20
    35.000
 30
    -1.000
 70
    32
  0
VERTEX
  8
0
 10
   -74.667
 20
    35.155
 30
    -1.000
 70
    32
  0
VERTEX
  8
0
 10
   -69.333
 20
    35.299
 30
    -1.000
 70
    32
  0
VERTEX
  8
0
 10
   -64.000
 20
    35.432
 30
    -1.000
 70
    32
  0
VERTEX
  8
0
 10
   -58.667
 20
    35.555
 30
    -1.000
 70
    32
  0
VERTEX
  8
0
 10
   -53.333
 20
    35.667
 30
    -1.000
 70
    32
  0
VERTEX
  8
0
 10
   -48.000
 20
    35.768
 30
    -1.000
 70
    32
  0
VERTEX
  8
0
 10
   -42.667
 20
    35.859
 30
    -1.000
 70
    32
  0
VERTEX
  8
0
 10
   -37.333
 20
    35.939
 30
    -1.000
 70
    32
  0
VERTEX
  8
0
 10
   -32.000
 20
    36.008
 30
    -1.000
 70
    32
  0
VERTEX
  8
0
 10
   -26.667
 20
    36.067
 30
    -1.000
 70
    32
  0
VERTEX
  8
0
 10
   -21.333
 20
    36.115
 30
    -1.000
 70
    32
  0
VERTEX
  8
0
 10
   -16.000
 20
    36.152
 30
    -1.000
 70
    32
  0
VERTEX
  8
0
 10
   -10.667
 20
    36.179
 30
    -1.000
 70
    32
  0
VERTEX
  8
0
 10
    -5.333
 20
    36.195
 30
    -1.000
 70
    32
  0
VERTEX
  8
0
 10
     0.000
 20
    36.200
 30
    -1.000
 70
    32
  0
SEQEND
  8
0
  0
POLYLINE
  8
0
 66
     1
 10
0.0
 20
0.0
 30
0.0
 70
     8
  0
VERTEX
  8
0
 10
     0.000
 20
     0.000
 30
    22.778
 70
    32
  0
VERTEX
  8
0
 10
    80.000
 20
     0.000
 30
    22.778
 70
    32
  0
VERTEX
  8
0
 10
    79.995
 20
    35.000
 30
    22.778
 70
    32
  0
VERTEX
  8
0
 10
    74.667
 20
    35.155
 30
    22.778
 70
    32
  0
VERTEX
  8
0
 10
    69.333
 20
    35.299
 30
    22.778
 70
    32
  0
VERTEX
  8
0
 10
    64.000
 20
    35.432
 30
    22.778
 70
    32
  0
VERTEX
  8
0
 10
    58.667
 20
    35.555
 30
    22.778
 70
    32
  0
VERTEX
  8
0
 10
    53.333
 20
    35.667
 30
    22.778
 70
    32
  0
VERTEX
  8
0
 10
    48.000
 20
    35.768
 30
    22.778
 70
    32
  0
VERTEX
  8
0
 10
    42.667
 20
    35.859
 30
    22.778
 70
    32
  0
VERTEX
  8
0
 10
    37.333
 20
    35.939
 30
    22.778
 70
    32
  0
VERTEX
  8
0
 10
    32.000
 20
    36.008
 30
    22.778
 70
    32
  0
VERTEX
  8
0
 10
    26.667
 20
    36.067
 30
    22.778
 70
    32
  0
VERTEX
  8
0
 10
    21.333
 20
    36.115
 30
    22.778
 70
    32
  0
VERTEX
  8
0
 10
    16.000
 20
    36.152
 30
    22.778
 70
    32
  0
VERTEX
  8
0
 10
    10.667
 20
    36.179
 30
    22.778
 70
    32
  0
VERTEX
  8
0
 10
     5.333
 20
    36.195
 30
    22.778
 70
    32
  0
VERTEX
  8
0
 10
     0.000
 20
    36.200
 30
    22.778
 70
    32
  0
SEQEND
  8
0
  0
POLYLINE
  8
0
 66
     1
 10
0.0
 20
0.0
 30
0.0
 70
     8
  0
VERTEX
  8
0
 10
     0.000
 20
     0.000
 30
    22.778
 70
    32
  0
VERTEX
  8
0
 10
   -80.000
 20
     0.000
 30
    22.778
 70
    32
  0
VERTEX
  8
0
 10
   -79.995
 20
    35.000
 30
    22.778
 70
    32
  0
VERTEX
  8
0
 10
   -74.667
 20
    35.155
 30
    22.778
 70
    32
  0
VERTEX
  8
0
 10
   -69.333
 20
    35.299
 30
    22.778
 70
    32
  0
VERTEX
  8
0
 10
   -64.000
 20
    35.432
 30
    22.778
 70
    32
  0
VERTEX
  8
0
 10
   -58.667
 20
    35.555
 30
    22.778
 70
    32
  0
VERTEX
  8
0
 10
   -53.333
 20
    35.667
 30
    22.778
 70
    32
  0
VERTEX
  8
0
 10
   -48.000
 20
    35.768
 30
    22.778
 70
    32
  0
VERTEX
  8
0
 10
   -42.667
 20
    35.859
 30
    22.778
 70
    32
  0
VERTEX
  8
0
 10
   -37.333
 20
    35.939
 30
    22.778
 70
    32
  0
VERTEX
  8
0
 10
   -32.000
 20
    36.008
 30
    22.778
 70
    32
  0
VERTEX
  8
0
 10
   -26.667
 20
    36.067
 30
    22.778
 70
    32
  0
VERTEX
  8
0
 10
   -21.333
 20
    36.115
 30
    22.778
 70
    32
  0
VERTEX
  8
0
 10
   -16.000
 20
    36.152
 30
    22.778
 70
    32
  0
VERTEX
  8
0
 10
   -10.667
 20
    36.179
 30
    22.778
 70
    32
  0
VERTEX
  8
0
 10
    -5.333
 20
    36.195
 30
    22.778
 70
    32
  0
VERTEX
  8
0
 10
     0.000
 20
    36.200
 30
    22.778
 70
    32
  0
SEQEND
  8
0
  0
POLYLINE
  8
0
 66
     1
 10
0.0
 20
0.0
 30
0.0
 70
     8
  0
VERTEX
  8
0
 10
     0.000
 20
     0.000
 30
    46.556
 70
    32
  0
VERTEX
  8
0
 10
    80.000
 20
     0.000
 30
    46.556
 70
    32
  0
VERTEX
  8
0
 10
    79.997
 20
    35.000
 30
    46.556
 70
    32
  0
VERTEX
  8
0
 10
    74.667
 20
    35.155
 30
    46.556
 70
    32
  0
VERTEX
  8
0
 10
    69.333
 20
    35.299
 30
    46.556
 70
    32
  0
VERTEX
  8
0
 10
    64.000
 20
    35.432
 30
    46.556
 70
    32
  0
VERTEX
  8
0
 10
    58.667
 20
    35.555
 30
    46.556
 70
    32
  0
VERTEX
  8
0
 10
    53.333
 20
    35.667
 30
    46.556
 70
    32
  0
VERTEX
  8
0
 10
    48.000
 20
    35.768
 30
    46.556
 70
    32
  0
VERTEX
  8
0
 10
    42.667
 20
    35.859
 30
    46.556
 70
    32
  0
VERTEX
  8
0
 10
    37.333
 20
    35.939
 30
    46.556
 70
    32
  0
VERTEX
  8
0
 10
    32.000
 20
    36.008
 30
    46.556
 70
    32
  0
VERTEX
  8
0
 10
    26.667
 20
    36.067
 30
    46.556
 70
    32
  0
VERTEX
  8
0
 10
    21.333
 20
    36.115
 30
    46.556
 70
    32
  0
VERTEX
  8
0
 10
    16.000
 20
    36.152
 30
    46.556
 70
    32
  0
VERTEX
  8
0
 10
    10.667
 20
    36.179
 30
    46.556
 70
    32
  0
VERTEX
  8
0
 10
     5.333
 20
    36.195
 30
    46.556
 70
    32
  0
VERTEX
  8
0
 10
     0.000
 20
    36.200
 30
    46.556
 70
    32
  0
SEQEND
  8
0
  0
POLYLINE
  8
0
 66
     1
 10
0.0
 20
0.0
 30
0.0
 70
     8
  0
VERTEX
  8
0
 10
     0.000
 20
     0.000
 30
    46.556
 70
    32
  0
VERTEX
  8
0
 10
   -80.000
 20
     0.000
 30
    46.556
 70
    32
  0
VERTEX
  8
0
 10
   -79.997
 20
    35.000
 30
    46.556
 70
    32
  0
VERTEX
  8
0
 10
   -74.667
 20
    35.155
 30
    46.556
 70
    32
  0
VERTEX
  8
0
 10
   -69.333
 20
    35.299
 30
    46.556
 70
    32
  0
VERTEX
  8
0
 10
   -64.000
 20
    35.432
 30
    46.556
 70
    32
  0
VERTEX
  8
0
 10
   -58.667
 20
    35.555
 30
    46.556
 70
    32
  0
VERTEX
  8
0
 10
   -53.333
 20
    35.667
 30
    46.556
 70
    32
  0
VERTEX
  8
0
 10
   -48.000
 20
    35.768
 30
    46.556
 70
    32
  0
VERTEX
  8
0
 10
   -42.667
 20
    35.859
 30
    46.556
 70
    32
  0
VERTEX
  8
0
 10
   -37.333
 20
    35.939
 30
    46.556
 70
    32
  0
VERTEX
  8
0
 10
   -32.000
 20
    36.008
 30
    46.556
 70
    32
  0
VERTEX
  8
0
 10
   -26.667
 20
    36.067
 30
    46.556
 70
    32
  0
VERTEX
  8
0
 10
   -21.333
 20
    36.115
 30
    46.556
 70
    32
  0
VERTEX
  8
0
 10
   -16.000
 20
    36.152
 30
    46.556
 70
    32
  0
VERTEX
  8
0
 10
   -10.667
 20
    36.179
 30
    46.556
 70
    32
  0
VERTEX
  8
0
 10
    -5.333
 20
    36.195
 30
    46.556
 70
    32
  0
VERTEX
  8
0
 10
     0.000
 20
    36.200
 30
    46.556
 70
    32
  0
SEQEND
  8
0
  0
POLYLINE
  8
0
 66
     1
 10
0.0
 20
0.0
 30
0.0
 70
     8
  0
VERTEX
  8
0
 10
     0.000
 20
     0.000
 30
    70.333
 70
    32
  0
VERTEX
  8
0
 10
    80.000
 20
     0.000
 30
    70.333
 70
    32
  0
VERTEX
  8
0
 10
    80.000
 20
    35.000
 30
    70.333
 70
    32
  0
VERTEX
  8
0
 10
    80.000
 20
    35.001
 30
    70.333
 70
    32
  0
VERTEX
  8
0
 10
    74.667
 20
    35.156
 30
    70.333
 70
    32
  0
VERTEX
  8
0
 10
    69.333
 20
    35.300
 30
    70.333
 70
    32
  0
VERTEX
  8
0
 10
    64.000
 20
    35.433
 30
    70.333
 70
    32
  0
VERTEX
  8
0
 10
    58.667
 20
    35.556
 30
    70.333
 70
    32
  0
VERTEX
  8
0
 10
    53.333
 20
    35.668
 30
    70.333
 70
    32
  0
VERTEX
  8
0
 10
    48.000
 20
    35.769
 30
    70.333
 70
    32
  0
VERTEX
  8
0
 10
    42.667
 20
    35.860
 30
    70.333
 70
    32
  0
VERTEX
  8
0
 10
    37.333
 20
    35.940
 30
    70.333
 70
    32
  0
VERTEX
  8
0
 10
    32.000
 20
    36.009
 30
    70.333
 70
    32
  0
VERTEX
  8
0
 10
    26.667
 20
    36.068
 30
    70.333
 70
    32
  0
VERTEX
  8
0
 10
    21.333
 20
    36.116
 30
    70.333
 70
    32
  0
VERTEX
  8
0
 10
    16.000
 20
    36.153
 30
    70.333
 70
    32
  0
VERTEX
  8
0
 10
    10.667
 20
    36.180
 30
    70.333
 70
    32
  0
VERTEX
  8
0
 10
     5.333
 20
    36.196
 30
    70.333
 70
    32
  0
VERTEX
  8
0
 10
     0.000
 20
    36.201
 30
    70.333
 70
    32
  0
SEQEND
  8
0
  0
POLYLINE
  8
0
 66
     1
 10
0.0
 20
0.0
 30
0.0
 70
     8
  0
VERTEX
  8
0
 10
     0.000
 20
     0.000
 30
    70.333
 70
    32
  0
VERTEX
  8
0
 10
   -80.000
 20
     0.000
 30
    70.333
 70
    32
  0
VERTEX
  8
0
 10
   -80.000
 20
    35.000
 30
    70.333
 70
    32
  0
VERTEX
  8
0
 10
   -80.000
 20
    35.001
 30
    70.333
 70
    32
  0
VERTEX
  8
0
 10
   -74.667
 20
    35.156
 30
    70.333
 70
    32
  0
VERTEX
  8
0
 10
   -69.333
 20
    35.300
 30
    70.333
 70
    32
  0
VERTEX
  8
0
 10
   -64.000
 20
    35.433
 30
    70.333
 70
    32
  0
VERTEX
  8
0
 10
   -58.667
 20
    35.556
 30
    70.333
 70
    32
  0
VERTEX
  8
0
 10
   -53.333
 20
    35.668
 30
    70.333
 70
    32
  0
VERTEX
  8
0
 10
   -48.000
 20
    35.769
 30
    70.333
 70
    32
  0
VERTEX
  8
0
 10
   -42.667
 20
    35.860
 30
    70.333
 70
    32
  0
VERTEX
  8
0
 10
   -37.333
 20
    35.940
 30
    70.333
 70
    32
  0
VERTEX
  8
0
 10
   -32.000
 20
    36.009
 30
    70.333
 70
    32
  0
VERTEX
  8
0
 10
   -26.667
 20
    36.068
 30
    70.333
 70
    32
  0
VERTEX
  8
0
 10
   -21.333
 20
    36.116
 30
    70.333
 70
    32
  0
VERTEX
  8
0
 10
   -16.000
 20
    36.153
 30
    70.333
 70
    32
  0
VERTEX
  8
0
 10
   -10.667
 20
    36.180
 30
    70.333
 70
    32
  0
VERTEX
  8
0
 10
    -5.333
 20
    36.196
 30
    70.333
 70
    32
  0
VERTEX
  8
0
 10
     0.000
 20
    36.201
 30
    70.333
 70
    32
  0
SEQEND
  8
0
  0
POLYLINE
  8
0
 66
     1
 10
0.0
 20
0.0
 30
0.0
 70
     8
  0
VERTEX
  8
0
 10
     0.000
 20
     0.000
 30
    94.111
 70
    32
  0
VERTEX
  8
0
 10
    80.000
 20
     0.000
 30
    94.111
 70
    32
  0
VERTEX
  8
0
 10
    80.000
 20
    35.000
 30
    94.111
 70
    32
  0
VERTEX
  8
0
 10
    80.000
 20
    35.001
 30
    94.111
 70
    32
  0
VERTEX
  8
0
 10
    74.667
 20
    35.155
 30
    94.111
 70
    32
  0
VERTEX
  8
0
 10
    69.333
 20
    35.299
 30
    94.111
 70
    32
  0
VERTEX
  8
0
 10
    64.000
 20
    35.433
 30
    94.111
 70
    32
  0
VERTEX
  8
0
 10
    58.667
 20
    35.555
 30
    94.111
 70
    32
  0
VERTEX
  8
0
 10
    53.333
 20
    35.667
 30
    94.111
 70
    32
  0
VERTEX
  8
0
 10
    48.000
 20
    35.769
 30
    94.111
 70
    32
  0
VERTEX
  8
0
 10
    42.667
 20
    35.859
 30
    94.111
 70
    32
  0
VERTEX
  8
0
 10
    37.333
 20
    35.939
 30
    94.111
 70
    32
  0
VERTEX
  8
0
 10
    32.000
 20
    36.009
 30
    94.111
 70
    32
  0
VERTEX
  8
0
 10
    26.667
 20
    36.067
 30
    94.111
 70
    32
  0
VERTEX
  8
0
 10
    21.333
 20
    36.115
 30
    94.111
 70
    32
  0
VERTEX
  8
0
 10
    16.000
 20
    36.153
 30
    94.111
 70
    32
  0
VERTEX
  8
0
 10
    10.667
 20
    36.179
 30
    94.111
 70
    32
  0
VERTEX
  8
0
 10
     5.333
 20
    36.195
 30
    94.111
 70
    32
  0
VERTEX
  8
0
 10
     0.000
 20
    36.201
 30
    94.111
 70
    32
  0
SEQEND
  8
0
  0
POLYLINE
  8
0
 66
     1
 10
0.0
 20
0.0
 30
0.0
 70
     8
  0
VERTEX
  8
0
 10
     0.000
 20
     0.000
 30
    94.111
 70
    32
  0
VERTEX
  8
0
 10
   -80.000
 20
     0.000
 30
    94.111
 70
    32
  0
VERTEX
  8
0
 10
   -80.000
 20
    35.000
 30
    94.111
 70
    32
  0
VERTEX
  8
0
 10
   -80.000
 20
    35.001
 30
    94.111
 70
    32
  0
VERTEX
  8
0
 10
   -74.667
 20
    35.155
 30
    94.111
 70
    32
  0
VERTEX
  8
0
 10
   -69.333
 20
    35.299
 30
    94.111
 70
    32
  0
VERTEX
  8
0
 10
   -64.000
 20
    35.433
 30
    94.111
 70
    32
  0
VERTEX
  8
0
 10
   -58.667
 20
    35.555
 30
    94.111
 70
    32
  0
VERTEX
  8
0
 10
   -53.333
 20
    35.667
 30
    94.111
 70
    32
  0
VERTEX
  8
0
 10
   -48.000
 20
    35.769
 30
    94.111
 70
    32
  0
VERTEX
  8
0
 10
   -42.667
 20
    35.859
 30
    94.111
 70
    32
  0
VERTEX
  8
0
 10
   -37.333
 20
    35.939
 30
    94.111
 70
    32
  0
VERTEX
  8
0
 10
   -32.000
 20
    36.009
 30
    94.111
 70
    32
  0
VERTEX
  8
0
 10
   -26.667
 20
    36.067
 30
    94.111
 70
    32
  0
VERTEX
  8
0
 10
   -21.333
 20
    36.115
 30
    94.111
 70
    32
  0
VERTEX
  8
0
 10
   -16.000
 20
    36.153
 30
    94.111
 70
    32
  0
VERTEX
  8
0
 10
   -10.667
 20
    36.179
 30
    94.111
 70
    32
  0
VERTEX
  8
0
 10
    -5.333
 20
    36.195
 30
    94.111
 70
    32
  0
VERTEX
  8
0
 10
     0.000
 20
    36.201
 30
    94.111
 70
    32
  0
SEQEND
  8
0
  0
POLYLINE
  8
0
 66
     1
 10
0.0
 20
0.0
 30
0.0
 70
     8
  0
VERTEX
  8
0
 10
     0.000
 20
     0.000
 30
   117.889
 70
    32
  0
VERTEX
  8
0
 10
    80.000
 20
     0.000
 30
   117.889
 70
    32
  0
VERTEX
  8
0
 10
    79.908
 20
    35.000
 30
   117.889
 70
    32
  0
VERTEX
  8
0
 10
    74.667
 20
    35.152
 30
   117.889
 70
    32
  0
VERTEX
  8
0
 10
    69.333
 20
    35.296
 30
   117.889
 70
    32
  0
VERTEX
  8
0
 10
    64.000
 20
    35.429
 30
   117.889
 70
    32
  0
VERTEX
  8
0
 10
    58.667
 20
    35.552
 30
   117.889
 70
    32
  0
VERTEX
  8
0
 10
    53.333
 20
    35.664
 30
   117.889
 70
    32
  0
VERTEX
  8
0
 10
    48.000
 20
    35.765
 30
   117.889
 70
    32
  0
VERTEX
  8
0
 10
    42.667
 20
    35.856
 30
   117.889
 70
    32
  0
VERTEX
  8
0
 10
    37.333
 20
    35.936
 30
   117.889
 70
    32
  0
VERTEX
  8
0
 10
    32.000
 20
    36.005
 30
   117.889
 70
    32
  0
VERTEX
  8
0
 10
    26.667
 20
    36.064
 30
   117.889
 70
    32
  0
VERTEX
  8
0
 10
    21.333
 20
    36.112
 30
   117.889
 70
    32
  0
VERTEX
  8
0
 10
    16.000
 20
    36.149
 30
   117.889
 70
    32
  0
VERTEX
  8
0
 10
    10.667
 20
    36.176
 30
   117.889
 70
    32
  0
VERTEX
  8
0
 10
     5.333
 20
    36.192
 30
   117.889
 70
    32
  0
VERTEX
  8
0
 10
     0.000
 20
    36.197
 30
   117.889
 70
    32
  0
SEQEND
  8
0
  0
POLYLINE
  8
0
 66
     1
 10
0.0
 20
0.0
 30
0.0
 70
     8
  0
VERTEX
  8
0
 10
     0.000
 20
     0.000
 30
   117.889
 70
    32
  0
VERTEX
  8
0
 10
   -80.000
 20
     0.000
 30
   117.889
 70
    32
  0
VERTEX
  8
0
 10
   -79.908
 20
    35.000
 30
   117.889
 70
    32
  0
VERTEX
  8
0
 10
   -74.667
 20
    35.152
 30
   117.889
 70
    32
  0
VERTEX
  8
0
 10
   -69.333
 20
    35.296
 30
   117.889
 70
    32
  0
VERTEX
  8
0
 10
   -64.000
 20
    35.429
 30
   117.889
 70
    32
  0
VERTEX
  8
0
 10
   -58.667
 20
    35.552
 30
   117.889
 70
    32
  0
VERTEX
  8
0
 10
   -53.333
 20
    35.664
 30
   117.889
 70
    32
  0
VERTEX
  8
0
 10
   -48.000
 20
    35.765
 30
   117.889
 70
    32
  0
VERTEX
  8
0
 10
   -42.667
 20
    35.856
 30
   117.889
 70
    32
  0
VERTEX
  8
0
 10
   -37.333
 20
    35.936
 30
   117.889
 70
    32
  0
VERTEX
  8
0
 10
   -32.000
 20
    36.005
 30
   117.889
 70
    32
  0
VERTEX
  8
0
 10
   -26.667
 20
    36.064
 30
   117.889
 70
    32
  0
VERTEX
  8
0
 10
   -21.333
 20
    36.112
 30
   117.889
 70
    32
  0
VERTEX
  8
0
 10
   -16.000
 20
    36.149
 30
   117.889
 70
    32
  0
VERTEX
  8
0
 10
   -10.667
 20
    36.176
 30
   117.889
 70
    32
  0
VERTEX
  8
0
 10
    -5.333
 20
    36.192
 30
   117.889
 70
    32
  0
VERTEX
  8
0
 10
     0.000
 20
    36.197
 30
   117.889
 70
    32
  0
SEQEND
  8
0
  0
POLYLINE
  8
0
 66
     1
 10
0.0
 20
0.0
 30
0.0
 70
     8
  0
VERTEX
  8
0
 10
     0.000
 20
     0.000
 30
   141.667
 70
    32
  0
VERTEX
  8
0
 10
    80.000
 20
     0.000
 30
   141.667
 70
    32
  0
VERTEX
  8
0
 10
    79.908
 20
    35.000
 30
   141.667
 70
    32
  0
VERTEX
  8
0
 10
    74.667
 20
    35.152
 30
   141.667
 70
    32
  0
VERTEX
  8
0
 10
    69.333
 20
    35.296
 30
   141.667
 70
    32
  0
VERTEX
  8
0
 10
    64.000
 20
    35.429
 30
   141.667
 70
    32
  0
VERTEX
  8
0
 10
    58.667
 20
    35.552
 30
   141.667
 70
    32
  0
VERTEX
  8
0
 10
    53.333
 20
    35.664
 30
   141.667
 70
    32
  0
VERTEX
  8
0
 10
    48.000
 20
    35.765
 30
   141.667
 70
    32
  0
VERTEX
  8
0
 10
    42.667
 20
    35.856
 30
   141.667
 70
    32
  0
VERTEX
  8
0
 10
    37.333
 20
    35.936
 30
   141.667
 70
    32
  0
VERTEX
  8
0
 10
    32.000
 20
    36.005
 30
   141.667
 70
    32
  0
VERTEX
  8
0
 10
    26.667
 20
    36.064
 30
   141.667
 70
    32
  0
VERTEX
  8
0
 10
    21.333
 20
    36.112
 30
   141.667
 70
    32
  0
VERTEX
  8
0
 10
    16.000
 20
    36.149
 30
   141.667
 70
    32
  0
VERTEX
  8
0
 10
    10.667
 20
    36.176
 30
   141.667
 70
    32
  0
VERTEX
  8
0
 10
     5.333
 20
    36.192
 30
   141.667
 70
    32
  0
VERTEX
  8
0
 10
     0.000
 20
    36.197
 30
   141.667
 70
    32
  0
SEQEND
  8
0
  0
POLYLINE
  8
0
 66
     1
 10
0.0
 20
0.0
 30
0.0
 70
     8
  0
VERTEX
  8
0
 10
     0.000
 20
     0.000
 30
   141.667
 70
    32
  0
VERTEX
  8
0
 10
   -80.000
 20
     0.000
 30
   141.667
 70
    32
  0
VERTEX
  8
0
 10
   -79.908
 20
    35.000
 30
   141.667
 70
    32
  0
VERTEX
  8
0
 10
   -74.667
 20
    35.152
 30
   141.667
 70
    32
  0
VERTEX
  8
0
 10
   -69.333
 20
    35.296
 30
   141.667
 70
    32
  0
VERTEX
  8
0
 10
   -64.000
 20
    35.429
 30
   141.667
 70
    32
  0
VERTEX
  8
0
 10
   -58.667
 20
    35.552
 30
   141.667
 70
    32
  0
VERTEX
  8
0
 10
   -53.333
 20
    35.664
 30
   141.667
 70
    32
  0
VERTEX
  8
0
 10
   -48.000
 20
    35.765
 30
   141.667
 70
    32
  0
VERTEX
  8
0
 10
   -42.667
 20
    35.856
 30
   141.667
 70
    32
  0
VERTEX
  8
0
 10
   -37.333
 20
    35.936
 30
   141.667
 70
    32
  0
VERTEX
  8
0
 10
   -32.000
 20
    36.005
 30
   141.667
 70
    32
  0
VERTEX
  8
0
 10
   -26.667
 20
    36.064
 30
   141.667
 70
    32
  0
VERTEX
  8
0
 10
   -21.333
 20
    36.112
 30
   141.667
 70
    32
  0
VERTEX
  8
0
 10
   -16.000
 20
    36.149
 30
   141.667
 70
    32
  0
VERTEX
  8
0
 10
   -10.667
 20
    36.176
 30
   141.667
 70
    32
  0
VERTEX
  8
0
 10
    -5.333
 20
    36.192
 30
   141.667
 70
    32
  0
VERTEX
  8
0
 10
     0.000
 20
    36.197
 30
   141.667
 70
    32
  0
SEQEND
  8
0
  0
POLYLINE
  8
0
 66
     1
 10
0.0
 20
0.0
 30
0.0
 70
     8
  0
VERTEX
  8
0
 10
     0.000
 20
     0.000
 30
   165.444
 70
    32
  0
VERTEX
  8
0
 10
    80.000
 20
     0.000
 30
   165.444
 70
    32
  0
VERTEX
  8
0
 10
    80.000
 20
    35.000
 30
   165.444
 70
    32
  0
VERTEX
  8
0
 10
    80.000
 20
    35.009
 30
   165.444
 70
    32
  0
VERTEX
  8
0
 10
    74.667
 20
    35.164
 30
   165.444
 70
    32
  0
VERTEX
  8
0
 10
    69.333
 20
    35.308
 30
   165.444
 70
    32
  0
VERTEX
  8
0
 10
    64.000
 20
    35.441
 30
   165.444
 70
    32
  0
VERTEX
  8
0
 10
    58.667
 20
    35.564
 30
   165.444
 70
    32
  0
VERTEX
  8
0
 10
    53.333
 20
    35.676
 30
   165.444
 70
    32
  0
VERTEX
  8
0
 10
    48.000
 20
    35.777
 30
   165.444
 70
    32
  0
VERTEX
  8
0
 10
    42.667
 20
    35.868
 30
   165.444
 70
    32
  0
VERTEX
  8
0
 10
    37.333
 20
    35.948
 30
   165.444
 70
    32
  0
VERTEX
  8
0
 10
    32.000
 20
    36.017
 30
   165.444
 70
    32
  0
VERTEX
  8
0
 10
    26.667
 20
    36.076
 30
   165.444
 70
    32
  0
VERTEX
  8
0
 10
    21.333
 20
    36.124
 30
   165.444
 70
    32
  0
VERTEX
  8
0
 10
    16.000
 20
    36.161
 30
   165.444
 70
    32
  0
VERTEX
  8
0
 10
    10.667
 20
    36.188
 30
   165.444
 70
    32
  0
VERTEX
  8
0
 10
     5.333
 20
    36.204
 30
   165.444
 70
    32
  0
VERTEX
  8
0
 10
     0.000
 20
    36.209
 30
   165.444
 70
    32
  0
SEQEND
  8
0
  0
POLYLINE
  8
0
 66
     1
 10
0.0
 20
0.0
 30
0.0
 70
     8
  0
VERTEX
  8
0
 10
     0.000
 20
     0.000
 30
   165.444
 70
    32
  0
VERTEX
  8
0
 10
   -80.000
 20
     0.000
 30
   165.444
 70
    32
  0
VERTEX
  8
0
 10
   -80.000
 20
    35.000
 30
   165.444
 70
    32
  0
VERTEX
  8
0
 10
   -80.000
 20
    35.009
 30
   165.444
 70
    32
  0
VERTEX
  8
0
 10
   -74.667
 20
    35.164
 30
   165.444
 70
    32
  0
VERTEX
  8
0
 10
   -69.333
 20
    35.308
 30
   165.444
 70
    32
  0
VERTEX
  8
0
 10
   -64.000
 20
    35.441
 30
   165.444
 70
    32
  0
VERTEX
  8
0
 10
   -58.667
 20
    35.564
 30
   165.444
 70
    32
  0
VERTEX
  8
0
 10
   -53.333
 20
    35.676
 30
   165.444
 70
    32
  0
VERTEX
  8
0
 10
   -48.000
 20
    35.777
 30
   165.444
 70
    32
  0
VERTEX
  8
0
 10
   -42.667
 20
    35.868
 30
   165.444
 70
    32
  0
VERTEX
  8
0
 10
   -37.333
 20
    35.948
 30
   165.444
 70
    32
  0
VERTEX
  8
0
 10
   -32.000
 20
    36.017
 30
   165.444
 70
    32
  0
VERTEX
  8
0
 10
   -26.667
 20
    36.076
 30
   165.444
 70
    32
  0
VERTEX
  8
0
 10
   -21.333
 20
    36.124
 30
   165.444
 70
    32
  0
VERTEX
  8
0
 10
   -16.000
 20
    36.161
 30
   165.444
 70
    32
  0
VERTEX
  8
0
 10
   -10.667
 20
    36.188
 30
   165.444
 70
    32
  0
VERTEX
  8
0
 10
    -5.333
 20
    36.204
 30
   165.444
 70
    32
  0
VERTEX
  8
0
 10
     0.000
 20
    36.209
 30
   165.444
 70
    32
  0
SEQEND
  8
0
  0
POLYLINE
  8
0
 66
     1
 10
0.0
 20
0.0
 30
0.0
 70
     8
  0
VERTEX
  8
0
 10
     0.000
 20
     0.000
 30
   189.222
 70
    32
  0
VERTEX
  8
0
 10
    80.000
 20
     0.000
 30
   189.222
 70
    32
  0
VERTEX
  8
0
 10
    80.000
 20
    35.000
 30
   189.222
 70
    32
  0
VERTEX
  8
0
 10
    80.000
 20
    35.013
 30
   189.222
 70
    32
  0
VERTEX
  8
0
 10
    74.667
 20
    35.167
 30
   189.222
 70
    32
  0
VERTEX
  8
0
 10
    69.333
 20
    35.311
 30
   189.222
 70
    32
  0
VERTEX
  8
0
 10
    64.000
 20
    35.445
 30
   189.222
 70
    32
  0
VERTEX
  8
0
 10
    58.667
 20
    35.567
 30
   189.222
 70
    32
  0
VERTEX
  8
0
 10
    53.333
 20
    35.679
 30
   189.222
 70
    32
  0
VERTEX
  8
0
 10
    48.000
 20
    35.781
 30
   189.222
 70
    32
  0
VERTEX
  8
0
 10
    42.667
 20
    35.871
 30
   189.222
 70
    32
  0
VERTEX
  8
0
 10
    37.333
 20
    35.951
 30
   189.222
 70
    32
  0
VERTEX
  8
0
 10
    32.000
 20
    36.021
 30
   189.222
 70
    32
  0
VERTEX
  8
0
 10
    26.667
 20
    36.079
 30
   189.222
 70
    32
  0
VERTEX
  8
0
 10
    21.333
 20
    36.127
 30
   189.222
 70
    32
  0
VERTEX
  8
0
 10
    16.000
 20
    36.165
 30
   189.222
 70
    32
  0
VERTEX
  8
0
 10
    10.667
 20
    36.191
 30
   189.222
 70
    32
  0
VERTEX
  8
0
 10
     5.333
 20
    36.207
 30
   189.222
 70
    32
  0
VERTEX
  8
0
 10
     0.000
 20
    36.213
 30
   189.222
 70
    32
  0
SEQEND
  8
0
  0
POLYLINE
  8
0
 66
     1
 10
0.0
 20
0.0
 30
0.0
 70
     8
  0
VERTEX
  8
0
 10
     0.000
 20
     0.000
 30
   189.222
 70
    32
  0
VERTEX
  8
0
 10
   -80.000
 20
     0.000
 30
   189.222
 70
    32
  0
VERTEX
  8
0
 10
   -80.000
 20
    35.000
 30
   189.222
 70
    32
  0
VERTEX
  8
0
 10
   -80.000
 20
    35.013
 30
   189.222
 70
    32
  0
VERTEX
  8
0
 10
   -74.667
 20
    35.167
 30
   189.222
 70
    32
  0
VERTEX
  8
0
 10
   -69.333
 20
    35.311
 30
   189.222
 70
    32
  0
VERTEX
  8
0
 10
   -64.000
 20
    35.445
 30
   189.222
 70
    32
  0
VERTEX
  8
0
 10
   -58.667
 20
    35.567
 30
   189.222
 70
    32
  0
VERTEX
  8
0
 10
   -53.333
 20
    35.679
 30
   189.222
 70
    32
  0
VERTEX
  8
0
 10
   -48.000
 20
    35.781
 30
   189.222
 70
    32
  0
VERTEX
  8
0
 10
   -42.667
 20
    35.871
 30
   189.222
 70
    32
  0
VERTEX
  8
0
 10
   -37.333
 20
    35.951
 30
   189.222
 70
    32
  0
VERTEX
  8
0
 10
   -32.000
 20
    36.021
 30
   189.222
 70
    32
  0
VERTEX
  8
0
 10
   -26.667
 20
    36.079
 30
   189.222
 70
    32
  0
VERTEX
  8
0
 10
   -21.333
 20
    36.127
 30
   189.222
 70
    32
  0
VERTEX
  8
0
 10
   -16.000
 20
    36.165
 30
   189.222
 70
    32
  0
VERTEX
  8
0
 10
   -10.667
 20
    36.191
 30
   189.222
 70
    32
  0
VERTEX
  8
0
 10
    -5.333
 20
    36.207
 30
   189.222
 70
    32
  0
VERTEX
  8
0
 10
     0.000
 20
    36.213
 30
   189.222
 70
    32
  0
SEQEND
  8
0
  0
POLYLINE
  8
0
 66
     1
 10
0.0
 20
0.0
 30
0.0
 70
     8
  0
VERTEX
  8
0
 10
     0.000
 20
     0.000
 30
   213.000
 70
    32
  0
VERTEX
  8
0
 10
    80.000
 20
     0.000
 30
   213.000
 70
    32
  0
VERTEX
  8
0
 10
    79.298
 20
    35.000
 30
   213.000
 70
    32
  0
VERTEX
  8
0
 10
    74.667
 20
    35.134
 30
   213.000
 70
    32
  0
VERTEX
  8
0
 10
    69.333
 20
    35.278
 30
   213.000
 70
    32
  0
VERTEX
  8
0
 10
    64.000
 20
    35.412
 30
   213.000
 70
    32
  0
VERTEX
  8
0
 10
    58.667
 20
    35.534
 30
   213.000
 70
    32
  0
VERTEX
  8
0
 10
    53.333
 20
    35.646
 30
   213.000
 70
    32
  0
VERTEX
  8
0
 10
    48.000
 20
    35.748
 30
   213.000
 70
    32
  0
VERTEX
  8
0
 10
    42.667
 20
    35.838
 30
   213.000
 70
    32
  0
VERTEX
  8
0
 10
    37.333
 20
    35.918
 30
   213.000
 70
    32
  0
VERTEX
  8
0
 10
    32.000
 20
    35.988
 30
   213.000
 70
    32
  0
VERTEX
  8
0
 10
    26.667
 20
    36.046
 30
   213.000
 70
    32
  0
VERTEX
  8
0
 10
    21.333
 20
    36.094
 30
   213.000
 70
    32
  0
VERTEX
  8
0
 10
    16.000
 20
    36.132
 30
   213.000
 70
    32
  0
VERTEX
  8
0
 10
    10.667
 20
    36.158
 30
   213.000
 70
    32
  0
VERTEX
  8
0
 10
     5.333
 20
    36.174
 30
   213.000
 70
    32
  0
VERTEX
  8
0
 10
     0.000
 20
    36.180
 30
   213.000
 70
    32
  0
SEQEND
  8
0
  0
POLYLINE
  8
0
 66
     1
 10
0.0
 20
0.0
 30
0.0
 70
     8
  0
VERTEX
  8
0
 10
     0.000
 20
     0.000
 30
   213.000
 70
    32
  0
VERTEX
  8
0
 10
   -80.000
 20
     0.000
 30
   213.000
 70
    32
  0
VERTEX
  8
0
 10
   -79.298
 20
    35.000
 30
   213.000
 70
    32
  0
VERTEX
  8
0
 10
   -74.667
 20
    35.134
 30
   213.000
 70
    32
  0
VERTEX
  8
0
 10
   -69.333
 20
    35.278
 30
   213.000
 70
    32
  0
VERTEX
  8
0
 10
   -64.000
 20
    35.412
 30
   213.000
 70
    32
  0
VERTEX
  8
0
 10
   -58.667
 20
    35.534
 30
   213.000
 70
    32
  0
VERTEX
  8
0
 10
   -53.333
 20
    35.646
 30
   213.000
 70
    32
  0
VERTEX
  8
0
 10
   -48.000
 20
    35.748
 30
   213.000
 70
    32
  0
VERTEX
  8
0
 10
   -42.667
 20
    35.838
 30
   213.000
 70
    32
  0
VERTEX
  8
0
 10
   -37.333
 20
    35.918
 30
   213.000
 70
    32
  0
VERTEX
  8
0
 10
   -32.000
 20
    35.988
 30
   213.000
 70
    32
  0
VERTEX
  8
0
 10
   -26.667
 20
    36.046
 30
   213.000
 70
    32
  0
VERTEX
  8
0
 10
   -21.333
 20
    36.094
 30
   213.000
 70
    32
  0
VERTEX
  8
0
 10
   -16.000
 20
    36.132
 30
   213.000
 70
    32
  0
VERTEX
  8
0
 10
   -10.667
 20
    36.158
 30
   213.000
 70
    32
  0
VERTEX
  8
0
 10
    -5.333
 20
    36.174
 30
   213.000
 70
    32
  0
VERTEX
  8
0
 10
     0.000
 20
    36.180
 30
   213.000
 70
    32
  0
SEQEND
  8
0
  0
POLYLINE
  8
0
 66
     1
 10
0.0
 20
0.0
 30
0.0
 70
     8
  0
VERTEX
  8
0
 10
     0.000
 20
     0.003
 30
   213.000
 70
    32
  0
VERTEX
  8
0
 10
    80.000
 20
     0.003
 30
   213.000
 70
    32
  0
VERTEX
  8
0
 10
    79.298
 20
    35.000
 30
   213.000
 70
    32
  0
VERTEX
  8
0
 10
    74.667
 20
    35.134
 30
   213.000
 70
    32
  0
VERTEX
  8
0
 10
    69.333
 20
    35.278
 30
   213.000
 70
    32
  0
VERTEX
  8
0
 10
    64.000
 20
    35.412
 30
   213.000
 70
    32
  0
VERTEX
  8
0
 10
    58.667
 20
    35.534
 30
   213.000
 70
    32
  0
VERTEX
  8
0
 10
    53.333
 20
    35.646
 30
   213.000
 70
    32
  0
VERTEX
  8
0
 10
    48.000
 20
    35.748
 30
   213.000
 70
    32
  0
VERTEX
  8
0
 10
    42.667
 20
    35.838
 30
   213.000
 70
    32
  0
VERTEX
  8
0
 10
    37.333
 20
    35.918
 30
   213.000
 70
    32
  0
VERTEX
  8
0
 10
    32.000
 20
    35.988
 30
   213.000
 70
    32
  0
VERTEX
  8
0
 10
    26.667
 20
    36.046
 30
   213.000
 70
    32
  0
VERTEX
  8
0
 10
    21.333
 20
    36.094
 30
   213.000
 70
    32
  0
VERTEX
  8
0
 10
    16.000
 20
    36.132
 30
   213.000
 70
    32
  0
VERTEX
  8
0
 10
    10.667
 20
    36.158
 30
   213.000
 70
    32
  0
VERTEX
  8
0
 10
     5.333
 20
    36.174
 30
   213.000
 70
    32
  0
VERTEX
  8
0
 10
     0.000
 20
    36.180
 30
   213.000
 70
    32
  0
SEQEND
  8
0
  0
POLYLINE
  8
0
 66
     1
 10
0.0
 20
0.0
 30
0.0
 70
     8
  0
VERTEX
  8
0
 10
     0.000
 20
     0.003
 30
   213.000
 70
    32
  0
VERTEX
  8
0
 10
   -80.000
 20
     0.003
 30
   213.000
 70
    32
  0
VERTEX
  8
0
 10
   -79.298
 20
    35.000
 30
   213.000
 70
    32
  0
VERTEX
  8
0
 10
   -74.667
 20
    35.134
 30
   213.000
 70
    32
  0
VERTEX
  8
0
 10
   -69.333
 20
    35.278
 30
   213.000
 70
    32
  0
VERTEX
  8
0
 10
   -64.000
 20
    35.412
 30
   213.000
 70
    32
  0
VERTEX
  8
0
 10
   -58.667
 20
    35.534
 30
   213.000
 70
    32
  0
VERTEX
  8
0
 10
   -53.333
 20
    35.646
 30
   213.000
 70
    32
  0
VERTEX
  8
0
 10
   -48.000
 20
    35.748
 30
   213.000
 70
    32
  0
VERTEX
  8
0
 10
   -42.667
 20
    35.838
 30
   213.000
 70
    32
  0
VERTEX
  8
0
 10
   -37.333
 20
    35.918
 30
   213.000
 70
    32
  0
VERTEX
  8
0
 10
   -32.000
 20
    35.988
 30
   213.000
 70
    32
  0
VERTEX
  8
0
 10
   -26.667
 20
    36.046
 30
   213.000
 70
    32
  0
VERTEX
  8
0
 10
   -21.333
 20
    36.094
 30
   213.000
 70
    32
  0
VERTEX
  8
0
 10
   -16.000
 20
    36.132
 30
   213.000
 70
    32
  0
VERTEX
  8
0
 10
   -10.667
 20
    36.158
 30
   213.000
 70
    32
  0
VERTEX
  8
0
 10
    -5.333
 20
    36.174
 30
   213.000
 70
    32
  0
VERTEX
  8
0
 10
     0.000
 20
    36.180
 30
   213.000
 70
    32
  0
SEQEND
  8
0
  0
POLYLINE
  8
0
 66
     1
 10
0.0
 20
0.0
 30
0.0
 70
     8
  0
VERTEX
  8
0
 10
     0.000
 20
     3.669
 30
   219.167
 70
    32
  0
VERTEX
  8
0
 10
    80.000
 20
     3.669
 30
   219.167
 70
    32
  0
VERTEX
  8
0
 10
    79.399
 20
    35.000
 30
   219.167
 70
    32
  0
VERTEX
  8
0
 10
    74.667
 20
    35.137
 30
   219.167
 70
    32
  0
VERTEX
  8
0
 10
    69.333
 20
    35.281
 30
   219.167
 70
    32
  0
VERTEX
  8
0
 10
    64.000
 20
    35.415
 30
   219.167
 70
    32
  0
VERTEX
  8
0
 10
    58.667
 20
    35.537
 30
   219.167
 70
    32
  0
VERTEX
  8
0
 10
    53.333
 20
    35.649
 30
   219.167
 70
    32
  0
VERTEX
  8
0
 10
    48.000
 20
    35.751
 30
   219.167
 70
    32
  0
VERTEX
  8
0
 10
    42.667
 20
    35.841
 30
   219.167
 70
    32
  0
VERTEX
  8
0
 10
    37.333
 20
    35.921
 30
   219.167
 70
    32
  0
VERTEX
  8
0
 10
    32.000
 20
    35.991
 30
   219.167
 70
    32
  0
VERTEX
  8
0
 10
    26.667
 20
    36.049
 30
   219.167
 70
    32
  0
VERTEX
  8
0
 10
    21.333
 20
    36.097
 30
   219.167
 70
    32
  0
VERTEX
  8
0
 10
    16.000
 20
    36.135
 30
   219.167
 70
    32
  0
VERTEX
  8
0
 10
    10.667
 20
    36.161
 30
   219.167
 70
    32
  0
VERTEX
  8
0
 10
     5.333
 20
    36.177
 30
   219.167
 70
    32
  0
VERTEX
  8
0
 10
     0.000
 20
    36.183
 30
   219.167
 70
    32
  0
SEQEND
  8
0
  0
POLYLINE
  8
0
 66
     1
 10
0.0
 20
0.0
 30
0.0
 70
     8
  0
VERTEX
  8
0
 10
     0.000
 20
     3.669
 30
   219.167
 70
    32
  0
VERTEX
  8
0
 10
   -80.000
 20
     3.669
 30
   219.167
 70
    32
  0
VERTEX
  8
0
 10
   -79.399
 20
    35.000
 30
   219.167
 70
    32
  0
VERTEX
  8
0
 10
   -74.667
 20
    35.137
 30
   219.167
 70
    32
  0
VERTEX
  8
0
 10
   -69.333
 20
    35.281
 30
   219.167
 70
    32
  0
VERTEX
  8
0
 10
   -64.000
 20
    35.415
 30
   219.167
 70
    32
  0
VERTEX
  8
0
 10
   -58.667
 20
    35.537
 30
   219.167
 70
    32
  0
VERTEX
  8
0
 10
   -53.333
 20
    35.649
 30
   219.167
 70
    32
  0
VERTEX
  8
0
 10
   -48.000
 20
    35.751
 30
   219.167
 70
    32
  0
VERTEX
  8
0
 10
   -42.667
 20
    35.841
 30
   219.167
 70
    32
  0
VERTEX
  8
0
 10
   -37.333
 20
    35.921
 30
   219.167
 70
    32
  0
VERTEX
  8
0
 10
   -32.000
 20
    35.991
 30
   219.167
 70
    32
  0
VERTEX
  8
0
 10
   -26.667
 20
    36.049
 30
   219.167
 70
    32
  0
VERTEX
  8
0
 10
   -21.333
 20
    36.097
 30
   219.167
 70
    32
  0
VERTEX
  8
0
 10
   -16.000
 20
    36.135
 30
   219.167
 70
    32
  0
VERTEX
  8
0
 10
   -10.667
 20
    36.161
 30
   219.167
 70
    32
  0
VERTEX
  8
0
 10
    -5.333
 20
    36.177
 30
   219.167
 70
    32
  0
VERTEX
  8
0
 10
     0.000
 20
    36.183
 30
   219.167
 70
    32
  0
SEQEND
  8
0
  0
POLYLINE
  8
0
 66
     1
 10
0.0
 20
0.0
 30
0.0
 70
     8
  0
VERTEX
  8
0
 10
     0.000
 20
     7.338
 30
   225.333
 70
    32
  0
VERTEX
  8
0
 10
    80.000
 20
     7.338
 30
   225.333
 70
    32
  0
VERTEX
  8
0
 10
    80.000
 20
    35.000
 30
   225.333
 70
    32
  0
VERTEX
  8
0
 10
    80.000
 20
    35.002
 30
   225.333
 70
    32
  0
VERTEX
  8
0
 10
    74.667
 20
    35.156
 30
   225.333
 70
    32
  0
VERTEX
  8
0
 10
    69.333
 20
    35.300
 30
   225.333
 70
    32
  0
VERTEX
  8
0
 10
    64.000
 20
    35.434
 30
   225.333
 70
    32
  0
VERTEX
  8
0
 10
    58.667
 20
    35.556
 30
   225.333
 70
    32
  0
VERTEX
  8
0
 10
    53.333
 20
    35.668
 30
   225.333
 70
    32
  0
VERTEX
  8
0
 10
    48.000
 20
    35.770
 30
   225.333
 70
    32
  0
VERTEX
  8
0
 10
    42.667
 20
    35.860
 30
   225.333
 70
    32
  0
VERTEX
  8
0
 10
    37.333
 20
    35.940
 30
   225.333
 70
    32
  0
VERTEX
  8
0
 10
    32.000
 20
    36.010
 30
   225.333
 70
    32
  0
VERTEX
  8
0
 10
    26.667
 20
    36.068
 30
   225.333
 70
    32
  0
VERTEX
  8
0
 10
    21.333
 20
    36.116
 30
   225.333
 70
    32
  0
VERTEX
  8
0
 10
    16.000
 20
    36.154
 30
   225.333
 70
    32
  0
VERTEX
  8
0
 10
    10.667
 20
    36.180
 30
   225.333
 70
    32
  0
VERTEX
  8
0
 10
     5.333
 20
    36.196
 30
   225.333
 70
    32
  0
VERTEX
  8
0
 10
     0.000
 20
    36.202
 30
   225.333
 70
    32
  0
SEQEND
  8
0
  0
POLYLINE
  8
0
 66
     1
 10
0.0
 20
0.0
 30
0.0
 70
     8
  0
VERTEX
  8
0
 10
     0.000
 20
     7.338
 30
   225.333
 70
    32
  0
VERTEX
  8
0
 10
   -80.000
 20
     7.338
 30
   225.333
 70
    32
  0
VERTEX
  8
0
 10
   -80.000
 20
    35.000
 30
   225.333
 70
    32
  0
VERTEX
  8
0
 10
   -80.000
 20
    35.002
 30
   225.333
 70
    32
  0
VERTEX
  8
0
 10
   -74.667
 20
    35.156
 30
   225.333
 70
    32
  0
VERTEX
  8
0
 10
   -69.333
 20
    35.300
 30
   225.333
 70
    32
  0
VERTEX
  8
0
 10
   -64.000
 20
    35.434
 30
   225.333
 70
    32
  0
VERTEX
  8
0
 10
   -58.667
 20
    35.556
 30
   225.333
 70
    32
  0
VERTEX
  8
0
 10
   -53.333
 20
    35.668
 30
   225.333
 70
    32
  0
VERTEX
  8
0
 10
   -48.000
 20
    35.770
 30
   225.333
 70
    32
  0
VERTEX
  8
0
 10
   -42.667
 20
    35.860
 30
   225.333
 70
    32
  0
VERTEX
  8
0
 10
   -37.333
 20
    35.940
 30
   225.333
 70
    32
  0
VERTEX
  8
0
 10
   -32.000
 20
    36.010
 30
   225.333
 70
    32
  0
VERTEX
  8
0
 10
   -26.667
 20
    36.068
 30
   225.333
 70
    32
  0
VERTEX
  8
0
 10
   -21.333
 20
    36.116
 30
   225.333
 70
    32
  0
VERTEX
  8
0
 10
   -16.000
 20
    36.154
 30
   225.333
 70
    32
  0
VERTEX
  8
0
 10
   -10.667
 20
    36.180
 30
   225.333
 70
    32
  0
VERTEX
  8
0
 10
    -5.333
 20
    36.196
 30
   225.333
 70
    32
  0
VERTEX
  8
0
 10
     0.000
 20
    36.202
 30
   225.333
 70
    32
  0
SEQEND
  8
0
  0
POLYLINE
  8
0
 66
     1
 10
0.0
 20
0.0
 30
0.0
 70
     8
  0
VERTEX
  8
0
 10
     0.000
 20
    11.001
 30
   231.500
 70
    32
  0
VERTEX
  8
0
 10
    80.000
 20
    11.001
 30
   231.500
 70
    32
  0
VERTEX
  8
0
 10
    80.000
 20
    35.000
 30
   231.500
 70
    32
  0
VERTEX
  8
0
 10
    80.000
 20
    35.033
 30
   231.500
 70
    32
  0
VERTEX
  8
0
 10
    74.667
 20
    35.187
 30
   231.500
 70
    32
  0
VERTEX
  8
0
 10
    69.333
 20
    35.331
 30
   231.500
 70
    32
  0
VERTEX
  8
0
 10
    64.000
 20
    35.465
 30
   231.500
 70
    32
  0
VERTEX
  8
0
 10
    58.667
 20
    35.587
 30
   231.500
 70
    32
  0
VERTEX
  8
0
 10
    53.333
 20
    35.699
 30
   231.500
 70
    32
  0
VERTEX
  8
0
 10
    48.000
 20
    35.801
 30
   231.500
 70
    32
  0
VERTEX
  8
0
 10
    42.667
 20
    35.891
 30
   231.500
 70
    32
  0
VERTEX
  8
0
 10
    37.333
 20
    35.971
 30
   231.500
 70
    32
  0
VERTEX
  8
0
 10
    32.000
 20
    36.041
 30
   231.500
 70
    32
  0
VERTEX
  8
0
 10
    26.667
 20
    36.099
 30
   231.500
 70
    32
  0
VERTEX
  8
0
 10
    21.333
 20
    36.147
 30
   231.500
 70
    32
  0
VERTEX
  8
0
 10
    16.000
 20
    36.185
 30
   231.500
 70
    32
  0
VERTEX
  8
0
 10
    10.667
 20
    36.211
 30
   231.500
 70
    32
  0
VERTEX
  8
0
 10
     5.333
 20
    36.227
 30
   231.500
 70
    32
  0
VERTEX
  8
0
 10
     0.000
 20
    36.233
 30
   231.500
 70
    32
  0
SEQEND
  8
0
  0
POLYLINE
  8
0
 66
     1
 10
0.0
 20
0.0
 30
0.0
 70
     8
  0
VERTEX
  8
0
 10
     0.000
 20
    11.001
 30
   231.500
 70
    32
  0
VERTEX
  8
0
 10
   -80.000
 20
    11.001
 30
   231.500
 70
    32
  0
VERTEX
  8
0
 10
   -80.000
 20
    35.000
 30
   231.500
 70
    32
  0
VERTEX
  8
0
 10
   -80.000
 20
    35.033
 30
   231.500
 70
    32
  0
VERTEX
  8
0
 10
   -74.667
 20
    35.187
 30
   231.500
 70
    32
  0
VERTEX
  8
0
 10
   -69.333
 20
    35.331
 30
   231.500
 70
    32
  0
VERTEX
  8
0
 10
   -64.000
 20
    35.465
 30
   231.500
 70
    32
  0
VERTEX
  8
0
 10
   -58.667
 20
    35.587
 30
   231.500
 70
    32
  0
VERTEX
  8
0
 10
   -53.333
 20
    35.699
 30
   231.500
 70
    32
  0
VERTEX
  8
0
 10
   -48.000
 20
    35.801
 30
   231.500
 70
    32
  0
VERTEX
  8
0
 10
   -42.667
 20
    35.891
 30
   231.500
 70
    32
  0
VERTEX
  8
0
 10
   -37.333
 20
    35.971
 30
   231.500
 70
    32
  0
VERTEX
  8
0
 10
   -32.000
 20
    36.041
 30
   231.500
 70
    32
  0
VERTEX
  8
0
 10
   -26.667
 20
    36.099
 30
   231.500
 70
    32
  0
VERTEX
  8
0
 10
   -21.333
 20
    36.147
 30
   231.500
 70
    32
  0
VERTEX
  8
0
 10
   -16.000
 20
    36.185
 30
   231.500
 70
    32
  0
VERTEX
  8
0
 10
   -10.667
 20
    36.211
 30
   231.500
 70
    32
  0
VERTEX
  8
0
 10
    -5.333
 20
    36.227
 30
   231.500
 70
    32
  0
VERTEX
  8
0
 10
     0.000
 20
    36.233
 30
   231.500
 70
    32
  0
SEQEND
  8
0
  0
POLYLINE
  8
0
 66
     1
 10
0.0
 20
0.0
 30
0.0
 70
     8
  0
VERTEX
  8
0
 10
     0.000
 20
    14.664
 30
   237.667
 70
    32
  0
VERTEX
  8
0
 10
    80.000
 20
    14.664
 30
   237.667
 70
    32
  0
VERTEX
  8
0
 10
    80.000
 20
    35.000
 30
   237.667
 70
    32
  0
VERTEX
  8
0
 10
    80.000
 20
    35.029
 30
   237.667
 70
    32
  0
VERTEX
  8
0
 10
    74.667
 20
    35.184
 30
   237.667
 70
    32
  0
VERTEX
  8
0
 10
    69.333
 20
    35.328
 30
   237.667
 70
    32
  0
VERTEX
  8
0
 10
    64.000
 20
    35.461
 30
   237.667
 70
    32
  0
VERTEX
  8
0
 10
    58.667
 20
    35.584
 30
   237.667
 70
    32
  0
VERTEX
  8
0
 10
    53.333
 20
    35.696
 30
   237.667
 70
    32
  0
VERTEX
  8
0
 10
    48.000
 20
    35.797
 30
   237.667
 70
    32
  0
VERTEX
  8
0
 10
    42.667
 20
    35.888
 30
   237.667
 70
    32
  0
VERTEX
  8
0
 10
    37.333
 20
    35.968
 30
   237.667
 70
    32
  0
VERTEX
  8
0
 10
    32.000
 20
    36.037
 30
   237.667
 70
    32
  0
VERTEX
  8
0
 10
    26.667
 20
    36.096
 30
   237.667
 70
    32
  0
VERTEX
  8
0
 10
    21.333
 20
    36.144
 30
   237.667
 70
    32
  0
VERTEX
  8
0
 10
    16.000
 20
    36.181
 30
   237.667
 70
    32
  0
VERTEX
  8
0
 10
    10.667
 20
    36.208
 30
   237.667
 70
    32
  0
VERTEX
  8
0
 10
     5.333
 20
    36.224
 30
   237.667
 70
    32
  0
VERTEX
  8
0
 10
     0.000
 20
    36.229
 30
   237.667
 70
    32
  0
SEQEND
  8
0
  0
POLYLINE
  8
0
 66
     1
 10
0.0
 20
0.0
 30
0.0
 70
     8
  0
VERTEX
  8
0
 10
     0.000
 20
    14.664
 30
   237.667
 70
    32
  0
VERTEX
  8
0
 10
   -80.000
 20
    14.664
 30
   237.667
 70
    32
  0
VERTEX
  8
0
 10
   -80.000
 20
    35.000
 30
   237.667
 70
    32
  0
VERTEX
  8
0
 10
   -80.000
 20
    35.029
 30
   237.667
 70
    32
  0
VERTEX
  8
0
 10
   -74.667
 20
    35.184
 30
   237.667
 70
    32
  0
VERTEX
  8
0
 10
   -69.333
 20
    35.328
 30
   237.667
 70
    32
  0
VERTEX
  8
0
 10
   -64.000
 20
    35.461
 30
   237.667
 70
    32
  0
VERTEX
  8
0
 10
   -58.667
 20
    35.584
 30
   237.667
 70
    32
  0
VERTEX
  8
0
 10
   -53.333
 20
    35.696
 30
   237.667
 70
    32
  0
VERTEX
  8
0
 10
   -48.000
 20
    35.797
 30
   237.667
 70
    32
  0
VERTEX
  8
0
 10
   -42.667
 20
    35.888
 30
   237.667
 70
    32
  0
VERTEX
  8
0
 10
   -37.333
 20
    35.968
 30
   237.667
 70
    32
  0
VERTEX
  8
0
 10
   -32.000
 20
    36.037
 30
   237.667
 70
    32
  0
VERTEX
  8
0
 10
   -26.667
 20
    36.096
 30
   237.667
 70
    32
  0
VERTEX
  8
0
 10
   -21.333
 20
    36.144
 30
   237.667
 70
    32
  0
VERTEX
  8
0
 10
   -16.000
 20
    36.181
 30
   237.667
 70
    32
  0
VERTEX
  8
0
 10
   -10.667
 20
    36.208
 30
   237.667
 70
    32
  0
VERTEX
  8
0
 10
    -5.333
 20
    36.224
 30
   237.667
 70
    32
  0
VERTEX
  8
0
 10
     0.000
 20
    36.229
 30
   237.667
 70
    32
  0
SEQEND
  8
0
  0
POLYLINE
  8
0
 66
     1
 10
0.0
 20
0.0
 30
0.0
 70
     8
  0
VERTEX
  8
0
 10
     0.000
 20
    18.335
 30
   243.833
 70
    32
  0
VERTEX
  8
0
 10
    76.167
 20
    18.335
 30
   243.833
 70
    32
  0
VERTEX
  8
0
 10
    76.355
 20
    35.000
 30
   243.833
 70
    32
  0
VERTEX
  8
0
 10
    74.667
 20
    35.049
 30
   243.833
 70
    32
  0
VERTEX
  8
0
 10
    69.333
 20
    35.193
 30
   243.833
 70
    32
  0
VERTEX
  8
0
 10
    64.000
 20
    35.326
 30
   243.833
 70
    32
  0
VERTEX
  8
0
 10
    58.667
 20
    35.449
 30
   243.833
 70
    32
  0
VERTEX
  8
0
 10
    53.333
 20
    35.561
 30
   243.833
 70
    32
  0
VERTEX
  8
0
 10
    48.000
 20
    35.662
 30
   243.833
 70
    32
  0
VERTEX
  8
0
 10
    42.667
 20
    35.753
 30
   243.833
 70
    32
  0
VERTEX
  8
0
 10
    37.333
 20
    35.833
 30
   243.833
 70
    32
  0
VERTEX
  8
0
 10
    32.000
 20
    35.902
 30
   243.833
 70
    32
  0
VERTEX
  8
0
 10
    26.667
 20
    35.961
 30
   243.833
 70
    32
  0
VERTEX
  8
0
 10
    21.333
 20
    36.009
 30
   243.833
 70
    32
  0
VERTEX
  8
0
 10
    16.000
 20
    36.046
 30
   243.833
 70
    32
  0
VERTEX
  8
0
 10
    10.667
 20
    36.073
 30
   243.833
 70
    32
  0
VERTEX
  8
0
 10
     5.333
 20
    36.089
 30
   243.833
 70
    32
  0
VERTEX
  8
0
 10
     0.000
 20
    36.094
 30
   243.833
 70
    32
  0
SEQEND
  8
0
  0
POLYLINE
  8
0
 66
     1
 10
0.0
 20
0.0
 30
0.0
 70
     8
  0
VERTEX
  8
0
 10
     0.000
 20
    18.335
 30
   243.833
 70
    32
  0
VERTEX
  8
0
 10
   -76.167
 20
    18.335
 30
   243.833
 70
    32
  0
VERTEX
  8
0
 10
   -76.355
 20
    35.000
 30
   243.833
 70
    32
  0
VERTEX
  8
0
 10
   -74.667
 20
    35.049
 30
   243.833
 70
    32
  0
VERTEX
  8
0
 10
   -69.333
 20
    35.193
 30
   243.833
 70
    32
  0
VERTEX
  8
0
 10
   -64.000
 20
    35.326
 30
   243.833
 70
    32
  0
VERTEX
  8
0
 10
   -58.667
 20
    35.449
 30
   243.833
 70
    32
  0
VERTEX
  8
0
 10
   -53.333
 20
    35.561
 30
   243.833
 70
    32
  0
VERTEX
  8
0
 10
   -48.000
 20
    35.662
 30
   243.833
 70
    32
  0
VERTEX
  8
0
 10
   -42.667
 20
    35.753
 30
   243.833
 70
    32
  0
VERTEX
  8
0
 10
   -37.333
 20
    35.833
 30
   243.833
 70
    32
  0
VERTEX
  8
0
 10
   -32.000
 20
    35.902
 30
   243.833
 70
    32
  0
VERTEX
  8
0
 10
   -26.667
 20
    35.961
 30
   243.833
 70
    32
  0
VERTEX
  8
0
 10
   -21.333
 20
    36.009
 30
   243.833
 70
    32
  0
VERTEX
  8
0
 10
   -16.000
 20
    36.046
 30
   243.833
 70
    32
  0
VERTEX
  8
0
 10
   -10.667
 20
    36.073
 30
   243.833
 70
    32
  0
VERTEX
  8
0
 10
    -5.333
 20
    36.089
 30
   243.833
 70
    32
  0
VERTEX
  8
0
 10
     0.000
 20
    36.094
 30
   243.833
 70
    32
  0
SEQEND
  8
0
  0
POLYLINE
  8
0
 66
     1
 10
0.0
 20
0.0
 30
0.0
 70
     8
  0
VERTEX
  8
0
 10
     0.000
 20
    21.997
 30
   250.000
 70
    32
  0
VERTEX
  8
0
 10
    70.005
 20
    21.997
 30
   250.000
 70
    32
  0
VERTEX
  8
0
 10
    70.005
 20
    35.000
 30
   250.000
 70
    32
  0
VERTEX
  8
0
 10
    69.333
 20
    35.018
 30
   250.000
 70
    32
  0
VERTEX
  8
0
 10
    64.000
 20
    35.151
 30
   250.000
 70
    32
  0
VERTEX
  8
0
 10
    58.667
 20
    35.274
 30
   250.000
 70
    32
  0
VERTEX
  8
0
 10
    53.333
 20
    35.386
 30
   250.000
 70
    32
  0
VERTEX
  8
0
 10
    48.000
 20
    35.487
 30
   250.000
 70
    32
  0
VERTEX
  8
0
 10
    42.667
 20
    35.578
 30
   250.000
 70
    32
  0
VERTEX
  8
0
 10
    37.333
 20
    35.658
 30
   250.000
 70
    32
  0
VERTEX
  8
0
 10
    32.000
 20
    35.727
 30
   250.000
 70
    32
  0
VERTEX
  8
0
 10
    26.667
 20
    35.786
 30
   250.000
 70
    32
  0
VERTEX
  8
0
 10
    21.333
 20
    35.834
 30
   250.000
 70
    32
  0
VERTEX
  8
0
 10
    16.000
 20
    35.871
 30
   250.000
 70
    32
  0
VERTEX
  8
0
 10
    10.667
 20
    35.898
 30
   250.000
 70
    32
  0
VERTEX
  8
0
 10
     5.333
 20
    35.914
 30
   250.000
 70
    32
  0
VERTEX
  8
0
 10
     0.000
 20
    35.919
 30
   250.000
 70
    32
  0
SEQEND
  8
0
  0
POLYLINE
  8
0
 66
     1
 10
0.0
 20
0.0
 30
0.0
 70
     8
  0
VERTEX
  8
0
 10
     0.000
 20
    21.997
 30
   250.000
 70
    32
  0
VERTEX
  8
0
 10
   -70.005
 20
    21.997
 30
   250.000
 70
    32
  0
VERTEX
  8
0
 10
   -70.005
 20
    35.000
 30
   250.000
 70
    32
  0
VERTEX
  8
0
 10
   -69.333
 20
    35.018
 30
   250.000
 70
    32
  0
VERTEX
  8
0
 10
   -64.000
 20
    35.151
 30
   250.000
 70
    32
  0
VERTEX
  8
0
 10
   -58.667
 20
    35.274
 30
   250.000
 70
    32
  0
VERTEX
  8
0
 10
   -53.333
 20
    35.386
 30
   250.000
 70
    32
  0
VERTEX
  8
0
 10
   -48.000
 20
    35.487
 30
   250.000
 70
    32
  0
VERTEX
  8
0
 10
   -42.667
 20
    35.578
 30
   250.000
 70
    32
  0
VERTEX
  8
0
 10
   -37.333
 20
    35.658
 30
   250.000
 70
    32
  0
VERTEX
  8
0
 10
   -32.000
 20
    35.727
 30
   250.000
 70
    32
  0
VERTEX
  8
0
 10
   -26.667
 20
    35.786
 30
   250.000
 70
    32
  0
VERTEX
  8
0
 10
   -21.333
 20
    35.834
 30
   250.000
 70
    32
  0
VERTEX
  8
0
 10
   -16.000
 20
    35.871
 30
   250.000
 70
    32
  0
VERTEX
  8
0
 10
   -10.667
 20
    35.898
 30
   250.000
 70
    32
  0
VERTEX
  8
0
 10
    -5.333
 20
    35.914
 30
   250.000
 70
    32
  0
VERTEX
  8
0
 10
     0.000
 20
    35.919
 30
   250.000
 70
    32
  0
SEQEND
  8
0
  0
ENDSEC
  0
EOF
